SplineFontDB: 3.0
FontName: Dimock
FullName: Dimock
FamilyName: Dimock
Weight: Regular
Copyright: Copyright (c) 2018, Zach West
Version: 0.002
ItalicAngle: 0
UnderlinePosition: -100
UnderlineWidth: 50
Ascent: 800
Descent: 200
InvalidEm: 0
sfntRevision: 0x00000083
LayerCount: 2
Layer: 0 0 "Back" 1
Layer: 1 0 "Fore" 0
XUID: [1021 209 259205530 3122]
StyleMap: 0x0040
FSType: 0
OS2Version: 4
OS2_WeightWidthSlopeOnly: 0
OS2_UseTypoMetrics: 1
CreationTime: 1537292998
ModificationTime: 1579242537
PfmFamily: 17
TTFWeight: 400
TTFWidth: 5
LineGap: 90
VLineGap: 0
Panose: 2 0 5 3 0 0 0 0 0 0
OS2TypoAscent: 800
OS2TypoAOffset: 0
OS2TypoDescent: -200
OS2TypoDOffset: 0
OS2TypoLinegap: 90
OS2WinAscent: 801
OS2WinAOffset: 0
OS2WinDescent: 190
OS2WinDOffset: 0
HheadAscent: 801
HheadAOffset: 0
HheadDescent: -190
HheadDOffset: 0
OS2SubXSize: 650
OS2SubYSize: 699
OS2SubXOff: 0
OS2SubYOff: 140
OS2SupXSize: 650
OS2SupYSize: 699
OS2SupXOff: 0
OS2SupYOff: 479
OS2StrikeYSize: 49
OS2StrikeYPos: 258
OS2CapHeight: 782
OS2XHeight: 556
OS2Vendor: 'PfEd'
OS2CodePages: 00000001.00000000
OS2UnicodeRanges: 00000000.00000000.00000000.00000000
MarkAttachClasses: 1
DEI: 91125
LangName: 1033 "" "" "" "FontForge 2.0 : Dimock : 25-4-2019"
Encoding: ISO8859-1
UnicodeInterp: none
NameList: AGL For New Fonts
DisplaySize: -48
AntiAlias: 1
FitToEm: 0
WinInfo: 46 23 9
BeginPrivate: 8
BlueValues 23 [-1 29 536 544 770 795]
OtherBlues 11 [-191 -182]
BlueScale 9 0.0333333
BlueShift 1 0
StdHW 4 [46]
StdVW 4 [52]
StemSnapH 16 [42 46 52 56 60]
StemSnapV 28 [38 44 48 52 57 62 66 71 96]
EndPrivate
BeginChars: 257 66

StartChar: .notdef
Encoding: 256 -1 0
Width: 500
Flags: MW
HStem: 0 50<100 400 100 450> 483 50<100 400 100 100>
VStem: 50 50<50 50 50 483> 400 50<50 483 483 483>
LayerCount: 2
Fore
SplineSet
50 0 m 1
 50 533 l 1
 450 533 l 1
 450 0 l 1
 50 0 l 1
100 50 m 1
 400 50 l 1
 400 483 l 1
 100 483 l 1
 100 50 l 1
EndSplineSet
Validated: 1
EndChar

StartChar: zero
Encoding: 48 48 1
Width: 1000
Flags: HMW
HStem: 375 60 666 81
VStem: 159 66 414 66
LayerCount: 2
Fore
SplineSet
-53 775 m 1052
444 435 m 0,0,0
 446.720018727 435.544003745 449.571566375 435.824949646 452.42942655 435.824949646 c 0,0,0
 465.331716188 435.824949646 478.362669164 430.098646692 480 417 c 0,0,0
 480.145113345 415.548866554 480.216524099 414.10826205 480.216524099 412.682770156 c 0,0,0
 480.216524099 394.461662387 468.548866554 378.709773311 450 375 c 0,0,0
 447.909247486 374.508058232 445.818494973 374.273248586 443.755645554 374.273248586 c 0,0,0
 429.045376257 374.273248586 415.754029116 386.213737956 414 402 c 0,0,0
 413.879130259 403.027392802 413.820350868 404.036523736 413.820350868 405.02673061 c 0,0,0
 413.820350868 420.421217908 428.027392802 431.241739483 444 435 c 0,0,0
582 666 m 0,0,0
 533 663 505 653 462 630 c 0,0,0
 412 604 372 563 348 543 c 0,0,0
 319 520 297 511 276 480 c 0,0,0
 253 446 247 422 237 381 c 0,0,0
 227 339 226 313 225 270 c 0,0,0
 225 242 229 226 234 198 c 0,0,0
 239 170 232 149 249 126 c 0,0,0
 270 97 290 84 324 75 c 0,0,0
 342.791666667 69.9583333333 358.642361111 67.4375 374.151692708 67.4375 c 0,0,0
 392.480902778 67.4375 410.333333333 70.9583333333 432 78 c 0,0,0
 470 90 485 110 516 135 c 0,0,0
 555 167 552 156 612 222 c 0,0,0
 645 259 659 283 687 324 c 0,0,0
 700 344 713 354 717 378 c 0,0,0
 720.691532947 402.258645079 723.270623812 421.511300792 723.270623812 440.744573004 c 0,0,0
 723.270623812 457.982031901 721.199019655 475.20392138 716 496 c 0,0,0
 706 536 706 565 680 601 c 0,0,0
 664 623 650 625 627 639 c 0,0,0
 609.509618943 649.688566201 602.405187654 666.042195912 583.668012911 666.042195912 c 0,0,0
 583.122066019 666.042195912 582.56624327 666.028312164 582 666 c 0,0,0
597 747 m 0,0,0
 646 746 671 694 708 651 c 0,0,0
 745 607 766 574 782 524 c 0,0,0
 789.770077951 499.302252227 793.227719376 476.683714922 793.227719376 455.140003841 c 0,0,0
 793.227719376 399.049498886 769.789877505 350.244771715 738 291 c 0,0,0
 711 240 676 198 627 147 c 0,0,0
 585 104 546 86 492 51 c 0,0,0
 466 34 451 17 420 15 c 0,0,0
 413.357860891 14.4347115652 407.095188612 14.1690022065 401.110374011 14.1690022065 c 0,0,0
 364.74643896 14.1690022065 338.640505109 23.9785095217 300 36 c 0,0,0
 267 46 244 52 222 78 c 0,0,0
 192 112 187 140 171 183 c 0,0,0
 163.327684427 204.311987703 158.562254101 218.356762288 158.562254101 238.144139309 c 0,0,0
 158.562254101 241.568319672 158.704959016 245.164467211 159 249 c 0,0,0
 163 308 168 342 186 399 c 0,0,0
 199 438 215 457 237 492 c 0,0,0
 262 531 275 554 306 588 c 0,0,0
 331 616 350 628 381 648 c 0,0,0
 418 672 440 683 480 702 c 0,0,0
 515 719 531 729 567 743 c 0,0,0
 576 747 588 747 597 747 c 0,0,0
EndSplineSet
Validated: 1
EndChar

StartChar: one
Encoding: 49 49 2
Width: 1000
Flags: HMW
VStem: 340 60<112 127.5>
LayerCount: 2
Fore
SplineSet
498 736 m 0
 501 745 500 754 508 760 c 0
 514 765 521 763 528 760 c 0
 542 755 557 754 560 740 c 0
 560.252501752 738.400822234 560.370405109 736.87248573 560.370405109 735.40366171 c 0
 560.370405109 719.42123235 546.410829244 710.484989485 540 694 c 0
 530 667 523 652 516 624 c 0
 514.576014311 617.5920644 514.292629696 611.944529515 514.292629696 606.515995478 c 0
 514.292629696 602.926789944 514.416511578 599.43332086 514.416511578 595.879105849 c 0
 514.416511578 589.708746983 514.043140006 583.355304021 512 576 c 0
 508 562 499 557 494 544 c 0
 487 524 486 512 480 492 c 2
 444 366 l 2
 434 332 427 313 420 278 c 0
 413 242 413 221 408 184 c 0
 405 166 401 156 400 138 c 0
 399.154700538 128.701705922 398.845299462 121.189739794 398.845299462 113.954119561 c 0
 398.845299462 104.070078511 399.422649731 94.7017059222 400 82 c 0
 400 73 397 67 404 60 c 0
 412 52 424 60 430 52 c 0
 436 44 430 37 428 28 c 0
 426 21 426 14 420 12 c 0
 415.378022314 10.4593407715 411.052748486 9.6604411862 406.909898631 9.6604411862 c 0
 400.296703857 9.6604411862 394.148351929 11.6961536499 388 16 c 0
 374 26 372 38 364 52 c 0
 358 63 354 70 350 82 c 0
 345 96 340 104 340 120 c 0
 340 135 347 143 348 158 c 0
 348.292893219 162.246951673 348.414213562 166.215097423 348.414213562 169.986097616 c 0
 348.414213562 188.194097231 345.585786438 201.805902769 345.585786438 220.013902384 c 0
 345.585786438 223.784902577 345.707106781 227.753048327 346 232 c 0
 347 248 352 256 356 272 c 0
 359 284 360 290 364 302 c 0
 372 325 379 336 386 360 c 0
 392 382 390 396 396 418 c 0
 403 443 412 456 420 480 c 0
 429 505 431 519 440 544 c 0
 447 565 455 575 460 596 c 0
 461.188345161 601.347553224 461.494087683 606.165544865 461.494087683 610.768625895 c 0
 461.494087683 615.647998092 461.150540416 620.285886205 461.150540416 625.057069071 c 0
 461.150540416 630.935408774 461.672027713 637.01608314 464 644 c 0
 468 657 481 659 486 672 c 0
 492 687 489 698 492 714 c 0
 494 723 495 728 498 736 c 0
EndSplineSet
Validated: 1
EndChar

StartChar: glyph16
Encoding: 50 50 3
Width: 0
Flags: W
HStem: 13.7078 21G<199.797 209.152> 156.221 39.695<465.504 590.834> 730.578 46.7001<568.751 691.875>
VStem: 703.768 63.7793<628.609 724.243>
LayerCount: 2
Fore
SplineSet
316 609 m 0
 360 650 394 663 445 696 c 0
 487 723 509 745 556 762 c 0
 590.166666667 774.5 614.611111111 777.277777778 646.694444444 777.277777778 c 0
 653.111111111 777.277777778 659.833333333 777.166666667 667 777 c 0
 700 776 722 777 748 756 c 0
 762.314295035 744.699240762 767.547192071 729.992957275 767.547192071 713.163983192 c 0
 767.547192071 707.655112009 766.986464203 701.918785219 766 696 c 0
 758 646 743 620 718 576 c 0
 690 526 668 500 631 456 c 0
 542 350 481 308 395 200 c 0
 389 192 393 172 401 176 c 0
 421.540223762 187.060120487 436.532771098 188.134423408 452.843890998 188.134423408 c 0
 456.776574597 188.134423408 460.785908607 188.071972722 464.96812851 188.071972722 c 0
 476.375075254 188.071972722 489.068151376 188.536554647 505 192 c 0
 517.546892034 194.754195812 528.689044333 195.916353258 539.28621874 195.916353258 c 0
 563.317871096 195.916353258 584.546892034 189.939782431 613 183 c 0
 628 179 637 172 646 159 c 0
 656.761663039 144.651115948 664.306287429 133.519270544 664.306287429 116.949292309 c 0
 664.306287429 115.042596623 664.206389493 113.063894935 664 111 c 0
 663 99 651 90 640 93 c 0
 621 99 621 119 604 129 c 0
 579 144 564 154 535 156 c 0
 532.37327069 156.150098818 529.842292414 156.221343843 527.393115765 156.221343843 c 0
 497.208102661 156.221343843 479.448320099 145.399604729 448 138 c 0
 411 129 390 125 355 111 c 0
 324 98 309 85 280 69 c 0
 230 42 244 30 214 15 c 0
 212.231107337 14.1155536683 210.229985596 13.7077880746 208.073657585 13.7077880746 c 0
 191.519716609 13.7077880746 165.818696938 37.7394460497 165.818696938 54.6228845132 c 0
 165.818696938 55.432855784 165.877848713 56.2263751833 166 57 c 0
 172 96 217 92 247 120 c 0
 272 143 280 162 304 186 c 0
 332 214 353 224 382 252 c 0
 415 284 432 304 463 339 c 0
 495 375 512 396 544 432 c 0
 578 471 600 489 631 531 c 0
 649 555 650 574 667 600 c 0
 680 620 678 628 697 651 c 0
 701.838471179 656.58285136 703.767907622 663.966533747 703.767907622 672.429237893 c 0
 703.767907622 686.704119614 698.278099093 704.049132448 692 721 c 0
 689.447542072 728.231964129 678.932255677 730.577647153 666.459190824 730.577647153 c 0
 649.612129261 730.577647153 629.193445526 726.298361381 620 724 c 0
 585 715 575 713 542 697 c 0
 517 685 504 675 481 660 c 0
 455 643 436 640 412 621 c 0
 391 605 392 580 367 570 c 0
 364.333333333 569 361.833333333 568.555555556 359.458333333 568.555555556 c 0
 347.583333333 568.555555556 338.833333333 579.666666667 328 588 c 0
 321 594 309 603 316 609 c 0
EndSplineSet
Validated: 1
EndChar

StartChar: glyph18
Encoding: 51 51 4
Width: 0
Flags: HMW
HStem: 738 46<531 551>
VStem: 588 56
LayerCount: 2
Fore
SplineSet
23 674 m 1048
316 796 m 0,0,0
 321.085369451 796.577882892 325.903579992 796.835175093 330.51638625 796.835175093 c 0,0,0
 365.814834674 796.835175093 389.085369451 781.768846843 428 780 c 0,0,0
 435.142857143 779.714285714 441.836734694 779.591836735 448.209912536 779.591836735 c 0,0,0
 486.448979592 779.591836735 513.142857143 784 556 784 c 0,0,0
 587 784 605 781 636 778 c 0,0,0
 667 774 685 771 716 766 c 0,0,0
 720.981910402 765.288298514 725.738701246 765.139395923 730.310427014 765.139395923 c 0,0,0
 733.59985873 765.139395923 736.79348154 765.21648337 739.906215596 765.21648337 c 0,0,0
 750.703128882 765.21648337 760.526839386 764.289015537 770 756 c 0,0,0
 776.633436854 750.472135955 778.683281573 743.721980674 778.683281573 736.087367146 c 0,0,0
 778.683281573 729.910835056 777.341640786 723.155417528 776 716 c 0,0,0
 773 700 767 691 756 678 c 0,0,0
 737 654 723 642 700 622 c 0,0,0
 669 595 651 581 618 558 c 0,0,0
 595 542 581 533 556 520 c 0,0,0
 528 506 510 502 482 488 c 0,0,0
 467 481 456 479 444 466 c 0,0,0
 439 461 439 453 444 448 c 0,0,0
 457 434 468 433 484 422 c 0,0,0
 506 407 518 398 540 382 c 0,0,0
 559 369 571 364 588 348 c 0,0,0
 603 334 610 323 620 306 c 0,0,0
 629 291 632 281 636 264 c 0,0,0
 641 242 643 229 644 206 c 0,0,0
 644.377964473 199.952568432 644.755928946 194.619422578 644.755928946 189.514608116 c 0,0,0
 644.755928946 181.113353022 643.732213162 173.330532905 640 164 c 0,0,0
 633 148 624 142 612 128 c 0,0,0
 597 110 589 100 572 84 c 0,0,0
 554 67 545 57 524 44 c 0,0,0
 511 36 503 32 488 30 c 0,0,0
 474.620406038 28.3944487245 464.391450284 27.3617407598 453.940791943 27.3617407598 c 0,0,0
 444.864216553 27.3617407598 435.620406038 28.140735034 424 30 c 0,0,0
 407 33 399 38 384 46 c 0,0,0
 369 53 361 58 348 68 c 0,0,0
 338 76 331 79 324 90 c 0,0,0
 314 105 312 116 306 132 c 0,0,0
 300 150 294 159 292 178 c 0,0,0
 291.519868451 184.721841687 290.117631684 191.443683374 290.117631684 197.501427351 c 0,0,0
 290.117631684 204.060525547 291.761578589 209.841052392 298 214 c 0,0,0
 307.307878767 220.399166652 316.95418178 224.090939331 326.742033299 224.090939331 c 0,0,0
 333.77924238 224.090939331 340.88962119 222.182575771 348 218 c 0,0,0
 358 212 343 200 344 188 c 0,0,0
 346 171 349 161 356 146 c 0,0,0
 363 131 368 122 380 110 c 0,0,0
 390 100 396 94 410 90 c 0,0,0
 416.877635329 87.9771660797 422.773224961 87.2637264215 428.547592214 87.2637264215 c 0,0,0
 437.046189228 87.2637264215 445.282202113 88.8091335681 456 90 c 0,0,0
 473 92 484 92 500 100 c 0,0,0
 521 110 531 118 548 134 c 0,0,0
 561 147 568 155 576 172 c 0,0,0
 584 189 586 199 588 218 c 0,0,0
 588.633249581 224.015871017 588.965745388 229.229731971 588.965745388 234.117713364 c 0,0,0
 588.965745388 244.667504193 587.416876048 253.699246226 584 266 c 0,0,0
 580 281 574 288 564 300 c 0,0,0
 550 317 541 325 524 340 c 0,0,0
 507 355 496 361 478 374 c 0,0,0
 455 391 446 406 420 418 c 0,0,0
 414.605551275 420.538564106 409.613871783 421.264666665 404.73739591 421.264666665 c 0,0,0
 398.218700598 421.264666665 391.905866876 419.967167245 385.111983288 419.967167245 c 0,0,0
 380.971787964 419.967167245 376.652945708 420.449018097 372 422 c 0,0,0
 360 426 352 432 348 444 c 0,0,0
 346.238421411 449.725130413 345.058685158 455.256313382 345.058685158 460.422722071 c 0,0,0
 345.058685158 466.987629197 346.963551825 472.963551825 352 478 c 0,0,0
 370 496 389 496 412 508 c 0,0,0
 439 522 453 531 480 546 c 0,0,0
 501 558 513 566 534 578 c 0,0,0
 558 592 573 598 596 614 c 0,0,0
 617 629 626 640 646 656 c 0,0,0
 657 665 663 669 676 676 c 0,0,0
 689 683 701 679 712 690 c 0,0,0
 719 697 722 708 716 716 c 0,0,0
 707 728 695 728 680 730 c 0,0,0
 668.739797038 731.732338917 659.542780286 732.151741155 650.540650458 732.151741155 c 0,0,0
 642.089910967 732.151741155 633.81091548 731.782143142 624.158072307 731.782143142 c 0,0,0
 620.350728489 731.782143142 616.329651328 731.839642543 612 732 c 0,0,0
 582 734 566 738 536 738 c 0,0,0
 508 738 492 733 464 732 c 0,0,0
 453.282032303 731.732050808 443.856406461 731.607695155 435.030558561 731.607695155 c 0,0,0
 410.917893678 731.607695155 391.282032303 732.535898385 362 734 c 0,0,0
 349 735 339 733 328 740 c 0,0,0
 318 746 314 755 312 766 c 0,0,0
 310 778 304 795 316 796 c 0,0,0
EndSplineSet
Validated: 1
EndChar

StartChar: four
Encoding: 52 52 5
Width: 1000
Flags: HMW
HStem: 404 72
VStem: 515 67
LayerCount: 2
Fore
SplineSet
490 657 m 0
 480 631 465 620 450 596 c 0
 431 564 423 544 404 512 c 0
 388 485 376 471 360 444 c 0
 351 429 347 420 340 404 c 0
 327 374 324 356 310 326 c 0
 304 314 297 308 294 296 c 0
 292 288 293 280 296 276 c 0
 298 273 316 266 326 272 c 0
 340 280 349 284 364 294 c 0
 386 309 401 317 424 330 c 0
 439 338 447 341 462 350 c 0
 479 360 488 367 504 378 c 0
 524 391 535 401 556 412 c 0
 560.5 414.25 565.140625 414.53125 569.552734375 414.53125 c 0
 571.0234375 414.53125 572.46875 414.5 573.875 414.5 c 0
 579.5 414.5 584.5 415 588 420 c 0
 604 443 600 461 608 488 c 0
 617 517 623 533 632 562 c 0
 640 586 645 600 652 624 c 0
 660 650 664 664 670 690 c 0
 676 717 670 736 684 760 c 0
 694 778 709 782 728 788 c 0
 737 791 746 788 752 780 c 0
 758 772 758 763 754 754 c 0
 750 745 739 747 734 738 c 0
 724 718 725 705 718 684 c 0
 711 662 710 651 704 629 c 0
 697 602 694 584 686 558 c 0
 676 527 663 511 654 480 c 0
 652 475 653 467 658 466 c 0
 658.665087065 465.952493781 659.312119404 465.929812811 659.942812439 465.929812811 c 0
 672.588129354 465.929812811 678.665087065 475.047506219 692 476 c 0
 702 477 714 479 716 470 c 0
 718 462.666666667 718.888888889 456.111111111 718.888888889 449.851851852 c 0
 718.888888889 437.333333333 715.333333333 426 710 412 c 0
 707 404 699 404 690 404 c 0
 689.536681296 403.972745959 689.075590941 403.95960479 688.616688446 403.95960479 c 0
 676.204440726 403.95960479 665.392781496 413.573381321 655.380562711 413.573381321 c 0
 652.180773154 413.573381321 649.062635871 412.591461122 646 410 c 0
 626 393 630 373 624 348 c 0
 612 303 608 276 600 230 c 0
 592 184 586 158 582 112 c 0
 581.476833625 105.983586684 581.29579607 100.51457948 581.29579607 95.3244929468 c 0
 581.29579607 83.6590488375 582.21037677 73.4026795576 582.21037677 61.5067827733 c 0
 582.21037677 58.4622784474 582.150472077 55.3103856841 582 52 c 0
 581 34 575 20 558 12 c 0
 547 7 539 19 532 28 c 0
 522 41 515 57 515 70 c 0
 515 98 526 114 533 142 c 0
 543 185 539 209 547 253 c 0
 553.4 290.6 571.96 334.6 571.96 352.232 c 0
 571.96 356.64 570.8 359.4 568 360 c 0
 566.17532335 360.36493533 564.528217093 360.537502734 563.017280137 360.537502734 c 0
 552.107356479 360.537502734 548.29696846 351.54025868 536 341 c 0
 507 317 488 316 456 296 c 0
 418 273 398 257 356 242 c 0
 341.211102551 236.454163457 329.839572098 235.085108797 317.439840535 235.085108797 c 0
 309.716803748 235.085108797 301.594898491 235.61620406 292 236 c 0
 283 236 278 240 270 246 c 0
 265 250 261 254 260 260 c 0
 257.577794898 273.32212806 256.255666838 282.977332648 256.255666838 293.406634135 c 0
 256.255666838 300.200154083 256.816653826 307.32212806 258 316 c 0
 260 334 265 344 272 360 c 0
 282 384 290 397 302 420 c 2
 330 476 l 2
 342 500 348 514 362 536 c 0
 378 561 391 573 406 598 c 0
 416 614 416 626 426 642 c 0
 436 657 441 667 456 676 c 0
 464 681 472 681 480 676 c 0
 488 671 493 666 490 657 c 0
EndSplineSet
Validated: 1
EndChar

StartChar: five
Encoding: 53 53 6
Width: 1000
Flags: HMW
HStem: 726 48<560.5 624.5 605 624.5 605 625>
LayerCount: 2
Fore
SplineSet
418 720 m 0
 417.343126677 722.134838301 417.036832936 724.215741281 417.036832936 726.229423189 c 0
 417.036832936 736.477964978 424.97061997 744.985309985 435 750 c 0
 457 761 473 758 497 762 c 0
 523 766 537 769 563 772 c 0
 583 774 595 774 615 774 c 0
 634 774 644 773 663 770 c 0
 691 765 712 769 735 752 c 0
 752.416573868 738.937569599 763.76640683 723.600111359 763.76640683 703.34607925 c 0
 763.76640683 700.341768745 763.516685226 697.229282665 763 694 c 0
 762 687 754.75 684.75 746 684.75 c 0
 737.25 684.75 727 687 720 689 c 0
 703 694 699 705 682 710 c 0
 659 717 648 723 625 726 c 0
 617.666666667 727 611.777777778 727.333333333 606.37037037 727.333333333 c 0
 595.555555556 727.333333333 586.666666667 726 572 726 c 0
 559.567567568 726 550.056975895 728.92184076 541.415039583 728.92184076 c 0
 534.069393718 728.92184076 527.351351351 726.810810811 520 719 c 0
 504 702 511 689 507 666 c 0
 503 645 496 634 489 614 c 0
 481 590 477 576 467 552 c 0
 459 533 450 524 443 504 c 0
 439.50618133 494.217307725 431.617925858 483.458073938 431.617925858 475.134157605 c 0
 431.617925858 471.545726561 433.083928541 468.409890129 437 466 c 0
 440.334891122 464.03829934 443.47736877 463.231079524 446.518022778 463.231079524 c 0
 458.977460448 463.231079524 469.727231254 476.784680264 485 480 c 0
 493.875644347 481.901923789 500.339745962 482.598076211 507.450018505 482.598076211 c 0
 511.555136271 482.598076211 515.875644347 482.366025404 521 482 c 0
 535 481 544 482 557 476 c 0
 573 468 579 459 591 446 c 0
 607 428 616 418 627 396 c 0
 635 379 637 368 639 348 c 0
 639.666666667 341.333333333 639.888888889 335.555555556 639.888888889 330.074074074 c 0
 639.888888889 319.111111111 639 309.333333333 639 296 c 0
 639 282.666666667 640.333333333 272.888888889 640.333333333 261.925925926 c 0
 640.333333333 256.444444444 640 250.666666667 639 244 c 0
 635 220 629 206 621 184 c 0
 609 153 603 135 587 106 c 0
 575 84 568 72 551 54 c 0
 537 39 527 30 509 22 c 0
 496.946905629 17.0369611412 487.909944487 15.0900555126 477.255796969 15.0900555126 c 0
 472.88305577 15.0900555126 468.237900077 15.4180111025 463 16 c 0
 440 18 429 26 407 32 c 0
 391 37 381 41 365 44 c 0
 348 47 338 48 321 48 c 0
 311.545454545 48 303.67768595 43.7685950413 295.858001503 43.7685950413 c 0
 292.925619835 43.7685950413 290 44.3636363636 287 46 c 0
 281.426696362 48.7866518188 277.794749815 59.3387319971 277.794749815 68.1889395702 c 0
 277.794749815 72.0424469188 278.483314774 75.5733036377 280 78 c 0
 287 89 300 86 313 88 c 0
 320.120639889 89.2565835097 326.539501058 89.8113883008 332.84447922 89.8113883008 c 0
 341.592169136 89.8113883008 350.120639889 88.7434164903 360 87 c 0
 378 84 389 81 407 79 c 0
 426 77 434 68 453 68 c 0
 467 68 477 68 489 76 c 0
 503 85 507 95 517 108 c 0
 529 124 536 133 545 150 c 0
 555 170 558 183 565 204 c 0
 573 227 580 240 583 264 c 0
 584.309475019 275.348783501 585.047375097 284.411267233 585.047375097 293.183352819 c 0
 585.047375097 304.508066615 583.817541634 315.348783501 581 330 c 0
 576 355 569 369 559 392 c 0
 553 406 553 420 539 426 c 0
 530.78289532 429.892312743 523.313943652 431.353128198 515.865133621 431.353128198 c 0
 506.090432925 431.353128198 496.350416127 428.837604032 485 426 c 0
 462 420 451 411 429 400 c 0
 412 392 405 383 387 378 c 0
 378.777100302 375.650600086 371.589140596 372.956220176 364.8282489 372.956220176 c 0
 360.078300475 372.956220176 355.539150238 374.286149806 351 378 c 0
 343.106376303 384.458419389 336.757611161 394.006555889 336.757611161 403.318628017 c 0
 336.757611161 406.983206074 337.740817234 410.611225852 340 414 c 0
 357 440 365 458 380 486 c 0
 393 510 401 523 412 548 c 0
 420 567 422 578 429 598 c 0
 435 616 441 625 445 644 c 0
 447.089631 654.448154999 448.633442285 662.167211425 448.633442285 669.866003544 c 0
 448.633442285 676.904343713 447.343145751 683.925747249 444 693 c 0
 438 708 423 704 418 720 c 0
EndSplineSet
Validated: 1
EndChar

StartChar: glyph17
Encoding: 54 54 7
Width: 0
Flags: HMW
VStem: 338 52<134.5 161>
LayerCount: 2
Fore
SplineSet
544 390 m 0
 538.239870411 390.54858377 532.855921014 390.946695464 527.765605269 390.946695464 c 0
 514.297895713 390.946695464 502.885621722 388.159913608 492 378 c 0
 474 361 480 341 470 318 c 0
 464 304 454 299 450 284 c 0
 445 264 447 252 446 232 c 0
 445.849527923 229.893390928 445.78962323 227.922632932 445.78962323 226.046842423 c 0
 445.78962323 218.717501457 446.70420393 212.838054099 446.70420393 205.969618482 c 0
 446.70420393 202.91377467 446.523166375 199.662164627 446 196 c 0
 445 190 443 179 438 182 c 0
 420.31490412 190.84254794 421.936142579 218.026113502 403.02970509 218.026113502 c 0
 402.693053534 218.026113502 402.349893466 218.017494673 402 218 c 0
 391.333333333 217.333333333 390.444444444 207.777777778 390.444444444 196.740740741 c 0
 390.444444444 194.533333333 390.48 192.266666667 390.48 190 c 0
 390.48 186.6 390.4 183.2 390 180 c 0
 388.645751311 171.423091637 388.106609072 164.680172785 388.106609072 158.115458184 c 0
 388.106609072 150.137685896 388.902832459 142.423091637 390 132 c 0
 391 122 393 117 396 108 c 0
 399 99 398 92 406 86 c 0
 419 76 428 71 444 68 c 0
 462.45113066 64.5831239518 475.765242872 63.0342546122 490.963358754 63.0342546122 c 0
 498.005025157 63.0342546122 505.45113066 63.3667504193 514 64 c 0
 535 66 548 67 566 78 c 0
 584 89 591 100 602 118 c 0
 613 137 618 150 622 172 c 0
 623.527864045 180.403252248 624.180339887 187.493422191 624.180339887 194.329343541 c 0
 624.180339887 205.39009663 622.472135955 215.785218259 620 230 c 0
 616 255 610 268 602 292 c 0
 596 310 590 319 582 336 c 0
 575 350 573 359 564 372 c 0
 558 381 554 389 544 390 c 0
620 770 m 0
 626 777 635 778 644 776 c 0
 653 774 660 771 664 762 c 0
 666.817541634 755.801408404 668.047375097 750.237900077 668.047375097 744.414788243 c 0
 668.047375097 739.904225212 667.309475019 735.237900077 666 730 c 0
 661 709 653 700 644 680 c 0
 633 656 628 641 614 618 c 0
 607 606 597 603 590 592 c 0
 577 571 575 558 564 536 c 0
 552 513 546 500 532 478 c 0
 526 469 519 467 514 458 c 0
 509 450 500 441 506 434 c 0
 517 422 530 428 546 422 c 0
 560 416 569 413 580 404 c 0
 597 390 606 381 618 362 c 0
 636 333 642 315 654 284 c 0
 662 263 666 250 670 228 c 0
 672.92820323 210.430780618 674.784609691 198.220545085 674.784609691 183.523196493 c 0
 674.784609691 178.143593539 674.535898385 172.430780618 674 166 c 0
 673 144 670 132 662 112 c 0
 654 93 648 83 634 68 c 0
 618 52 607 44 586 34 c 0
 563 23 549 19 524 16 c 0
 510.520328996 14.140735034 499.633307653 13.3617407598 488.828299156 13.3617407598 c 0
 476.38754399 13.3617407598 464.055512755 14.3944487245 448 16 c 0
 430 18 419 20 402 28 c 0
 389 34 384 41 374 52 c 0
 362 65 354 72 348 88 c 0
 340 109 338 123 338 146 c 0
 338 176 341 192 346 222 c 0
 350 245 353 258 362 280 c 0
 371 304 380 315 392 338 c 0
 408 369 417 387 434 418 c 0
 452 450 462 468 480 500 c 0
 496 528 507 542 522 570 c 0
 537 597 542 615 556 642 c 0
 572 672 585 687 600 718 c 0
 610 737 607 753 620 770 c 0
EndSplineSet
Validated: 1
EndChar

StartChar: seven
Encoding: 55 55 8
Width: 1000
Flags: HMW
HStem: 620 56 712 62
LayerCount: 2
Fore
SplineSet
276 692 m 0
 306 692 320 678 350 676 c 0
 361.346787517 675.267949192 370.951905284 674.803847577 380.090344047 674.803847577 c 0
 395.918584287 674.803847577 410.346787517 676.196152423 430 680 c 0
 451 684 461 694 482 700 c 0
 500 705 511 705 530 710 c 0
 555 717 569 722 594 730 c 0
 617 737 631 743 654 748 c 0
 687 756 706 759 740 764 c 0
 766.403124767 768.400520794 783.511249568 774.35020825 807.685510657 774.35020825 c 0
 810.978749686 774.35020825 814.403124767 774.239791682 818 774 c 0
 829 773 838 767 840 756 c 0
 840.19280087 754.45759304 840.283378257 752.980237387 840.283378257 751.556286945 c 0
 840.283378257 738.209033907 832.325196955 729.553993475 826 716 c 0
 810 683 802 664 782 634 c 0
 761 603 746 588 722 560 c 0
 687 518 683 502 652 458 c 0
 637 438 619 416 604 396 c 0
 588 375 587 372 569 352 c 0
 551 331 534 312 514 292 c 2
 482 260 l 2
 420 194 385 157 324 90 c 0
 318 83 318 73 316 64 c 0
 313 50 342 45 330 39 c 0
 320.463740166 34.0552726788 313.172918644 32.353956252 306.409201598 32.353956252 c 0
 294.022815414 32.353956252 283.40415574 38.059584426 264 40 c 0
 255 41 254 50 250 58 c 0
 246 67 239 75 244 84 c 0
 263 116 284 126 308 154 c 0
 355 207 376 242 426 292 c 0
 434 300 439 307 447 315 c 0
 488 355 507 375 542 420 c 0
 553 434 554 443 564 456 c 0
 635 551 686 596 756 692 c 0
 761 698 760 712 752 712 c 0
 749.277158432 712.175667198 746.662323239 712.258757503 744.137198858 712.258757503 c 0
 717.913366 712.258757503 701.364992031 703.297331208 674 696 c 0
 614 680 582 666 522 652 c 0
 494 645 478 647 450 642 c 0
 412 635 392 623 354 620 c 0
 351.052558883 619.732050808 348.284609691 619.607695155 345.648057707 619.607695155 c 0
 328.605117767 619.607695155 317.052558883 624.803847577 298 630 c 0
 283 634 272 634 262 646 c 0
 255 655 256 664 260 676 c 0
 263 684 267 692 276 692 c 0
EndSplineSet
Validated: 1
EndChar

StartChar: eight
Encoding: 56 56 9
Width: 1000
Flags: HMW
HStem: 600 44 610 42<651.5 657.5 629 671.5>
VStem: 389 33 469 52<364 400.5> 560 49
LayerCount: 2
Fore
SplineSet
481 344 m 0x38
 455 334 453 318 435 296 c 0
 428 287 424 282 421 270 c 0
 417 255 412 249 405 235 c 0
 401 227 396 223 395 214 c 0
 394.456440423 206.390165916 394.134473606 199.592838621 394.134473606 193.18644708 c 0
 394.134473606 176.020844648 396.446018098 161.661945705 403 142 c 0
 409 123 420 115 433 100 c 0
 448 83 456 73 475 60 c 0
 488 51 498 49 513 44 c 0
 520 42 526 38 533 42 c 0
 549 52 550 59 558 76 c 0
 561.102084238 82.2041684767 562.043919643 87.4264056654 562.043919643 92.7110659336 c 0
 562.043919643 99.3514918446 560.556845109 106.090478259 560 115 c 0
 559 131 555 138 554 154 c 0
 553.906458269 155.30958424 553.86541687 156.592918314 553.86541687 157.854913193 c 0
 553.86541687 166.894851959 555.971317824 174.839841919 555.971317824 183.494941035 c 0
 555.971317824 186.548484803 555.709196623 189.69041576 555 193 c 0
 550 215 543 216 533 237 c 0
 526 252 526 269 519 284 c 0
 511 301 511 312 501 328 c 0
 496 336 490 347 481 344 c 0x38
505 420 m 0
 543 425 557 451 589 472 c 0
 611 487 624 495 645 512 c 0
 666 529 676 541 697 558 c 0
 707 566 714 569 725 576 c 0
 732 581 741 582 743 590 c 0
 744 596 737 599 731 600 c 0
 727.844379084 600.728220211 724.983371878 600.985058488 722.273949275 600.985058488 c 0
 715.786845986 600.985058488 710.16870957 599.51271929 703.456421095 599.51271929 c 0
 701.42289928 599.51271929 699.288954249 599.647853192 697 600 c 0xb8
 684 602 678 610 665 610 c 0x78
 638 610 624 603 597 600 c 0xb8
 576 598 564 598 543 596 c 0
 521 594 509 595 487 592 c 0
 485.125836665 591.779510196 483.239519392 591.692713715 481.354447278 591.692713715 c 0
 474.376679814 591.692713715 467.415973247 592.881980163 461.151908407 592.881980163 c 0
 453.758206538 592.881980163 447.335061261 591.225102102 443 584 c 0
 440.595178272 579.911803062 439.63614843 576.054932826 439.63614843 572.276406935 c 0
 439.63614843 560.342641779 449.202410864 549.190356544 453 534 c 0
 457 520 460 512 465 498 c 0
 470 482 471 473 479 458 c 0
 486.684154356 442.631691289 486.987530191 419.882604057 502.950613081 419.882604057 c 0
 503.606751671 419.882604057 504.2893473 419.921038589 505 420 c 0
429 636 m 0
 438.352384841 634.051586491 442.693633618 633.166141239 446.04760108 633.166141239 c 0
 451.30055265 633.166141239 454.131750245 635.33809621 470 639 c 0
 478 641 479 647 477 656 c 0
 472 682 478 699 465 722 c 0
 460 732 446 737 437 730 c 0
 425 720 422 706 422 690 c 0
 422.071428571 688.5 422.102040816 686.954081633 422.102040816 685.375364431 c 0
 422.102040816 675.903061224 421 665.25 421 656.25 c 0
 421 645.75 422.5 637.5 429 636 c 0
499 640 m 0
 499 637.97684056 503.093174119 637.206693606 509.661922829 637.206693606 c 0
 525.820617177 637.206693606 556.959706091 641.867068331 579 644 c 0xb8
 603 646 617 652 641 652 c 0x78
 674 652 692 647 725 644 c 0
 738 643 747 645 759 640 c 0
 773 634 786 628 795 616 c 0
 798.46437636 611.38083152 799.854349635 606.020804795 799.854349635 600.433242182 c 0
 799.854349635 591.505042568 796.305485053 581.995900813 792 574 c 0
 780 551 764 544 745 526 c 0
 725 507 710 502 687 486 c 0
 669 474 658 467 641 454 c 0
 625 442 618 433 601 422 c 0
 586 413 576 412 561 404 c 0
 551 399 545 395 537 388 c 0
 530 382 521 380 521 372 c 0
 521 356 530 349 537 334 c 0
 549 310 557 297 569 274 c 0
 581 253 590 243 599 220 c 0
 606 202 608 191 609 172 c 0
 609.136675042 168.309773868 609.198629816 164.862388608 609.198629816 161.591463647 c 0
 609.198629816 140.930257954 606.726649916 127.309773868 605 104 c 0
 604.938575353 102.587233123 604.911107592 101.19710417 604.911107592 99.8275273506 c 0
 604.911107592 88.2329845531 606.879708735 78.111403202 606.879708735 68.1972539905 c 0
 606.879708735 60.2171038921 605.604242543 52.3713500791 601 44 c 0
 591 25 575 20 555 12 c 0
 547.5 9 541 8 534.375 8 c 0
 527.75 8 521 9 513 10 c 0
 491 13 479 15 459 24 c 0
 442 32 434 39 421 52 c 0
 405 67 396 77 385 96 c 0
 374 113 372 124 365 144 c 0
 358 164 354 176 351 196 c 0
 350.171572875 201.384776311 349.686291501 206.083261121 349.686291501 210.592929113 c 0
 349.686291501 216.970562748 350.656854249 222.970562748 353 230 c 0
 359 251 366 261 377 280 c 0
 386 295 392 303 403 316 c 0
 415 331 422 339 435 352 c 0
 443 360 449 363 457 372 c 0
 463 380 469 384 469 394 c 0
 469 407 456 408 450 420 c 0
 441 438 436 448 428 466 c 0
 421 481 422 494 417 510 c 0
 409 538 417 559 401 584 c 0
 396 593 386 579 377 574 c 0
 372 571 365 557 359 558 c 0
 351 559 352 569 348 576 c 0
 341.401695159 586.36876475 333.914867322 593.183437519 333.914867322 604.819369138 c 0
 333.914867322 605.527747655 333.942614977 606.253994705 334 607 c 0
 335 617 352 616 361 620 c 0
 370 624 380 620 385 628 c 0
 388.737639737 634.540869539 389.637633217 640.208617153 389.637633217 646.023060093 c 0
 389.637633217 651.424400107 388.860981742 656.952331195 388.860981742 663.424381225 c 0
 388.860981742 664.897464308 388.901216086 666.419457369 389 668 c 0
 390 687 390 697 391 716 c 0
 392 729 390 738 395 750 c 0
 400 762 405 771 417 776 c 0
 425.663928839 779.647970037 432.664397004 781.424546816 439.423651689 781.424546816 c 0
 447.487445693 781.424546816 455.207932584 778.896033708 465 774 c 0
 480 767 481 757 489 742 c 0
 494 732 492 736 494 725 c 0
 498.5 703.25 499.0625 679.8125 499.0625 659.328125 c 0
 499.0625 652.5 499 646 499 640 c 0
EndSplineSet
Validated: 1
EndChar

StartChar: nine
Encoding: 57 57 10
Width: 1000
Flags: HMW
VStem: 330 52 512 48
LayerCount: 2
Fore
SplineSet
560 740 m 0
 544 733 536 725 522 714 c 0
 505 701 495 694 480 680 c 0
 463 664 453 655 440 636 c 0
 426 617 422 603 412 582 c 0
 403 564 396 554 390 534 c 0
 385.062746067 518.365362545 381.479740823 508.147719846 381.479740823 493.874856542 c 0
 381.479740823 490.802616478 381.645751311 487.542486889 382 484 c 0
 383 474 386 462 396 462 c 0
 416 463 423 476 440 486 c 0
 456 496 466 499 480 512 c 0
 498 529 506 541 522 560 c 0
 537 579 545 590 560 610 c 0
 569 622 574 630 582 642 c 0
 589 653 596 657 600 670 c 0
 603.397247359 682.909539964 605.409539964 692.12586725 605.409539964 702.981353589 c 0
 605.409539964 708.102752641 604.961651585 713.588989435 604 720 c 0
 603 731 599 740 590 744 c 0
 579 749 571 745 560 740 c 0
560 116 m 0
 560 106 564 102 570 94 c 0
 577 84 590 85 592 72 c 0
 592.258342613 70.320773014 592.383203415 68.7082869339 592.383203415 67.156076002 c 0
 592.383203415 56.6916017074 586.708286934 48.9666295471 578 42 c 0
 570.360679775 35.88854382 562.72135955 33.27864045 554.190389885 33.27864045 c 0
 551.55417528 33.27864045 548.83281573 33.527864045 546 34 c 0
 536 36 530 41 526 50 c 0
 517 67 516 78 514 98 c 0
 512.098076211 114.483339502 511.401923789 126.143593539 511.401923789 139.096189432 c 0
 511.401923789 146.574374158 511.633974596 154.483339502 512 164 c 0
 513 193 515 209 520 238 c 0
 524 264 531 278 536 304 c 0
 541 330 541 344 546 370 c 0
 550 391 555 402 560 422 c 0
 565 438 567 448 572 464 c 0
 578 487 584 499 588 522 c 0
 589.99228111 536.610061473 599.481909815 554.307266072 599.481909815 566.012367846 c 0
 599.481909815 571.932944069 597.054032231 576.320468516 590 578 c 0
 588.377453842 578.442512588 586.896331356 578.651132182 585.538178947 578.651132182 c 0
 568.481229345 578.651132182 570.819966431 545.746214333 556 530 c 0
 530 501 514 487 484 462 c 0
 463 445 451 435 426 424 c 0
 414.891933172 419.140220763 406.193810653 416.208396973 396.224781858 416.208396973 c 0
 391.834474939 416.208396973 387.197678995 416.777016707 382 418 c 0
 367 421 361 430 350 440 c 0
 341 447 332 450 330 462 c 0
 329.149399914 467.31625054 328.796220176 472.135080732 328.796220176 476.66804347 c 0
 328.796220176 493.451620954 333.637950065 506.31625054 336 526 c 0
 338 546 339 558 344 578 c 0
 348 596 352 606 360 622 c 0
 370 640 376 650 390 666 c 0
 402 679 411 683 424 696 c 0
 436 708 441 716 452 728 c 0
 463 739 468 746 480 756 c 0
 489 764 494 769 504 774 c 0
 516 780 525 779 538 782 c 0
 554 786 562 792 578 792 c 0
 590 792 597 790 608 784 c 0
 620 778 629 774 634 762 c 0
 635 759.666666667 635.388888889 757.361111111 635.388888889 755.087962963 c 0
 635.388888889 747.131944444 630.625 739.572916667 630.625 732.609375 c 0
 630.625 729.625 631.5 726.75 634 724 c 0
 641 716 649 734 660 734 c 0
 668 734 672 731 678 726 c 0
 684 721 688 716 688 708 c 0
 688 686 683 674 678 652 c 0
 674 634 670 625 664 608 c 0
 658 591 652 582 648 566 c 0
 642 545 642 533 638 512 c 0
 634 489 632 477 626 454 c 0
 623 441 619 434 616 422 c 0
 609 395 605 379 600 352 c 0
 594 324 593 308 588 280 c 0
 584 258 579 246 576 224 c 0
 573 204 575 192 572 172 c 0
 569 150 561 138 560 116 c 0
EndSplineSet
Validated: 1
EndChar

StartChar: A
Encoding: 65 65 11
Width: 1000
Flags: HMW
HStem: 385 46
VStem: 306 58 576 44 588 38
LayerCount: 2
Fore
SplineSet
564 625 m 0xd0
 541 545 539 497 518 417 c 0
 511.794099735 392.952136473 480.915681937 368.302504226 480.915681937 352.38739491 c 0
 480.915681937 347.786403565 483.496388461 343.915412069 490 341 c 0
 495.172606525 338.701063767 499.99424886 337.68211458 504.556883523 337.68211458 c 0
 531.749002887 337.68211458 549.741555981 373.873670292 578 391 c 0
 587 396 599 396 600 407 c 0
 600.352491058 412.639856926 600.511704422 417.975991763 600.511704422 423.07977739 c 0
 600.511704422 461.413567094 591.530011923 486.639856926 588 529 c 0
 584 570 590 595 580 635 c 0
 578 642 566 632 564 625 c 0xd0
482 475 m 0
 459 428 454 398 436 349 c 0
 416 294 395 265 386 207 c 0
 385.843317069 206.11213006 385.768465941 205.363374185 385.768465941 204.743759981 c 0
 385.768465941 203.086095598 386.304199478 202.352739593 387.241999891 202.352739593 c 0
 392.665395581 202.352739593 411.535625149 226.879297155 418 239 c 0
 421.5 245.5 421.75 251.5 421.75 257.625 c 0
 421.75 258.645833333 421.743055556 259.670138889 421.743055556 260.700810185 c 0
 421.743055556 265.854166667 421.916666667 271.166666667 424 277 c 0
 427 288 434 293 438 303 c 0
 447 324 451 337 458 359 c 0
 471 399 482 420 490 461 c 0
 491 467 485 481 482 475 c 0
586 333 m 0
 586 341 575 347 568 343 c 0
 525 320 501 304 466 269 c 0
 451 254 455 238 446 219 c 0
 415 157 399 121 364 61 c 0
 356 47 350 39 336 31 c 0
 330 27 323 30 318 35 c 0
 310 42 306 49 306 59 c 0
 305.934555444 60.1125574438 305.903374808 61.1908509689 305.903374808 62.2390850507 c 0
 305.903374808 77.2079829283 312.261778222 86.0471128883 316 101 c 0
 327 143 333 167 344 209 c 0
 352 238 354 255 364 283 c 0
 378 322 390 343 406 381 c 0
 423 423 432 447 448 489 c 0
 463 529 469 552 484 593 c 0
 492 614 498 625 506 645 c 0
 522 683 528 706 546 743 c 0
 550 750 553 756 560 759 c 0
 571 763 583 769 590 759 c 0
 606 738 603 720 608 695 c 0
 617 652 622 627 626 583 c 0
 626.848612181 571.968041645 627.137113425 562.29635271 627.137113425 553.215372395 c 0
 627.137113425 533.923909885 625.835108797 517.298312337 625.835108797 495.96055353 c 0
 625.835108797 491.834359187 625.88379594 487.531958355 626 483 c 0xd0
 626.061424647 481.710082417 626.088892408 480.442802757 626.088892408 479.196075231 c 0
 626.088892408 468.641548132 624.120291265 459.55998248 624.120291265 450.685848967 c 0
 624.120291265 443.542833876 625.395757457 436.534215071 630 429 c 0
 635 420 646 432 656 431 c 0
 667 430 677 432 682 423 c 0
 685.5 417.5 687.25 411.75 687.25 406 c 0
 687.25 400.25 685.5 394.5 682 389 c 0
 677 381 667 388 658 385 c 0
 648 382 635 383 634 373 c 0
 620 265 633 201 620 93 c 0
 618 79 612 69 598 65 c 0
 588 62 578 69 576 79 c 0xe0
 573.766356712 91.1254921336 572.958188378 101.723689674 572.958188378 111.801777106 c 0
 572.958188378 133.307341552 576.638183797 152.444584032 578 179 c 0
 579.672027713 229.160831397 586.935408774 261.149764414 586.935408774 305.350716744 c 0
 586.935408774 314.020840629 586.655944574 323.160831397 586 333 c 0
EndSplineSet
Validated: 1
EndChar

StartChar: B
Encoding: 66 66 12
Width: 1000
Flags: HMW
HStem: 601 92
VStem: 286 96<81 119 81 119> 298 66
LayerCount: 2
Fore
SplineSet
416 641 m 0x80
 424 667 440 677 462 693 c 0
 470 699 479 690 488 695 c 0
 505 705 508 720 526 729 c 0
 551 742 566 745 594 751 c 0
 627.634508279 758.567764363 649.249164995 770.377829278 679.652592047 770.377829278 c 0
 685.406586177 770.377829278 691.475370986 769.954823758 698 769 c 0
 726 765 739 750 758 729 c 0
 773 713 778 699 780 677 c 0
 780.211145618 674.677398202 780.310835056 672.466252584 780.310835056 670.34538301 c 0
 780.310835056 652.37708764 773.155417528 640.88854382 766 623 c 0
 756 595 749 578 734 553 c 0
 718 526 708 512 686 489 c 0
 682 484 669 491 670 485 c 0
 671 475 679 471 688 465 c 0
 704 455 716 457 732 447 c 0
 750 436 765 431 774 413 c 0
 779.761904762 401.476190476 781.133786848 391.598639456 781.133786848 381.355253212 c 0
 781.133786848 372.0430839 780 362.428571429 780 351 c 0
 780 339.8 780.48 330.36 780.48 321.336 c 0
 780.48 307.8 779.4 295.2 774 279 c 0
 766 255 754 244 736 225 c 0
 716 203 702 193 678 175 c 0
 650 153 635 140 604 123 c 0
 584 112 569 114 550 103 c 0
 538 96 539 81 526 77 c 0
 504.257653858 69.7525512861 488.293114131 64.6061230866 469.350833724 64.6061230866 c 0
 462.156633344 64.6061230866 454.532908987 65.3484692283 446 67 c 0
 436 69 435 84 440 93 c 0
 449 109 462 111 478 121 c 0
 501 135 516 139 538 153 c 0
 563 169 574 182 598 197 c 0
 613 206 624 205 638 215 c 0
 657 229 665 240 680 257 c 0
 690 268 694 274 702 287 c 0
 714 307 728 317 730 341 c 0
 730.223611165 343.459722819 730.334717936 345.83194222 730.334717936 348.129236822 c 0
 730.334717936 366.379168457 723.32291626 379.900694906 710 395 c 0
 695 411 680 416 658 419 c 0
 653.795665981 419.663842214 649.934088116 419.984928272 646.285245832 419.984928272 c 0
 633.444436467 419.984928272 623.238227457 416.008473359 610 409 c 0
 598 403 600 389 588 383 c 0
 579.119309336 378.218089643 570.705285339 373.436179285 562.120339961 373.436179285 c 0
 558.138212108 373.436179285 554.119309336 374.465040409 550 377 c 0
 531 388 519 401 518 423 c 0
 517.974529665 423.35658469 517.962034089 423.704087049 517.962034089 424.042903642 c 0
 517.962034089 437.00648738 536.25470335 437.25470335 546 447 c 0
 561 462 567 471 582 487 c 0
 601 508 613 518 632 539 c 0
 646 554 653 563 666 579 c 0
 678 595 684 605 696 621 c 0
 701 628 708 631 710 639 c 0
 712.194335081 647.228756555 713.786781857 653.952792345 713.786781857 660.823038151 c 0
 713.786781857 666.476396173 712.708497378 672.228756555 710 679 c 0
 705 690 697 695 686 699 c 0
 673.73072509 702.874507866 663.963418714 705.08103671 653.19750704 705.08103671 c 0
 647.291502622 705.08103671 641.084973779 704.416994756 634 703 c 0
 609 698 596 689 574 677 c 0
 554 667 544 661 526 647 c 0
 511 635 505 625 490 613 c 0
 482 607 476 600 466 601 c 0
 453 602 448 609 438 617 c 0
 429.07513441 624.139892472 415.371075272 628.093655912 415.371075272 637.392022329 c 0
 415.371075272 638.512150536 415.569946236 639.709838708 416 641 c 0x80
306 649 m 0
 307 665 315 674 328 683 c 0
 338 690 347 692 358 687 c 0
 371 681 378 673 382 659 c 0xc0
 385 649 376 643 374 633 c 0
 369 614 365 604 364 585 c 0
 363.747724071 580.332895307 363.638645216 575.904452406 363.638645216 571.654462671 c 0
 363.638645216 544.479305459 368.098379005 524.600279316 368.098379005 496.277147343 c 0
 368.098379005 493.913299712 368.067314435 491.490634105 368 489 c 0
 367 442 361 416 360 369 c 0
 359.909090909 365.363636364 359.867768595 361.876033058 359.867768595 358.51014275 c 0
 359.867768595 324.851239669 364 303.363636364 364 267 c 0xa0
 364 248.538461538 361.041420118 235.99408284 361.041420118 220.263541193 c 0
 361.041420118 215.544378698 361.307692308 210.538461538 362 205 c 0
 366 171 376 153 382 119 c 0
 383.2326664 109.755002002 385.604932639 102.40933707 385.604932639 95.0900099617 c 0
 385.604932639 90.5337361623 384.685667601 85.9876684014 382 81 c 0
 367 54 358 31 328 23 c 0
 325.789408465 22.4473521163 323.652117655 22.1879071286 321.588127568 22.1879071286 c 0
 304.978472575 22.1879071286 293.115763386 38.9895323813 286 55 c 0
 282.137235437 63.8843584953 280.811032386 71.7242504857 280.811032386 79.441853846 c 0
 280.811032386 91.7037321085 284.158829369 103.656911408 286 119 c 0xc0
 288 132 298 138 298 151 c 0xa0
 300.248136298 213.305491697 300.742803497 266.946783138 300.742803497 317.489103777 c 0
 300.742803497 357.211999286 300.437251904 395.020687694 300.437251904 433.61688835 c 0
 300.437251904 498.821361749 301.309319651 566.273455672 306 649 c 0
EndSplineSet
Validated: 1
EndChar

StartChar: C
Encoding: 67 67 13
Width: 1000
Flags: HMW
HStem: 39 60
LayerCount: 2
Fore
SplineSet
663 783 m 0
 687 775 704 763 708 738 c 0
 708.204767316 736.566628788 708.302381073 735.198481481 708.302381073 733.887926238 c 0
 708.302381073 715.997830688 690.112674964 708.839651876 678 693 c 0
 668.473955513 680.87594338 664.197652059 658.252404695 653.480611725 658.252404695 c 0
 651.822374594 658.252404695 650.009939336 658.794036398 648 660 c 0
 643.880935301 662.517206205 642.432553916 666.134105539 642.432553916 670.347397209 c 0
 642.432553916 680.332578576 650.567446084 693.667421424 650.567446084 703.652602791 c 0
 650.567446084 707.865894461 649.119064699 711.482793795 645 714 c 0
 638.457774954 718.16323412 632.003981124 719.850394192 625.559727113 719.850394192 c 0
 610.333435208 719.850394192 595.160401088 710.431513611 579 702 c 0
 519 670 484 651 435 603 c 0
 395 564 384 532 357 483 c 0
 335 444 324 421 309 378 c 0
 297 344 297 323 288 288 c 0
 284.208121478 273.780455543 275.923010854 265.851436028 275.923010854 251.43459873 c 0
 275.923010854 250.64331455 275.94796963 249.832485912 276 249 c 0
 278 225 287 213 297 192 c 0
 305 175 311 167 324 153 c 0
 340 136 348 124 369 114 c 0
 391 104 406 108 429 105 c 0
 457 102 473 99 501 99 c 0
 534 99 553 99 585 105 c 0
 609 110 623 116 645 126 c 0
 666 136 676 144 696 156 c 0
 709 164 720 165 729 177 c 0
 747 200 737 232 765 243 c 0
 769.449944433 244.741282604 773.899888867 245.546742644 778.26292495 245.546742644 c 0
 796.450694036 245.546742644 813.128234294 231.550055567 822 213 c 0
 824.896521086 206.62765361 826.198973636 200.423103908 826.198973636 194.386350894 c 0
 826.198973636 179.581712342 818.365566262 165.786262044 807 153 c 0
 775 117 750 100 705 81 c 0
 643 55 605 45 537 39 c 0
 517.5 37.2 500.43 36.3 484.332 36.3 c 0
 446.77 36.3 414.5 41.2 369 51 c 0
 334 59 315 69 288 93 c 0
 257 120 239 138 225 177 c 0
 219.456623287 191.924475766 217.731646178 204.848837454 217.731646178 217.633905059 c 0
 217.731646178 234.831623662 220.852827187 251.777302953 222 273 c 0
 224 307 228 327 237 360 c 0
 248 397 257 418 273 453 c 0
 285 481 294 495 309 522 c 0
 319 540 324 549 336 567 c 0
 354 594 363 611 384 636 c 0
 409 665 423 681 453 705 c 0
 481 728 498 740 531 756 c 0
 555 768 571 769 597 774 c 0
 616.041351821 777.808270364 629.861651301 785.677359215 646.41417 785.677359215 c 0
 651.59398267 785.677359215 657.041351821 784.906767417 663 783 c 0
EndSplineSet
Validated: 1
EndChar

StartChar: D
Encoding: 68 68 14
Width: 1000
Flags: HMW
VStem: 244 58 302 62
LayerCount: 2
Fore
SplineSet
302 51 m 0x80
 298 35 291 26 278 15 c 0
 272 10 264 8 258 13 c 0
 248 22 246 32 244 45 c 0x80
 238.415931753 77.7066854439 232.831863507 99.5951890697 232.831863507 127.925358185 c 0
 232.831863507 135.108935509 233.190896141 142.706685444 234 151 c 0
 235 159 251 137 254 145 c 0
 270 181 269 206 276 245 c 0
 279 261 277 271 280 287 c 0
 284 308 290 319 292 341 c 0
 299 426 296 474 302 559 c 0
 303 577 303 589 312 605 c 0
 317 614 328 623 336 617 c 0
 351 607 349 592 354 575 c 0
 360 554 364 541 364 519 c 0x40
 363 474 357 448 352 403 c 0
 345 336 341 298 332 231 c 0
 322 161 319 120 302 51 c 0x80
302 763 m 0x40
 326 753 326 724 352 719 c 0
 385.312021867 712.564723048 413.46535716 711.001538973 440.474091964 711.001538973 c 0
 465.992851595 711.001538973 490.489814355 712.397009805 517.350712755 712.397009805 c 0
 537.161779564 712.397009805 558.258755579 711.637916047 582 709 c 0
 618 705 638 699 670 683 c 0
 698 669 714 657 734 633 c 0
 755 608 762 590 772 559 c 0
 775.978362647 545.928237018 777.049657454 535.440534338 777.049657454 524.416077804 c 0
 777.049657454 516.042806531 776.431662479 507.359899497 776 497 c 0
 775 466 775 447 766 417 c 0
 752 374 742 349 718 311 c 0
 682 254 659 225 614 175 c 0
 596 155 583 149 560 135 c 0
 522 112 500 101 460 83 c 0
 451 79 443 84 434 79 c 0
 417 68 416 46 396 43 c 0
 393.409090909 42.5909090909 390.780991736 42.3863636364 388.163880541 42.3863636364 c 0
 371.588842975 42.3863636364 355.454545455 50.5909090909 352 67 c 0
 351.211632422 70.2848649093 350.854878342 73.3625553391 350.854878342 76.2807091018 c 0
 350.854878342 95.5716403652 366.44534056 107.89068112 376 127 c 0
 384 144 383 164 402 167 c 0
 402.575342466 167.123287671 403.110151998 167.182398199 403.607760072 167.182398199 c 0
 415.218615125 167.182398199 406.575342466 135 420 135 c 0
 445 135 454 155 476 167 c 0
 502 181 518 186 542 203 c 0
 560 215 567 225 582 241 c 0
 606 266 620 280 642 307 c 0
 659 329 670 342 682 367 c 0
 696 397 705 415 710 447 c 0
 715.333333333 479 723.777777778 503.444444444 723.777777778 529.518518519 c 0
 723.777777778 542.555555556 721.666666667 556 716 571 c 0
 703 606 675 618 640 631 c 0
 592 649 561 642 510 647 c 0
 448 653 412 650 350 659 c 0
 326 663 310 665 290 679 c 0
 273 691 265 703 260 723 c 0
 259.336157786 725.655368854 259.015071728 728.163842214 259.015071728 730.557925222 c 0
 259.015071728 738.983053281 262.991526641 745.991526641 270 753 c 0
 276.75 759.75 284.625 764.8125 293.203125 764.8125 c 0
 296.0625 764.8125 299 764.25 302 763 c 0x40
EndSplineSet
Validated: 1
EndChar

StartChar: E
Encoding: 69 69 15
Width: 1000
Flags: HMW
VStem: 398 68
LayerCount: 2
Fore
SplineSet
398 740 m 0
 399 746 404 749 410 751 c 0
 420 754 427 756 437 752 c 0
 451 746 463 741 466 727 c 0
 467.326673984 721.472191734 467.871097364 716.433290095 467.871097364 711.656278188 c 0
 467.871097364 694.82883279 461.115550677 681.251079403 458 661 c 0
 452 628 449 610 440 578 c 0
 431 545 424 527 412 494 c 0
 392 437 378 407 359 349 c 0
 344 304 340 278 326 233 c 0
 318 209 311 196 302 172 c 0
 295 152 291 141 284 121 c 0
 281 113 278 109 277 100 c 0
 276 91 272 80 281 77 c 0
 285.375545386 75.7130748866 289.353608472 75.1548673221 293.13880124 75.1548673221 c 0
 304.059952798 75.1548673221 313.375545386 79.8016951588 326 85 c 0
 396 112 434 134 503 163 c 0
 555 185 586 193 637 217 c 0
 644 220 642 230 649 233 c 0
 660 238 669 241 680 236 c 0
 691 231 696 223 700 211 c 0
 702 204.5 703.5 198.75 703.5 193.125 c 0
 703.5 187.5 702 182 698 176 c 0
 692 167 681 171 670 167 c 0
 532 110 457 70 316 19 c 0
 311.614074045 17.3552777669 307.603857982 16.6874012536 303.783970288 16.6874012536 c 0
 293.668783898 16.6874012536 284.888194417 21.3706018609 274 25 c 0
 259 30 251 33 239 43 c 0
 228 52 219 59 218 73 c 0
 217.786299648 75.778104578 217.686768897 78.4192056344 217.686768897 80.9525808702 c 0
 217.686768897 102.128808452 224.641101056 115.778104578 230 139 c 0
 237 165 242 179 251 205 c 0
 262 239 271 258 281 293 c 0
 286 310 284 320 290 337 c 0
 302 372 313 391 326 425 c 0
 339 458 345 477 356 511 c 0
 373 563 388 592 398 646 c 0
 399.772558929 655.116017352 400.390926576 663.334330372 400.390926576 671.109577298 c 0
 400.390926576 689.055635749 397.09667673 704.641333948 397.09667673 723.456914061 c 0
 397.09667673 728.682259769 397.350745547 734.156709921 398 740 c 0
388 396 m 0
 397 405 403 408 416 412 c 0
 427 416 431 401 442 398 c 0
 462.951600309 392.762099923 476.28220139 389.810499614 495.297814058 389.810499614 c 0
 498.064532921 389.810499614 500.951600309 389.872983346 504 390 c 0
 530 391 544 397 570 404 c 0
 605 413 625 418 660 430 c 0
 675 435 683 439 696 446 c 0
 704 450 706 458 714 460 c 0
 723.325924096 462.194335081 730.846183273 463.786781857 738.376801392 463.786781857 c 0
 744.573563713 463.786781857 750.777340326 462.708497378 758 460 c 0
 768 456 770 448 772 438 c 0
 773 430 768 427 764 420 c 0
 757 409 756 399 744 392 c 0
 727 382 715 386 696 380 c 0
 660 369 641 360 604 350 c 0
 576 343 560 339 532 336 c 0
 506.701778719 333.470177872 488.203557437 330.940355744 467.650958707 330.940355744 c 0
 455.707045526 330.940355744 443.069323187 331.794733192 428 334 c 0
 413 336 404 343 396 356 c 0
 389.819971645 364.926707624 383.168427851 375.267961562 383.168427851 384.433558458 c 0
 383.168427851 388.615856963 384.55336799 392.55336799 388 396 c 0
478 686 m 0
 492 701 514 689 530 700 c 0
 576 732 609 739 662 756 c 0
 704 770 729 773 772 780 c 0
 783.783766073 781.963961012 792.567532145 783.927922024 802.559786101 783.927922024 c 0
 807.830952184 783.927922024 813.438419743 783.381385317 820 782 c 0
 837 778 848 774 860 760 c 0
 866 752 865 743 860 734 c 0
 855 725 849 719 838 718 c 0
 836.874007874 717.881474513 835.779624403 717.826166336 834.713103155 717.826166336 c 0
 819.796841298 717.826166336 810.330582524 728.644747792 796.065144403 728.644747792 c 0
 794.139301197 728.644747792 792.125992126 728.44757729 790 728 c 0
 739 719 711 706 664 686 c 0
 611 663 585 652 532 618 c 0
 527.507958959 615.141428429 523.182681825 613.950495924 518.887966722 613.950495924 c 0
 512.665888746 613.950495924 506.507958959 616.450204204 500 620 c 0
 488 626 482 633 478 646 c 0
 475.072391107 654.782826678 471.801946461 663.222817604 471.801946461 670.918497176 c 0
 471.801946461 676.36610254 473.440739564 681.440739564 478 686 c 0
EndSplineSet
Validated: 1
EndChar

StartChar: F
Encoding: 70 70 16
Width: 1000
Flags: W
HStem: 702 63.1334<446.185 481.676>
VStem: 71 60<33.0562 165.504> 128.374 50.6262<399.744 609.54>
LayerCount: 2
Fore
SplineSet
66 643 m 0xa0
 63 651 58 662 66 665 c 0
 162 704 220 715 319 746 c 0
 342 753 354 760 378 762 c 0
 394.711454972 763.566698904 407.877455398 765.133397807 421.058680605 765.133397807 c 0
 433.117580052 765.133397807 445.189222004 763.822136257 460 760 c 0
 475 756 480 745 489 733 c 0
 493 728 494 723 492 717 c 0
 491 711 487 709 482 706 c 0
 476 703 472 702 466 702 c 0
 461 702 458 704 454 707 c 0
 450 710 450 714 446 716 c 0
 442 718 439 718 434 717 c 0
 407 713 393 710 366 703 c 0
 331 694 312 688 277 678 c 0
 245 669 227 663 195 653 c 0
 191 652 187 651 184 648 c 0
 181 644 181 641 180 636 c 0
 179 629 179 625 179 618 c 0
 179 595 180 581 180 558 c 0
 180 540 181 530 181 512 c 0
 181 499 181 492 179 480 c 0xa0
 177 464 174 455 171 439 c 0
 168 423 168 415 164 399 c 0
 163 396 160 396 159 393 c 0
 158 389 156 385 159 382 c 0
 162 379 166 379 171 380 c 0
 184 381 191 383 204 387 c 0
 226 393 238 397 259 405 c 0
 295 420 314 429 349 446 c 0
 374 458 387 466 412 480 c 0
 425 487 432 492 445 500 c 0
 469 514 482 523 508 536 c 0
 513 538 516 538 521 537 c 0
 525 536 526 533 530 530 c 0
 534 526 536 525 539 520 c 0
 543 513 547 509 548 501 c 0
 549 495 547 492 544 487 c 0
 541 481 539 476 533 473 c 0
 468 439 429 425 362 393 c 0
 318 372 296 353 249 339 c 0
 238.825485849 335.916813894 229.69663572 335.020016198 220.968654257 335.020016198 c 0
 208.829556818 335.020016198 197.465897727 336.754777191 185.142915991 336.754777191 c 0
 177.588955618 336.754777191 169.674514151 336.102912521 161 334 c 0
 154 332 155 323 153 316 c 0
 149 301 149 292 145 276 c 2
 135 236 l 1
 135 221 l 1
 139 217 l 1
 146 223 l 1
 152 238 l 1
 160 243 l 1
 166 236 l 1
 167 212 l 1
 163 192 l 1
 155 177 l 1
 151 156 l 2
 147 132 145 118 141 94 c 0
 138 76 137 64 131 47 c 0
 129 40 127 35 120 32 c 0
 111 28 105 30 96 32 c 0
 88 34 84 38 77 42 c 0
 74 44 71 45 71 48 c 0xc0
 69.0980762114 61.9474411167 68.4019237886 71.875644347 68.4019237886 82.8807991232 c 0
 68.4019237886 89.2346281956 68.6339745962 95.9474411167 69 104 c 0
 71 143 73 165 78 204 c 0
 81 229 83 242 88 267 c 0
 89 272 93 274 94 279 c 0
 97 295 96 304 99 320 c 0
 101.73088897 331.833852202 110.262253712 338.695868027 110.262253712 348.883428827 c 0
 110.262253712 349.887345505 110.179407354 350.923555879 110 352 c 0
 109 359 98 351 92 355 c 0
 89 358 91 362 91 366 c 0
 91 372 88 376 90 382 c 0
 93 389 98 390 103 395 c 0
 105 397 109 396 109 399 c 0
 116 458 118 491 122 550 c 0
 123.353889368 565.56972773 128.373811577 577.931676725 128.373811577 590.808399148 c 0
 128.373811577 596.953500411 127.230553161 603.215838363 124 610 c 0
 119 620 106 605 95 608 c 0
 88 610 87 617 82 622 c 0
 75 630 70 633 66 643 c 0xa0
EndSplineSet
Validated: 1
EndChar

StartChar: G
Encoding: 71 71 17
Width: 1000
Flags: W
HStem: 14.3125 52.666<295.609 422.82> 772.903 20G<512.436 519.346 561.891 567.688>
VStem: 212.799 54.1111<95.1406 307.93> 672 62.2222<328.062 390.859>
LayerCount: 2
Fore
SplineSet
521 729 m 0
 499 712 487 703 468 683 c 0
 451 665 444 653 430 633 c 0
 418 617 412 607 402 590 c 0
 388 566 381 552 368 528 c 0
 356 505 348 493 337 469 c 0
 323 439 316 421 306 389 c 0
 297 360 293 342 287 312 c 0
 278 268 274 243 269 199 c 0
 267.763932023 189.11145618 266.909830056 182.27864045 266.909830056 174.72446517 c 0
 266.909830056 170.05572809 267.236067977 165.11145618 268 159 c 0
 270 141 272 130 278 113 c 0
 282 103 286 97 294 90 c 0
 305 80 311 73 325 69 c 0
 329.525931633 67.4913561224 333.625112075 66.9784650227 337.67310041 66.9784650227 c 0
 344.357899036 66.9784650227 350.903092602 68.3771609694 359 69 c 0
 375 71 384 70 399 76 c 0
 418 84 426 91 442 103 c 0
 463 118 473 127 492 144 c 0
 515 164 527 177 548 199 c 0
 570 223 582 238 603 264 c 0
 620 285 632 296 647 318 c 0
 657 332 661 341 667 357 c 0
 671 366 673 370 672 379 c 0
 671 385 669 388 664 391 c 0
 660 394 655 393 650 394 c 0
 637 397 630 399 617 402 c 0
 607.325470125 403.612421646 600.900819704 407.824746856 592.485872759 407.824746856 c 0
 590.463169023 407.824746856 588.325470125 407.581367531 586 407 c 0
 576 404 576 396 569 389 c 0
 561 381 557 376 549 369 c 0
 539 360 532 355 521 348 c 0
 515 344 511 341 504 340 c 0
 493 339 487 340 477 343 c 0
 470 345 465 348 461 354 c 0
 458 359 458 363 459 369 c 0
 460 375 463 378 467 383 c 0
 475 394 481 398 490 408 c 0
 502 421 506 432 521 442 c 0
 538 454 550 459 570 464 c 0
 582 467 589 466 600 463 c 0
 617 458 625 451 642 444 c 0
 653 439 659 436 670 433 c 0
 681 430 688 433 698 428 c 0
 712 421 724 419 731 404 c 0
 733.333333333 398.666666667 734.222222222 393.888888889 734.222222222 389.296296296 c 0
 734.222222222 380.111111111 730.666666667 371.666666667 728 361 c 0
 725 349 720 344 715 333 c 0
 701 306 696 290 679 265 c 0
 658 234 642 219 617 191 c 0
 600 172 591 161 572 144 c 0
 545 120 528 108 499 85 c 0
 478 69 469 57 446 45 c 0
 420 31 404 25 375 19 c 0
 361.25 15.875 350.234375 14.3125 338.291015625 14.3125 c 0
 331.125 14.3125 323.625 14.875 315 16 c 0
 298 19 288 24 273 34 c 0
 260 43 254 51 244 63 c 0
 234 75 227 82 220 97 c 0
 215 107 214 114 213 125 c 0
 212.86037961 127.23392624 212.798734633 129.331395506 212.798734633 131.330512151 c 0
 212.798734633 143.649623993 215.13962039 152.23392624 216 166 c 0
 217 177 216 183 217 194 c 0
 218 213 219 224 222 243 c 0
 226 268 228 282 234 307 c 0
 237 318 240 324 243 335 c 0
 249 361 249 376 256 401 c 0
 265 434 272 451 285 482 c 0
 300 517 310 536 328 569 c 0
 340 592 349 603 363 625 c 0
 381 654 392 671 411 700 c 0
 425 720 431 734 448 752 c 0
 465 770 476 781 499 790 c 0
 504.79438468 792.172894255 509.933009714 792.903117291 514.938337105 792.903117291 c 0
 523.754190508 792.903117291 532.156533722 790.637850958 543 790 c 0
 545 789.875 546.921875 789.828125 548.783203125 789.828125 c 0
 554.3671875 789.828125 559.40625 790.25 564.375 790.25 c 0
 571 790.25 577.5 789.5 585 786 c 0
 597 781 602 773 608 761 c 0
 611 755 608 749 608 742 c 0
 608 736 608 732 607 726 c 0
 606 717 607 712 604 703 c 0
 602 695 599 692 594 686 c 0
 590 682 587 681 582 680 c 0
 577 679 573 678 570 681 c 0
 566 685 570 688 569 693 c 0
 568 701 566 706 564 714 c 0
 562 722 566 729 560 734 c 0
 553 740 547 737 538 736 c 0
 531 735 527 734 521 729 c 0
EndSplineSet
Validated: 1
EndChar

StartChar: H
Encoding: 72 72 18
Width: 1000
Flags: HMW
HStem: 501 54<336.5 364.5>
VStem: 186 55 443 49<47 115> 553 51 602 59
LayerCount: 2
Fore
SplineSet
252 575 m 0xf0
 273 651 284 696 309 771 c 0
 313 782 318 788 327 796 c 0
 332 800 337 798 344 799 c 0
 350 800 353 799 359 799 c 0
 363 799 366 800 370 798 c 0
 373 796 375 794 376 791 c 0
 378 787 377 785 378 781 c 0
 379 777 380 775 379 771 c 0
 377 767 373 766 371 763 c 0
 368 759 367 757 366 753 c 0
 365 748 362 746 364 741 c 0
 367 735 375 735 378 729 c 0
 381 722 379 717 379 709 c 0
 379 702 381 697 376 692 c 0
 369 686 363 689 354 688 c 0
 350 688 348 690 344 690 c 0
 340 690 336 691 334 687 c 0
 330 680 332 674 330 666 c 0
 327 654 325 647 321 635 c 0
 312 609 305 595 296 569 c 0
 295 567 294 564 296 563 c 0
 305 558 311 556 320 555 c 0
 335.215390309 554.154700538 347.572655899 553.845299462 359.487768056 553.845299462 c 0
 375.764113952 553.845299462 391.215390309 554.422649731 412 555 c 0
 425 555 432 555 445 557 c 0
 474 562 490 566 518 573 c 0
 529 576 536 577 546 583 c 0
 550 586 552 589 553 594 c 0xf0
 553.552786405 597.593111629 553.723606798 600.727864045 553.723606798 603.657631989 c 0
 553.723606798 608.398096101 553.276393202 612.601903899 553.276393202 617.342368011 c 0
 553.276393202 620.272135955 553.447213595 623.406888371 554 627 c 0
 559 654 566 669 572 696 c 0
 574 704 573 709 575 717 c 0
 577 723 579 725 582 730 c 0
 587 739 590 744 594 753 c 0
 598 762 600 768 602 777 c 0xe8
 603 783 600 787 604 792 c 0xf0
 608 798 612 799 619 801 c 0
 623 802 625 800 629 800 c 0
 638 799 644 802 652 797 c 0
 658 793 661 788 661 781 c 0xe8
 662 770 658 764 654 753 c 0
 638 705 628 679 610 631 c 0
 608 627 605 625 604 621 c 0
 603 618 604 616 604 613 c 0
 604 610 603 608 604 605 c 0
 605 599 606 596 608 590 c 0
 609 586 611 583 612 579 c 0
 613 573 614 569 612 563 c 0
 609 554 604 551 599 543 c 0
 593 534 587 529 584 519 c 0
 571 482 571 458 558 421 c 0
 556 415 547 416 545 410 c 0
 539 394 542 383 538 366 c 0
 535 351 530 343 526 329 c 0
 520 306 518 292 514 269 c 0
 509 241 506 224 502 196 c 0
 500 182 500 174 498 160 c 0
 497 151 495 147 494 138 c 0
 493 129 492 124 492 115 c 0
 492 108 490 103 492 96 c 0
 494 90 497 87 502 83 c 0
 506 80 509 80 514 78 c 0
 519 76 524 76 528 73 c 0
 532 70 534 67 535 62 c 0
 536 56 533 53 532 48 c 0
 530 42 529 39 527 34 c 0
 524 25 524 20 518 12 c 0
 516 9 512 10 508 9 c 0
 503 8 499 6 494 6 c 0
 486 6 481 6 474 10 c 0
 462 16 453 19 445 30 c 0
 440 37 443 43 443 51 c 0
 446 120 448 158 454 227 c 0
 455 236 458 240 460 249 c 0
 464 269 462 280 467 300 c 0
 476 340 485 362 495 401 c 0
 501 425 502 439 508 463 c 0
 513 482 519 492 522 511 c 0
 523 515 522 518 518 520 c 0
 512 523 508 523 501 521 c 0
 475 514 462 501 436 498 c 0
 428.444444444 497.111111111 421.580246914 496.765432099 415.089163237 496.765432099 c 0
 392.37037037 496.765432099 374.222222222 501 347 501 c 0
 336.5 501 328.5 501.25 320.5 501.25 c 0
 312.5 501.25 304.5 501 294 500 c 0
 289 499 286 498 284 494 c 0
 272 463 268 446 261 413 c 0
 259 404 258.75 397 258.75 390 c 0
 258.75 387.666666667 258.777777778 385.333333333 258.777777778 382.925925926 c 0
 258.777777778 378.111111111 258.666666667 373 258 367 c 0
 257 354 256 347 254 335 c 0
 253 326 250 322 249 313 c 0
 247 292 246 279 245 258 c 0
 244.788675135 252.716878365 244.711324865 247.924996916 244.711324865 243.416733121 c 0
 244.711324865 231.099927378 245.288675135 220.900072622 245.288675135 208.583266879 c 0
 245.288675135 204.075003084 245.211324865 199.283121635 245 194 c 0
 245 189 242 186 241 181 c 0
 240 175 241 171 241 165 c 2
 241 155 l 2
 241 150 239 147 241 142 c 0
 245 131 254 128 256 117 c 0
 257 111 253 106 248 103 c 0
 238 96 232 93 220 92 c 0
 212 91 206 93 201 99 c 0
 189 114 185 125 180 143 c 0
 178 152 181 157 182 166 c 0
 183 180 185 188 186 202 c 0
 187 227 186 240 188 265 c 0
 192 307 195 330 202 372 c 0
 206 398 211 413 217 439 c 0
 230 492 237 522 252 575 c 0xf0
EndSplineSet
Validated: 1
EndChar

StartChar: I
Encoding: 73 73 19
Width: 1000
Flags: HMW
HStem: 0 62 73 25 694 60 748 40
VStem: 432 74 450 54
LayerCount: 2
Fore
SplineSet
227 762 m 0xe8
 233 770 239 773 249 776 c 0
 260 779 268 780 278 776 c 0
 285 774 285 767 290 762 c 0
 294 759 297 756 302 756 c 0
 327.358983849 754.098076211 345.483339502 753.401923789 365.546207937 753.401923789 c 0
 377.129510429 753.401923789 389.358983849 753.633974596 404 754 c 0xe8
 418 754 425 759 438 761 c 0
 459 763 471 761 492 764 c 0
 511 766 521 770 540 774 c 0
 558 778 567 781 585 784 c 0
 602 787 612 787 630 788 c 0
 662.425203582 789.379795897 684.855264396 791.711510153 711.081439425 791.711510153 c 0
 722.869836093 791.711510153 735.425203582 791.240408206 750 790 c 0
 760 789 767 785 772 776 c 0
 777 767 782 755 773 750 c 0
 766.461538462 746.153846154 760.366863905 744.970414201 754.203914429 744.970414201 c 0
 744.343195266 744.970414201 734.307692308 748 722 748 c 0
 706.8 748 696.72 749.28 683.568 749.28 c 0
 680.28 749.28 676.8 749.2 673 749 c 0
 657 748 649 744 633 741 c 0
 619 738 612 737 598 734 c 0
 587 732 581 731 570 728 c 0
 560 725 555 722 545 720 c 0
 535 718 529 717 518 716 c 0
 510 715 504 720 498 715 c 0
 494 712 501 707 502 702 c 0
 504 689 506 681 506 668 c 0xd8
 506.366025404 648.966679003 506.598076211 632.880799123 506.598076211 617.58468371 c 0
 506.598076211 591.091034656 505.901923789 566.966679003 504 534 c 0xd4
 503 514 500 502 497 482 c 0
 494 465 492 455 490 438 c 0
 487 416 486 404 484 382 c 0
 482 362 481 352 478 332 c 0
 476 316 474 308 471 292 c 0
 466 269 463 255 458 232 c 0
 454 217 450 209 448 194 c 0
 446 180 446 172 446 158 c 0
 446 148 445.555555556 141.111111111 445.555555556 133.185185185 c 0
 445.555555556 129.222222222 445.666666667 125 446 120 c 0
 447 111 448 106 452 98 c 0
 454 95 456 92 460 92 c 0
 478 92 488 93 506 97 c 0xd8
 519 100 525 107 538 110 c 0
 558 115 569 114 589 118 c 0
 603 121 610 123 624 126 c 0
 645 130 657 133 678 137 c 0
 688 139 694 138 704 141 c 0
 709 143 709 147 714 150 c 0
 718 153 720 155 724 156 c 0
 732 158 737 161 746 158 c 0
 752 156 752 151 756 146 c 0
 759 142 761 139 762 134 c 0
 763 131 764 128 762 125 c 0
 758 118 754 115 748 110 c 0
 738 102 733 99 721 93 c 0
 712 88 706 86 696 83 c 0
 679 77 669 74 652 70 c 0
 637 66 628 67 612 63 c 0
 596 59 587 54 571 49 c 0
 558 45 551 44 538 42 c 0
 524 39 516 38 502 36 c 0
 488 34 479 33 465 30 c 0
 455 28 450 26 440 23 c 0
 431 20 425 19 416 16 c 0
 411 15 409 13 404 12 c 0
 390 9 382 5 368 4 c 0
 340.114519907 1.67620999228 321.829039815 -0.647580015449 298.271303672 -0.647580015449 c 0
 291.41613323 -0.647580015449 284.114519907 -0.450806661517 276 0 c 0
 265 1 261 8 250 10 c 0
 239 12 233 10 222 12 c 0
 212 14 206 16 198 22 c 0
 190 28 185 33 182 43 c 0
 180.309401077 48.0717967697 179.690598923 52.4290623596 179.690598923 56.751288694 c 0
 179.690598923 62.6555596677 180.845299462 68.4944465005 182 76 c 0
 183 84 185 88 190 94 c 0
 195 100 200 103 208 104 c 0
 214.771243445 105.354248689 220.319827215 105.893390928 225.749608152 105.893390928 c 0
 232.348151808 105.893390928 238.771243445 105.097167541 247 104 c 0
 252 103 254 100 259 98 c 0
 264 96 268 95 273 92 c 0
 276 90 278 89 279 86 c 0
 281 82 283 79 280 76 c 0
 276 72 271 73 265 73 c 0
 260 73 258 75 253 75 c 0
 250 75 246 75 246 72 c 0
 246 68 249 65 252 64 c 0
 259 61 263 62 270 62 c 0
 308 63 330 63 368 66 c 0
 376 67 385 65 387 72 c 0
 397 120 391 149 396 198 c 0
 399 229 404 247 409 278 c 0
 412 299 416 311 418 332 c 0
 423 374 422 397 428 439 c 0
 432 466 436 480 444 507 c 0
 445 511 450 512 450 516 c 0
 451.215250437 545.166010489 453.168917686 566.947852854 453.168917686 590.319140634 c 0
 453.168917686 605.41118036 452.354248689 621.166010489 450 640 c 0xd4
 449 651 436 651 432 662 c 0
 431.282027496 664.010323011 430.997061986 666.082504164 430.997061986 668.178052673 c 0
 430.997061986 676.245508302 435.220538014 684.659291698 435.220538014 691.223195327 c 0
 435.220538014 694.82798078 433.94672851 697.874838495 430 700 c 0
 422.379422497 704.503068524 415.238788808 706.006488212 408.120917804 706.006488212 c 0
 394.690062412 706.006488212 381.340252838 700.653610114 365 700 c 0
 362 700 361 698 358 697 c 0
 349 695 343 693 334 694 c 0
 331 694 333 699 330 700 c 0
 325.699802365 700.806287057 321.833003941 701.034708498 318.186055511 701.034708498 c 0
 313.418248375 701.034708498 309.026196069 700.644303848 304.532737356 700.644303848 c 0
 299.674684659 700.644303848 294.69810195 701.100632683 289 703 c 0
 275 707 268 713 256 722 c 0
 244 731 237 737 228 750 c 0
 225 754 224 758 227 762 c 0xe8
EndSplineSet
Validated: 1
EndChar

StartChar: J
Encoding: 74 74 20
Width: 1000
Flags: HMW
HStem: 687 87 739 37 739 47
VStem: 558 71
LayerCount: 2
Fore
SplineSet
224 732 m 0x90
 223.828427125 733.45836944 223.745166004 734.857864376 223.745166004 736.203535444 c 0
 223.745166004 750.544155877 233.201010127 758.772077939 246 767 c 0
 256 773 264 766 276 763 c 0
 286 761 292 757 302 754 c 0
 327 747 341 742 366 736 c 0
 376.697383522 733.531373033 384.009145322 731.739870411 393.507176787 731.739870411 c 0
 395.551632211 731.739870411 397.697383522 731.822875656 400 732 c 0
 421 734 432 738 452 744 c 0
 470 749 481 752 498 760 c 0
 506 764 507 773 515 774 c 0x90
 516.909647516 774.318274586 518.692671642 774.459276426 520.389373385 774.459276426 c 0
 529.354545492 774.459276426 535.909647516 770.522588121 546 768 c 0
 556 765 560 759 570 758 c 0
 582.04644891 757.073350084 591.731527635 756.361370184 601.342861636 756.361370184 c 0
 612.475788943 756.361370184 623.509773868 757.31662479 638 760 c 0
 653 763 660 773 675 776 c 0
 678.883841127 776.728220211 682.414145803 776.985058488 685.776851865 776.985058488 c 0
 693.828095526 776.985058488 700.918571141 775.51271929 709.60033332 775.51271929 c 0
 712.230517177 775.51271929 715.006752136 775.647853192 718 776 c 0x50
 740 778 752 785 774 787 c 0
 780.11145618 787.763932023 785.201626124 788.090169944 790.050703091 788.090169944 c 0
 797.896674439 788.090169944 805.11145618 787.236067977 815 786 c 0
 819.25 785.5 823.25 785.4375 827.0625 785.4375 c 0
 828.333333333 785.4375 829.583333333 785.444444444 830.814814815 785.444444444 c 0
 840.666666667 785.444444444 849.333333333 785 858 777 c 0
 864.406346809 771.234287872 869.581455234 761.774860596 869.581455234 753.88021156 c 0
 869.581455234 749.451692227 867.953018511 745.515557234 864 743 c 0
 855.220145676 737.878418311 847.109439286 736.370235463 839.03142018 736.370235463 c 0
 827.457187518 736.370235463 815.950059643 739.466433006 802.637917111 739.466433006 c 0
 799.843895313 739.466433006 796.97035937 739.33003993 794 739 c 0x30
 766 736 751 733 723 728 c 0
 701 724 688 723 666 718 c 0
 648 714 639 711 621 707 c 0
 611 705 601 710 595 702 c 0
 590 696 601 693 604 686 c 0
 609 673 612 665 614 652 c 0
 614.552786405 648.683281573 614.723606798 645.672135955 614.723606798 642.797646652 c 0
 614.723606798 638.146625258 614.276393202 633.853374742 614.276393202 629.202353348 c 0
 614.276393202 626.327864045 614.447213595 623.316718427 615 620 c 0
 618 606 625 599 626 584 c 0
 628.958758548 543.760883752 629.816496581 514.026870075 629.816496581 482.365134159 c 0
 629.816496581 460.521767503 629.40824829 437.760883752 629 410 c 0
 629 384 629 369 622 344 c 0
 619 334 607 334 604 324 c 0
 596 298 600 283 594 256 c 0
 590 236 584 226 578 206 c 0
 572 187 569 177 563 158 c 0
 557 141 553 132 547 116 c 0
 543 104 543 98 538 86 c 0
 533 74 529 68 522 58 c 0
 514 47 510 41 500 32 c 0
 489 22 484 11 469 8 c 0
 455.955328796 5.31433239925 444.824260368 4.39506736056 434.081947174 4.39506736056 c 0
 416.825191406 4.39506736056 400.571661996 6.76733360021 379 8 c 0
 364 9 355 9 341 17 c 0
 324 26 317 36 304 50 c 0
 291 64 286 74 276 90 c 0
 272 97 268 100 267 108 c 0
 266.171572875 118.769552622 265.686291501 127.651803616 265.686291501 136.281312655 c 0
 265.686291501 148.485281374 266.656854249 160.183766184 269 176 c 0
 270 180 275 180 279 180 c 0
 286 180 289 180 296 178 c 0
 299 177 301 175 303 172 c 0
 308 164 308 158 314 150 c 0
 321 141 326 137 335 130 c 0
 343 123 350 121 358 114 c 0
 366 107 370 103 378 96 c 0
 383 92 385 90 390 86 c 0
 393 83 394 78 398 78 c 0
 407.119429464 77.1314829082 414.541634566 76.4515463011 421.658790986 76.4515463011 c 0
 430.930848979 76.4515463011 439.685170918 77.6055512755 451 81 c 0
 460 84 461 92 466 100 c 0
 473 110 479 115 483 126 c 0
 487 137 484 144 488 156 c 0
 494 177 500 188 507 208 c 0
 512 223 515 231 520 246 c 0
 534 290 544 315 554 360 c 0
 558 378 557 389 558 408 c 0
 560.679449472 462.482139259 564.156615552 495.425930103 564.156615552 545.305316722 c 0
 564.156615552 551.272536442 564.106850176 557.482139259 564 564 c 0
 564 580 557 588 555 603 c 0
 554 609.333333333 553.777777778 614.888888889 553.777777778 620.185185185 c 0
 553.777777778 624.422222222 553.92 628.493333333 553.92 632.664 c 0
 553.92 638.92 553.6 645.4 552 653 c 0
 549 665 545 670 538 680 c 0
 535 684 532 687 527 687 c 0
 502 687 487 683 462 680 c 0
 435 677 419 672 392 670 c 0
 388.248711306 669.732050808 384.92820323 669.607695155 381.807621135 669.607695155 c 0
 373.282032303 669.607695155 366.248711306 670.535898385 356 672 c 0
 334 674 321 676 299 680 c 0
 292 681 289 684 283 686 c 0
 272 691 264 691 254 698 c 0
 240 709 226 714 224 732 c 0x90
EndSplineSet
Validated: 1
EndChar

StartChar: K
Encoding: 75 75 21
Width: 1000
Flags: HMW
VStem: 219 36 375 67
LayerCount: 2
Fore
SplineSet
291 375 m 0
 296 401 292 416 296 442 c 0
 298 456 302 465 306 479 c 0
 310 491 313 498 316 511 c 0
 321 533 323 545 328 567 c 0
 333 591 336 605 342 629 c 0
 348 653 352 667 358 691 c 0
 365 721 362 739 375 767 c 0
 382 781 391 787 405 793 c 0
 415 797 424 796 432 789 c 0
 439.63750963 781.36249037 442.234020823 773.72498074 442.234020823 764.254105675 c 0
 442.234020823 762.564552838 442.151387819 760.816653826 442 759 c 0
 440 742 431 735 425 719 c 0
 412 681 404 660 395 622 c 0
 391 604 394 593 390 575 c 0
 386 557 380 549 374 532 c 0
 364 505 356 491 350 464 c 0
 348.141193422 455.449489743 347.802658078 448.004631291 347.802658078 440.843347506 c 0
 347.802658078 436.740319582 347.913788047 432.730379851 347.913788047 428.658912706 c 0
 347.913788047 420.721629268 347.491437458 412.550510257 345 403 c 0
 343 396 335 396 332 389 c 0
 331 386 333 382 336 381 c 0
 343 378 347 376 353 379 c 0
 357 381 354 387 357 390 c 0
 386 420 404 436 435 465 c 0
 457 485 471 495 492 516 c 0
 528 551 546 574 582 609 c 0
 620 645 631 658 674 693 c 0
 676.139436419 694.833802645 678.34893184 695.640073247 680.514286811 695.640073247 c 0
 689.143318698 695.640073247 697.071375303 682.836040684 697.071375303 671.230445623 c 0
 697.071375303 666.690953952 695.858415628 662.334818232 693 659 c 0
 641 599 599 562 549 489 c 0
 542.058421985 479.166097812 540.136167443 469.666817189 540.136167443 459.340757281 c 0
 540.136167443 451.816017469 541.156929669 443.852238474 542 435 c 0
 545 409 554 397 561 369 c 0
 573 320 567 291 579 243 c 0
 592 191 603 163 624 114 c 0
 628 105 642 106 642 96 c 0
 642 87 633 83 624 81 c 0
 613 79 604 79 597 87 c 0
 570 116 556 135 540 171 c 0
 521 213 521 239 513 285 c 0
 506 323 505 345 501 384 c 0
 500.632455532 387.062870566 500.490059291 390.065701606 500.490059291 393.008493118 c 0
 500.490059291 403.136164373 502.176607376 412.552724516 502.176607376 421.258173549 c 0
 502.176607376 430.669972531 500.205266808 439.250581348 492 447 c 0
 489.908443158 448.917260438 487.908024026 449.740868371 485.966972652 449.740868371 c 0
 476.771527029 449.740868371 468.908443158 431.257035965 459 423 c 0
 423 393 399 380 369 345 c 0
 354 327 363 304 345 288 c 0
 336 280 329 303 318 300 c 0
 309 298 308 288 306 279 c 0
 305.271779789 275.358898944 305.014941512 272.071334338 305.014941512 268.965671257 c 0
 305.014941512 261.529859225 306.48728071 255.136807441 306.48728071 247.430773187 c 0
 306.48728071 245.096191052 306.352146808 242.641101056 306 240 c 0
 301 207 297 188 288 156 c 0
 280 126 269 111 261 81 c 0
 256 60 261 45 255 24 c 0
 252 13 248 -3 237 -0 c 0
 223 4 221 18 219 33 c 0
 218.283882181 38.4902366092 217.966628042 43.4676484882 217.966628042 48.1770642552 c 0
 217.966628042 63.1965910369 221.193529698 75.4902366092 225 93 c 0
 248 204 268 264 291 375 c 0
EndSplineSet
Validated: 1
EndChar

StartChar: a
Encoding: 97 97 22
Width: 407
Flags: HMW
HStem: 119.286 0.297432G<346.759 348.039> 127.501 0.637353 127.657 0.793151
VStem: 339.936 11.2589<122.289 122.544> 340.447 13.9883 340.618 15.0119
LayerCount: 2
Fore
SplineSet
524.290039062 199.540039062 m 0xb0
 515.58984375 190.299804688 511.240234375 183.370117188 501.669921875 174.900390625 c 0
 490.360351562 164.120117188 485.139648438 157.959960938 471.219726562 149.490234375 c 0
 457.299804688 141.01953125 447.73046875 138.709960938 432.0703125 131.780273438 c 0
 417.280273438 124.849609375 409.450195312 119.459960938 393.790039062 114.83984375 c 0
 373.780273438 108.6796875 361.599609375 107.139648438 341.58984375 104.830078125 c 0
 333.768554688 104.137695312 327.353515625 103.756835938 321.081054688 103.756835938 c 0
 313.3984375 103.756835938 305.928710938 104.328125 296.349609375 105.599609375 c 0
 286.780273438 107.139648438 281.559570312 110.219726562 273.73046875 114.0703125 c 0
 263.290039062 119.459960938 256.330078125 122.540039062 247.629882812 131.009765625 c 0
 238.059570312 140.25 231.969726562 145.639648438 226.75 157.190429688 c 0
 224.333007812 162.323242188 223.795898438 166.505859375 223.795898438 170.926757812 c 0
 223.795898438 174.462890625 224.139648438 178.151367188 224.139648438 182.599609375 c 0
 224.139648438 196.459960938 225.879882812 204.9296875 228.490234375 218.790039062 c 0
 231.099609375 231.110351562 231.099609375 238.040039062 236.3203125 249.58984375 c 0
 241.540039062 262.6796875 247.629882812 269.610351562 254.58984375 281.9296875 c 0
 261.549804688 294.25 263.290039062 301.950195312 271.120117188 313.5 c 0
 277.209960938 321.969726562 283.299804688 325.8203125 289.389648438 334.290039062 c 0
 298.08984375 345.83984375 298.959960938 353.540039062 308.530273438 365.08984375 c 0
 323.3203125 383.5703125 332.889648438 392.809570312 349.419921875 409.75 c 0
 358.120117188 418.990234375 364.209960938 423.610351562 374.650390625 431.309570312 c 0
 392.919921875 445.940429688 403.360351562 453.639648438 421.629882812 467.5 c 0
 438.16015625 479.8203125 446.860351562 488.290039062 464.259765625 499.0703125 c 0
 475.5703125 506 482.530273438 507.540039062 494.709960938 512.9296875 c 0
 504.280273438 517.549804688 509.5 522.940429688 519.940429688 525.25 c 0
 530.379882812 527.559570312 536.469726562 526.01953125 546.91015625 526.01953125 c 0xb0
 554.217773438 526.01953125 559.646484375 526.8515625 565.263671875 526.8515625 c 0
 569.0078125 526.8515625 572.8359375 526.482421875 577.360351562 525.25 c 0
 583.450195312 523.709960938 584.3203125 516.780273438 589.540039062 514.469726562 c 0
 597.370117188 510.620117188 602.58984375 510.620117188 610.419921875 509.080078125 c 0
 619.990234375 507.540039062 626.950195312 512.16015625 634.780273438 507.540039062 c 0
 640.870117188 503.690429688 640.870117188 497.530273438 640 491.370117188 c 0
 639.129882812 486.75 636.51953125 483.669921875 632.169921875 480.58984375 c 0
 626.080078125 476.740234375 622.599609375 474.4296875 614.76953125 474.4296875 c 0xc8
 602.58984375 474.4296875 596.5 478.280273438 584.3203125 480.58984375 c 0
 575.620117188 482.129882812 570.400390625 483.669921875 560.830078125 482.900390625 c 0
 546.91015625 482.129882812 539.080078125 480.58984375 526.900390625 475.969726562 c 0
 505.150390625 467.5 492.969726562 462.110351562 473.830078125 449.790039062 c 0
 454.690429688 438.240234375 445.120117188 430.540039062 428.58984375 415.91015625 c 0
 409.450195312 398.969726562 399.879882812 388.190429688 383.349609375 369.709960938 c 0
 374.650390625 360.469726562 370.299804688 354.309570312 362.469726562 344.299804688 c 0
 355.509765625 335.830078125 351.16015625 331.98046875 345.0703125 322.740234375 c 0
 334.629882812 308.110351562 330.280273438 298.870117188 321.580078125 283.469726562 c 0
 312.009765625 265.759765625 306.790039062 255.75 298.08984375 238.040039062 c 0
 292.870117188 228.030273438 292 221.099609375 285.91015625 211.08984375 c 0
 284.169921875 208.009765625 279.8203125 208.009765625 278.950195312 204.9296875 c 0
 278.080078125 199.924804688 277.427734375 195.690429688 277.427734375 191.55078125 c 0
 277.427734375 187.412109375 278.080078125 183.370117188 279.8203125 178.75 c 0
 283.299804688 168.740234375 286.780273438 163.349609375 296.349609375 157.190429688 c 0
 305.049804688 151.799804688 312.009765625 151.799804688 322.450195312 151.030273438 c 0
 327.766601562 150.44140625 332.322265625 150.190429688 336.698242188 150.190429688 c 0
 343.77734375 150.190429688 350.38671875 150.848632812 358.990234375 151.799804688 c 0
 367.690429688 152.5703125 371.169921875 155.650390625 379 158.73046875 c 0
 388.5703125 163.349609375 393.790039062 166.4296875 403.360351562 171.049804688 c 2
 425.98046875 181.059570312 l 2
 435.549804688 185.6796875 443.379882812 185.6796875 451.209960938 191.83984375 c 0
 463.389648438 200.309570312 467.740234375 206.469726562 477.309570312 217.25 c 0
 485.139648438 225.719726562 490.360351562 230.33984375 497.3203125 240.349609375 c 0
 503.41015625 249.58984375 505.150390625 255.75 509.5 264.990234375 c 0
 513.849609375 273.459960938 517.330078125 278.849609375 521.6796875 287.3203125 c 0
 526.900390625 298.099609375 529.509765625 304.259765625 532.990234375 315.040039062 c 0
 536.469726562 325.049804688 539.080078125 331.209960938 540.8203125 341.990234375 c 0
 541.254882812 344.877929688 541.41796875 347.4765625 541.41796875 349.930664062 c 0
 541.41796875 357.293945312 539.950195312 363.357421875 539.950195312 372.01953125 c 2
 539.950195312 398.969726562 l 2xa4
 539.950195312 409.049804688 538.109375 415.872070312 538.109375 424.174804688 c 0
 538.109375 427.288085938 538.368164062 430.610351562 539.080078125 434.389648438 c 0
 540.8203125 441.3203125 544.299804688 445.940429688 550.389648438 450.559570312 c 0
 559.08984375 456.719726562 565.1796875 460.5703125 575.620117188 461.33984375 c 0
 585.190429688 462.110351562 590.41015625 459.799804688 599.110351562 455.1796875 c 0
 605.200195312 452.099609375 607.809570312 449.01953125 610.419921875 443.629882812 c 0xa8
 614.76953125 432.080078125 615.639648438 424.379882812 616.509765625 412.059570312 c 0xa4
 616.62890625 410.375976562 616.682617188 408.778320312 616.682617188 407.244140625 c 0
 616.682617188 397.548828125 614.532226562 390.356445312 613.030273438 379.719726562 c 0
 611.290039062 361.240234375 610.419921875 350.459960938 607.809570312 331.98046875 c 0
 606.0703125 318.120117188 604.330078125 309.650390625 601.719726562 295.790039062 c 0
 599.110351562 281.9296875 594.759765625 275 593.01953125 261.139648438 c 0
 592.584960938 256.712890625 592.421875 252.814453125 592.421875 249.180664062 c 0
 592.421875 238.280273438 593.889648438 229.762695312 593.889648438 216.48046875 c 2
 593.889648438 174.129882812 l 1
 593.889648438 135.629882812 l 2
 593.889648438 127.416992188 591.5703125 121.256835938 591.5703125 114.640625 c 0
 591.5703125 111.33203125 592.150390625 107.91015625 593.889648438 104.059570312 c 0
 595.629882812 99.4404296875 603.459960938 100.98046875 607.809570312 104.059570312 c 0
 614.76953125 108.6796875 614.76953125 114.0703125 619.120117188 120.23046875 c 0
 623.469726562 125.620117188 625.209960938 128.700195312 630.4296875 132.549804688 c 0
 634.780273438 135.629882812 639.129882812 136.400390625 644.349609375 136.400390625 c 0
 650.440429688 136.400390625 655.66015625 135.629882812 658.26953125 131.780273438 c 0
 661.75 126.389648438 660.879882812 121 658.26953125 114.83984375 c 0
 650.440429688 95.58984375 642.610351562 85.580078125 631.299804688 67.8701171875 c 0
 626.080078125 59.400390625 622.599609375 54.009765625 614.76953125 47.080078125 c 0
 606.940429688 40.150390625 601.719726562 36.2998046875 591.280273438 31.6796875 c 0
 585.190429688 28.599609375 580.83984375 27.830078125 574.75 27.830078125 c 0
 567.790039062 27.830078125 564.309570312 30.1396484375 557.349609375 32.4501953125 c 0
 549.51953125 34.759765625 541.690429688 33.2197265625 538.209960938 40.150390625 c 0
 535.891601562 45.1337890625 535.211914062 49.5595703125 535.211914062 53.9375 c 0
 535.211914062 60.12890625 536.5703125 66.224609375 536.5703125 73.6669921875 c 0
 536.5703125 74.7822265625 536.540039062 75.9287109375 536.469726562 77.1103515625 c 0
 535.599609375 94.0498046875 532.990234375 103.290039062 532.990234375 120.23046875 c 0
 532.990234375 134.860351562 534.73046875 142.559570312 535.599609375 157.190429688 c 0
 536.469726562 170.280273438 536.469726562 177.98046875 536.469726562 191.0703125 c 0
 536.469726562 196.459960938 539.080078125 200.309570312 536.469726562 204.9296875 c 0
 534.73046875 207.240234375 532.120117188 206.469726562 528.639648438 204.9296875 c 0
 526.030273438 203.389648438 526.030273438 201.849609375 524.290039062 199.540039062 c 0xb0
EndSplineSet
Validated: 524289
EndChar

StartChar: b
Encoding: 98 98 23
Width: 1000
Flags: HMW
HStem: 412 38
VStem: 462 40 674 48<250 312>
LayerCount: 2
Fore
SplineSet
510 412 m 0
 498 411 487 409 482 398 c 0
 479.973980348 393.658529318 479.288289065 389.568370205 479.288289065 385.535556117 c 0
 479.288289065 377.087316546 482.297444817 368.890735581 482.297444817 359.162609813 c 0
 482.297444817 357.490034239 482.208492387 355.772185292 482 354 c 0
 479 329 474 315 470 290 c 0
 466 265 465 251 460 226 c 0
 456 207 452 197 448 178 c 0
 446 167 448 161 446 150 c 0
 445 141 437 137 440 128 c 0
 444 114 448 103 462 98 c 0
 465.86077534 96.7130748866 469.390315431 96.1548673221 472.759130257 96.1548673221 c 0
 482.478935703 96.1548673221 490.86077534 100.801695159 502 106 c 0
 525 116 535 127 556 140 c 0
 573 151 583 156 598 168 c 0
 611 178 619 184 630 196 c 0
 639 206 642 214 650 226 c 0
 658 239 666 245 670 260 c 0
 673.571428571 272.142857143 674.081632653 281.224489796 674.081632653 291.982507289 c 0
 674.081632653 296.285714286 674 300.857142857 674 306 c 0
 674 318 676 325 670 336 c 0
 662 352 653 359 640 372 c 0
 628 385 622 395 606 402 c 0
 602.039809821 403.697224362 598.479698884 404.274226849 595.070691635 404.274226849 c 0
 587.82866123 404.274226849 581.268560992 401.670217595 573.003382439 401.670217595 c 0
 571.405101509 401.670217595 569.743060906 401.767591879 568 402 c 0
 546.20353104 403.895345127 534.285978243 412.077273267 513.523386 412.077273267 c 0
 512.376942313 412.077273267 511.20353104 412.052327437 510 412 c 0
508 498 m 0
 506 486 499 480 502 468 c 0
 504 459 511 455 520 452 c 0
 525.406191165 450.197936278 530.032998253 449.694846019 534.48903783 449.694846019 c 0
 540.122502875 449.694846019 545.483033458 450.498925607 551.80039836 450.498925607 c 0
 554.350694022 450.498925607 557.056925502 450.367884312 560 450 c 0
 580 447 591 446 610 440 c 0
 631 433 644 429 662 416 c 0
 678 404 684 394 696 378 c 0
 706 364 712 355 718 338 c 0
 723 322 721 312 722 296 c 0
 722.607625219 285.062746067 723.584458843 277.079159383 723.584458843 268.459794533 c 0
 723.584458843 262.89382838 723.177124344 257.062746067 722 250 c 0
 719 231 716 220 708 202 c 0
 700 185 692 177 680 162 c 0
 669 149 663 143 650 132 c 0
 635 120 626 114 610 104 c 0
 592 92 581 87 562 76 c 0
 541 65 531 55 508 48 c 0
 502.505553499 46.3094010768 497.725638179 45.6905989232 492.980762114 45.6905989232 c 0
 486.499140871 45.6905989232 480.082903769 46.8452994616 472 48 c 0
 458 50 452 59 438 60 c 0
 431 61 427 57 422 52 c 0
 415 44 418 30 408 28 c 0
 398 26 397 39 390 46 c 0
 384 52 376 53 374 60 c 0
 372.491356122 65.6574145409 371.978465023 70.4613267008 371.978465023 75.109203348 c 0
 371.978465023 82.7846502269 373.377160969 90.0345755103 374 100 c 0
 375 119 377 129 380 148 c 0
 383 164 385 174 388 190 c 0
 391 208 391 218 394 236 c 0
 396 251 397 259 400 274 c 0
 403 290 405 300 408 316 c 0
 411 332 411 340 414 356 c 0
 416 368 420 374 422 386 c 0
 423 393 425 398 422 404 c 0
 417 414 407 415 402 426 c 0
 397 435 391 444 398 452 c 0
 401.493605471 456.367006838 405.75004089 457.301278906 410.436177898 457.301278906 c 0
 413.940834508 457.301278906 417.685832159 456.778721094 421.531822102 456.778721094 c 0
 424.319183588 456.778721094 427.159591794 457.053197265 430 458 c 0
 437 460 444 461 446 468 c 0
 447.508954344 471.621490425 448.016053674 474.969747664 448.016053674 478.237176706 c 0
 448.016053674 484.935072818 445.885180894 491.293322244 445.885180894 498.969270482 c 0
 445.885180894 499.956539869 445.920431353 500.965607595 446 502 c 0
 447 516 449 524 452 538 c 0
 455 554 460 564 462 580 c 0
 462.523166375 584.708497378 462.70420393 588.869588643 462.70420393 592.769658268 c 0
 462.70420393 601.535609266 461.78962323 608.982909253 461.78962323 618.363400717 c 0
 461.78962323 620.764140011 461.849527923 623.291502622 462 626 c 0
 463 645 465 655 468 674 c 0
 470 690 472 698 476 714 c 0
 479 727 482 735 486 748 c 0
 489 757 486 766 494 772 c 0
 501 778 509 772 518 772 c 0
 527 772 534 777 540 770 c 0
 548.803670188 758.555228755 552.182017762 747.885503599 552.182017762 733.896874447 c 0
 552.182017762 731.995961109 552.119632981 730.03376068 552 728 c 0
 551 709 540 701 536 682 c 0
 534.730717947 676.288230762 534.367666667 671.281307681 534.367666667 666.499954734 c 0
 534.367666667 660.108416284 535.016416378 654.119957418 535.016416378 647.389725706 c 0
 535.016416378 643.288319859 534.775490951 638.911442692 534 634 c 0
 531 615 527 605 522 586 c 0
 518 570 515 562 512 546 c 0
 509 527 510 517 508 498 c 0
EndSplineSet
Validated: 1
EndChar

StartChar: c
Encoding: 99 99 24
Width: 1000
Flags: HMW
HStem: 102 110 472 64
VStem: 304 64
LayerCount: 2
Fore
SplineSet
602 519 m 0
 611 512 604 502 601 492 c 0
 598 483 595 477 587 472 c 0
 578 467 572 469 562 470 c 0
 551 471 546 479 535 476 c 0
 519 472 513 465 500 454 c 0
 477 435 465 423 445 402 c 0
 431 388 422 380 412 363 c 0
 399 341 396 326 388 302 c 0
 382 286 380 276 376 260 c 0
 372 241 368 231 368 212 c 0
 368 191 370 180 374 159 c 0
 376 149 376 142 382 134 c 0
 394 118 403 109 419 98 c 0
 426 93 432 94 440 94 c 0
 460 95 472 97 491 102 c 0
 506 106 514 110 527 118 c 0
 555 134 568 146 595 164 c 0
 619 180 629 195 655 206 c 0
 667.666666667 211.333333333 677.666666667 214 688.851851852 214 c 0
 694.444444444 214 700.333333333 213.333333333 707 212 c 0
 718 209 725 202 727 190 c 0
 727.460499298 187.083504448 727.661814636 184.35550632 727.661814636 181.754520208 c 0
 727.661814636 167.410945547 721.539500702 156.930004682 719 140 c 0
 717 128 723 119 715 110 c 0
 707 101 697 100 686 102 c 0
 673 104 669 114 656 118 c 0
 649 120 644 119 638 116 c 0
 616 106 604 97 583 86 c 0
 555 72 541 62 512 50 c 0
 494 43 483 41 464 38 c 0
 446.614694122 35.8268367653 435.0015019 32.0794607158 420.797926544 32.0794607158 c 0
 415.393804978 32.0794607158 409.614694122 32.6219387245 403 34 c 0
 384 38 375 47 361 60 c 0
 347 74 342 85 332 102 c 0
 321 121 312 130 307 152 c 0
 303.605551275 166.709277806 302.451546301 177.897858291 302.451546301 189.730423428 c 0
 302.451546301 198.813004337 303.131482908 208.27501926 304 220 c 0
 306 249 309 266 319 294 c 0
 330 325 340 342 358 370 c 0
 381 407 398 425 424 460 c 0
 437 477 442 488 458 501 c 0
 474 514 486 518 506 526 c 0
 517.876187343 531.481317235 525.579480432 536.12805562 538.259062146 536.12805562 c 0
 539.458897918 536.12805562 540.703293088 536.086447127 542 536 c 0
 566 534 583 534 602 519 c 0
EndSplineSet
Validated: 1
EndChar

StartChar: d
Encoding: 100 100 25
Width: 1000
Flags: HMW
HStem: 80 42<416 493> 454 46
VStem: 266 60 527 57 578 52
LayerCount: 2
Fore
SplineSet
551 448 m 0xf0
 549 454 542 456 536 454 c 0
 518 448 509 441 494 430 c 0
 464 408 449 394 422 369 c 0
 402 350 391 340 374 318 c 0
 360 300 349 290 342 268 c 0
 331.524199846 237.445582883 325.620999228 216.798464761 325.620999228 187.430230496 c 0
 325.620999228 183.157233926 325.745966692 178.69961619 326 174 c 0
 327 162 337 158 347 152 c 0
 372 137 387 130 416 122 c 0
 422.03457551 120.491356122 427.21564864 119.978465023 432.187034959 119.978465023 c 0
 440.396721769 119.978465023 448.03457551 121.377160969 458 122 c 0
 459.137513263 122.049457098 460.262796504 122.072008146 461.376333611 122.072008146 c 0
 472.908556251 122.072008146 483.180949921 119.653300496 492.73100521 119.653300496 c 0
 500.904089227 119.653300496 508.548118216 121.424810191 516 128 c 0
 525.438447187 136.258641289 526.873228116 146.257210025 526.873228116 157.379873209 c 0
 526.873228116 162.238714312 526.599428134 167.312066938 526.599428134 172.548593588 c 0
 526.599428134 175.645529451 526.695194102 178.799538067 527 182 c 0
 530 213 529 230 531 261 c 0
 532 275 532 284 534 298 c 0
 538 323 545 337 548 362 c 0
 548.523166375 366.44691419 548.70420393 370.414848032 548.70420393 374.154387938 c 0
 548.70420393 382.559525981 547.78962323 389.810844389 547.78962323 398.75370534 c 0
 547.78962323 401.042442318 547.849527923 403.441974699 548 406 c 0
 548.754970355 418.079525675 552.359841892 426.739169931 552.359841892 437.142750944 c 0
 552.359841892 440.519288513 551.980118581 444.079525675 551 448 c 0xf0
630 748 m 0xe8
 629 663 621 615 614 530 c 0
 603 401 588 329 584 200 c 0xf0
 583.813394503 196.081284566 583.661610618 192.162569132 583.661610618 188.315330643 c 0
 583.661610618 171.545606858 586.54550444 156.133945031 602 148 c 0
 604.097009148 146.801709058 606.05940256 146.276496795 607.92750744 146.276496795 c 0
 618.531197619 146.276496795 626.097009148 163.198290942 638 170 c 0
 652 178 661 181 674 190 c 0
 685 197 687 206 699 212 c 0
 707 216 715 217 722 212 c 0
 731 206 738 198 734 188 c 0
 727 170 715 164 699 152 c 0
 677 135 663 127 638 114 c 0
 625 108 617 109 603 104 c 0
 593 100 585 99 578 90 c 0xe8
 575 86 586 83 584 78 c 0xf0
 581 70 577 63 569 63 c 0
 558 64 555 75 545 80 c 0
 532 86 525 92 510 92 c 0
 500 92 498 80 488 80 c 0
 479.025377442 79.582575695 470.83484861 79.382955203 463.101113727 79.382955203 c 0
 433.780298647 79.382955203 411.025377442 82.2522729151 377 87 c 0
 357 90 345 94 327 104 c 0
 308 115 297 123 284 141 c 0
 273 155 269 166 266 184 c 0
 265.572599296 187.632905987 265.373537794 190.99180493 265.373537794 194.1840484 c 0
 265.373537794 205.92974695 268.068501761 215.419205634 272 228 c 0
 277 244 283 253 291 267 c 0
 311 300 321 319 344 350 c 0
 356 366 366 373 380 388 c 0
 391 401 394 410 407 422 c 0
 430 443 444 453 470 471 c 0
 486 482 494 489 512 496 c 0
 523 500 530 500 542 500 c 0
 548 500 555 490 557 496 c 0
 558.208830512 499.384725433 558.657799996 502.477196625 558.657799996 505.432859347 c 0
 558.657799996 513.969613721 554.912447938 521.365097023 554.912447938 531.364661314 c 0
 554.912447938 532.223124903 554.940052079 533.100781192 555 534 c 0
 562 622 560 672 578 759 c 0
 580 768 593 765 602 765 c 0
 609 765 613 762 618 759 c 0
 623 756 630 754 630 748 c 0xe8
EndSplineSet
Validated: 1
EndChar

StartChar: e
Encoding: 101 101 26
Width: 1000
Flags: HMW
HStem: 24 52
LayerCount: 2
Fore
SplineSet
460 448 m 0
 414 404 396 372 362 318 c 0
 357 310 357 300 364 294 c 0
 378 282 390 282 409 280 c 0
 412.670068381 279.632993162 416.03707522 279.468027353 419.212246173 279.468027353 c 0
 433.340136763 279.468027353 443.670068381 282.734013676 460 286 c 0
 492 293 510 298 542 308 c 0
 555 312 564 314 575 322 c 0
 595 336 610 343 623 364 c 0
 636.32291626 385.316666016 643.334717936 401.899996093 643.334717936 424.960983714 c 0
 643.334717936 427.863892253 643.223611165 430.869443685 643 434 c 0
 642 454 630 463 616 477 c 0
 606 487 598 492 583 494 c 0
 579 494.5 575.375 494.75 571.953125 494.75 c 0
 561.6875 494.75 553.25 492.5 542 488 c 0
 509 476 486 472 460 448 c 0
712 176 m 0
 718 181 723 185 730 183 c 0
 739 180 743 174 748 166 c 0
 753 158 758 152 754 144 c 0
 742 121 731 108 709 93 c 0
 671 68 647 59 604 44 c 0
 572 33 554 30 520 27 c 0
 490.625 23.875 469.453125 22.3125 446.23046875 22.3125 c 0
 432.296875 22.3125 417.625 22.875 400 24 c 0
 373 26 358 30 332 38 c 0
 311 44 297 46 280 60 c 0
 265 72 262 85 253 102 c 0
 245 117 240 125 238 142 c 0
 236.309718003 156.649110641 234.301985647 168.123717693 234.301985647 180.001025334 c 0
 234.301985647 189.204178223 235.507418659 198.649110641 239 210 c 0
 255 263 265 294 296 340 c 0
 331 392 360 416 406 459 c 0
 429 481 444 492 472 508 c 0
 503 525 522 536 557 542 c 0
 564.282370178 543.266499161 570.862981551 543.931490776 577.122738521 543.931490776 c 0
 590.633249581 543.931490776 602.649120597 540.833752096 617 534 c 0
 658 514 687 504 712 466 c 0
 719.199417657 455.412621093 721.735783481 445.004590333 721.735783481 434.32018929 c 0
 721.735783481 419.775491761 717.035533906 404.718640467 713 388 c 0
 707 362 698 348 680 327 c 0
 663 307 650 298 626 288 c 0
 566 262 530 248 466 234 c 0
 451.636795944 230.953259746 439.925770796 229.800932997 428.475756118 229.800932997 c 0
 413.618932648 229.800932997 399.201547337 231.740994431 380 234 c 0
 361.76627773 235.657611115 349.714823333 252.427432585 335.305806855 252.427432585 c 0
 332.329543585 252.427432585 329.252694404 251.711944423 326 250 c 0
 306 240 310 218 307 196 c 0
 305.714285714 184.428571429 304.795918367 174.693877551 304.795918367 165.300291545 c 0
 304.795918367 152.775510204 306.428571429 140.857142857 311 126 c 0
 315 112 322 106 335 99 c 0
 361 85 377 79 406 76 c 0
 417.30384635 74.7081318457 427.04307708 74.1464176474 436.228330737 74.1464176474 c 0
 455.483297163 74.1464176474 472.30384635 76.6148351929 496 80 c 0
 537 85 560 90 599 102 c 0
 624 110 638 116 659 130 c 0
 682 145 690 160 712 176 c 0
EndSplineSet
Validated: 1
EndChar

StartChar: f
Encoding: 102 102 27
Width: 1000
Flags: HMW
HStem: 262 49
VStem: 277 68
LayerCount: 2
Fore
SplineSet
233 225 m 0
 225 222 218 226 212 232 c 0
 206 238 208 244 207 252 c 0
 205 262 203 267 205 277 c 0
 206 282 209 285 213 288 c 0
 220 293 226 294 234 296 c 0
 245 299 252 300 263 302 c 0
 276 304 284 304 297 308 c 0
 299 309 299 311 299 313 c 0
 302 334 301 347 306 368 c 0
 312 394 322 406 328 432 c 0
 328.75 435.5 329 438.625 329 441.546875 c 0
 329 447.390625 328 452.421875 328 458.015625 c 0
 328 460.8125 328.25 463.75 329 467 c 0
 333 486 338 495 345 513 c 0
 349 524 354 529 357 540 c 0
 360 554 358 563 361 577 c 0
 363 585 364 590 368 598 c 0
 374 608 382 611 386 622 c 0
 391 635 388 645 393 659 c 0
 401 680 412 689 421 710 c 0
 425 719 421 727 425 736 c 0
 428 743 435 744 438 751 c 0
 442 761 436 770 441 780 c 0
 445 787 450 790 458 791 c 0
 466 792 470 789 475 784 c 0
 486 775 491 769 497 757 c 0
 506 739 506 726 515 708 c 0
 528 683 537 670 554 647 c 0
 561 637 566 632 576 627 c 0
 584 623 591 622 600 625 c 0
 613 630 616 639 627 646 c 0
 636 652 639 657 649 658 c 0
 654 658 656 653 657 648 c 0
 658 641 656 636 653 629 c 0
 649 620 646 614 638 609 c 0
 627 602 619 602 606 598 c 0
 595 595 590 590 579 590 c 0
 566 590 558 592 546 598 c 0
 535 603 531 610 523 618 c 0
 515 626 510 630 504 640 c 0
 497 653 496 661 490 675 c 0
 485 686 485 693 478 703 c 0
 476 705 473 704 471 702 c 0
 465 694 465 689 461 680 c 0
 452 659 449 645 438 625 c 0
 435 619 427 619 425 613 c 0
 414 583 411 564 404 533 c 0
 400 514 401 502 395 484 c 0
 392 477 385 476 382 469 c 0
 373 445 372 431 366 406 c 0
 357 373 351 354 343 321 c 0
 342 316 339 309 344 309 c 0
 356.75 308 368.125 307.625 378.8125 307.625 c 0
 410.875 307.625 436.75 311 475 311 c 0
 508.230769231 311 534.857988166 311.639053254 560.878925808 311.639053254 c 0
 591.236686391 311.639053254 620.769230769 310.769230769 659 307 c 0
 666 306 666 298 666 292 c 0
 666 287 666 279 660 278 c 0
 615 266 588 263 541 260 c 0
 533.752502156 259.456437662 527.095924344 259.24116423 520.81613198 259.24116423 c 0
 496.892461968 259.24116423 478.437177921 262.36548397 453.610752405 262.36548397 c 0
 448.986990374 262.36548397 444.142234686 262.257111734 439 262 c 0
 435.252702799 261.825707107 431.513000101 261.750142755 427.791481249 261.750142755 c 0
 403.511402624 261.750142755 380.005332069 264.966591939 360.214023124 264.966591939 c 0
 348.229562303 264.966591939 337.607232592 263.787182341 329 260 c 0
 326.558674981 258.953717849 325.698592453 254.015146492 325.698592453 247.00839642 c 0
 325.698592453 233.924724228 328.697521434 213.629742793 330 198 c 0
 331 190 338 187 343 179 c 0
 346 174 345 169 350 166 c 0
 355 163 360 166 366 163 c 0
 372 160 375 156 380 150 c 0
 386 142 390 137 394 127 c 0
 396 123 397 119 394 116 c 0
 389 112 384 112 379 115 c 0
 368 121 367 130 357 137 c 0
 353 140 346 143 345 138 c 0
 342.97716608 127.076696831 342.263726422 118.117485054 342.263726422 109.533152394 c 0
 342.263726422 96.8989050854 343.809133568 85.0766968306 345 69 c 0
 345 64 352 64 352 60 c 0
 353 50.5 354 43 354 35.625 c 0
 354 28.25 353 21 350 12 c 0
 347 5 339 7 332 5 c 0
 327 4 322 2 318 5 c 0
 305 14 296 20 290 34 c 0
 279 59 278 75 277 102 c 0
 276.894427191 105.695048315 276.844582472 109.234057978 276.844582472 112.649975867 c 0
 276.844582472 141.59009663 280.422291236 161.695048315 284 193 c 0
 287 217 286 234 291 255 c 0
 291.262666843 255.919333952 291.387345946 256.713616514 291.387345946 257.393324698 c 0
 291.387345946 259.798681829 289.825968865 260.769205032 287.293014814 260.769205032 c 0
 279.641771591 260.769205032 263.125367833 251.913659602 254 247 c 0
 243 241 244 229 233 225 c 0
EndSplineSet
Validated: 1
EndChar

StartChar: g
Encoding: 103 103 28
Width: 1000
Flags: HMW
HStem: -190 60<352.5 418>
LayerCount: 2
Fore
SplineSet
431 298 m 0
 451 359 492 378 536 424 c 0
 558 447 573 459 600 476 c 0
 618 487 631 491 652 495 c 0
 656.684658438 495.780776406 661.064510978 496.409149864 665.199053934 496.409149864 c 0
 671.655361115 496.409149864 677.513493829 494.876894374 683 490 c 0
 703 472 711 457 722 433 c 0
 727.570820663 421.06252715 730.608250072 411.658445555 730.608250072 400.251411816 c 0
 730.608250072 397.32496742 730.408336953 394.266695627 730 391 c 0
 728 373 720 365 714 348 c 0
 705 322 699 308 690 282 c 0
 681 255 677 240 668 213 c 0
 660 190 655 177 646 154 c 0
 631 118 621 98 606 62 c 0
 590 24 581 2 566 -36 c 0
 556 -62 558 -80 540 -102 c 0
 511 -138 492 -158 450 -178 c 0
 428 -188.666666667 410 -190.888888889 389.481481481 -190.888888889 c 0
 379.222222222 -190.888888889 368.333333333 -190.333333333 356 -190 c 0
 349 -190 347 -181 346 -174 c 0
 345.464101615 -170.516660498 345.215390309 -167.392304845 345.215390309 -164.434554176 c 0
 345.215390309 -156.353829072 347.07179677 -149.516660498 350 -140 c 0
 352 -135 354 -131 360 -130 c 0
 363.310385684 -129.54858377 366.439636602 -129.368869691 369.442264201 -129.368869691 c 0
 381.174534609 -129.368869691 390.973613539 -132.112611791 402.09134348 -132.112611791 c 0
 407.037745856 -132.112611791 412.245169871 -131.569499126 418 -130 c 0
 430 -127 430 -116 440 -108 c 0
 457 -95 471 -94 486 -78 c 0
 495 -68 491 -58 496 -46 c 0
 502 -33 507 -26 514 -14 c 0
 530 16 540 31 554 62 c 0
 564 84 568 97 576 120 c 0
 585 146 589 160 599 186 c 0
 607 206 613 217 620 237 c 0
 625 250 626 257 630 270 c 0
 634 282 635 288 639 300 c 0
 641 307 645 312 645 319 c 0
 645 322 643 325 640 326 c 0
 637 327 634 326 632 324 c 0
 626 318 626 312 620 306 c 0
 612 297 605 294 596 286 c 0
 589 280 585 275 578 269 c 0
 562 255 553 246 536 234 c 0
 525 226 518 223 506 218 c 0
 497 214 491 212 482 210 c 0
 475 209 471 208 464 210 c 0
 457 212 453 214 448 218 c 0
 442 223 440 226 436 233 c 0
 432 239 429 242 428 249 c 0
 426 256 428 261 428 268 c 0
 429 280 427 286 431 298 c 0
650 446 m 0
 592 402 561 375 508 326 c 0
 498 317 498 308 490 298 c 0
 485 292 479 290 476 283 c 0
 473 276 472 270 475 264 c 0
 476 261 481 262 484 264 c 0
 499 276 519 278 534 290 c 0
 567 316 596 351 622 372 c 0
 644 390 652 396 679 420 c 0
 683 424 682 430 680 434 c 0
 676 440 672 442 665 445 c 0
 660 447 655 450 650 446 c 0
EndSplineSet
Validated: 1
EndChar

StartChar: h
Encoding: 104 104 29
Width: 1000
Flags: HMW
VStem: 497 42
LayerCount: 2
Fore
SplineSet
375 333 m 2
 362 294 l 2
 357 278 353 268 348 252 c 0
 342 234 338 224 332 206 c 0
 326 189 324 179 319 161 c 0
 316 150 313 144 310 133 c 0
 308 125 305 121 304 113 c 0
 304 109 304 106 307 104 c 0
 311 101 316 98 319 102 c 0
 341 127 348 145 366 172 c 0
 374 184 377 191 385 202 c 0
 404 230 415 246 435 272 c 0
 453 296 462 311 483 333 c 0
 528 380 554 406 603 449 c 0
 610 455 615 459 625 460 c 0
 633 461 638 457 645 454 c 0
 651 451 657 451 660 444 c 0
 664 434 663 427 662 416 c 0
 661 402 659 394 655 380 c 0
 648 358 642 346 634 324 c 0
 627 303 622 291 616 270 c 0
 611 251 611 239 605 220 c 0
 598.36472793 199.146287779 581.845880556 189.074657709 581.845880556 167.64114238 c 0
 581.845880556 166.462983958 581.89579202 165.250495759 582 164 c 0
 583 153 599 160 610 156 c 0
 614 155 619 154 618 150 c 0
 616 141 610 137 605 129 c 0
 580 93 570 68 539 38 c 0
 532 31 522 36 513 40 c 0
 505 44 497 49 497 58 c 0
 498 77 508 86 515 104 c 0
 521 119 523 128 528 144 c 0
 538 172 545 187 553 216 c 0
 562 247 562 265 571 296 c 0
 577 316 582 326 590 346 c 0
 593 354 598 358 599 367 c 0
 600 373 599 383 593 382 c 0
 582 380 581 370 574 362 c 0
 509 283 471 240 410 158 c 0
 368 101 354 60 309 6 c 0
 302 -3 291 2 280 3 c 0
 270 4 260 1 254 10 c 0
 248.6 17.2 247.52 24.04 247.52 31.6 c 0
 247.52 36.64 248 42 248 48 c 0
 249 69 252 80 257 101 c 0
 267 142 273 164 285 204 c 0
 295 237 302 255 313 288 c 0
 325 324 330 344 342 380 c 0
 358 428 369 454 386 502 c 0
 396 529 402 543 411 570 c 0
 427 621 434 650 450 701 c 0
 454 713 458 720 463 732 c 0
 470 750 471 761 480 778 c 0
 484 785 487 791 494 794 c 0
 499 796 504 796 508 792 c 0
 516 784 518 778 521 767 c 0
 523.666666667 756.333333333 525.888888889 748.777777778 525.888888889 740.185185185 c 0
 525.888888889 735.888888889 525.333333333 731.333333333 524 726 c 0
 519 705 507 698 498 678 c 0
 491 661 490 651 484 634 c 0
 480 624 478 619 473 609 c 0
 468 598 462 592 459 580 c 0
 454 564 458 553 453 537 c 0
 450 527 441 524 437 514 c 0
 432 502 433 494 428 481 c 0
 424 469 419 462 414 450 c 0
 410 439 407 433 404 422 c 0
 400 409 400 401 396 387 c 0
 389 366 383 354 375 333 c 2
EndSplineSet
Validated: 1
EndChar

StartChar: i
Encoding: 105 105 30
Width: 1000
Flags: HMW
HStem: 593 54
VStem: 476 67
LayerCount: 2
Fore
SplineSet
506 431 m 0
 523 424 541 419 543 401 c 0
 543.086196946 400.181129015 543.127814411 399.388262727 543.127814411 398.619319719 c 0
 543.127814411 381.546725531 522.612113744 376.267325961 514 360 c 0
 508 350 508 342 504 331 c 0
 497 309 496 295 487 274 c 0
 479 256 469 250 462 231 c 0
 455 212 460 198 452 179 c 0
 446 165 435 163 428 150 c 0
 421 136 421 126 416 111 c 0
 408 85 407 70 396 45 c 0
 394 41 389 39 385 40 c 0
 378 41 371 42 369 49 c 0
 365.696938457 58.9091846299 364.212246173 67 364.212246173 75.4413464563 c 0
 364.212246173 82.3336769763 365.202041029 89.4596948871 367 98 c 0
 372 122 383 132 392 156 c 0
 400 179 402 193 410 217 c 0
 418 241 421 255 431 277 c 0
 435 286 444 287 447 297 c 0
 454 320 448 335 454 358 c 0
 458 371 467 375 472 387 c 0
 476 397 473 403 476 413 c 0
 478 418 478 422 483 425 c 0
 491 430 497 434 506 431 c 0
569 647 m 0
 586 642 597 639 608 625 c 0
 615 616 616 604 609 595 c 0
 603 587 593 590 583 593 c 0
 569 598 562 605 551 615 c 0
 547 619 545 624 546 629 c 0
 547 635 550 637 555 641 c 0
 560 645 563 649 569 647 c 0
EndSplineSet
Validated: 1
EndChar

StartChar: j
Encoding: 106 106 31
Width: 1000
Flags: HMW
HStem: -20 20G<426.5 433> 348 57
VStem: 528 48 536 46 547 19
LayerCount: 2
Fore
SplineSet
541 373 m 0xc8
 538 377 532 374 530 378 c 0
 527 383 527 388 530 392 c 0
 535 400 540 404 549 407 c 0
 555 409 561 410 566 405 c 0xc8
 574 397 576 390 576 379 c 0xe0
 576 374 568 377 566 373 c 0
 564 369 567 365 566 360 c 0
 565 355 565 350 560 348 c 0
 555 346 550 349 547 353 c 0
 542 359 546 366 541 373 c 0xc8
530 248 m 0
 537 257 547 262 557 256 c 0
 571 248 573 235 576 220 c 0xe0
 577.727457514 210.671729424 578.261271243 202.656467012 578.261271243 195.046946436 c 0
 578.261271243 182.734483506 576.863728757 171.484266494 576.863728757 157.453053564 c 0
 576.863728757 155.056236254 576.904508497 152.578270576 577 150 c 0
 577.825693909 127.706264445 582.742010411 113.593774076 582.742010411 94.1521202491 c 0
 582.742010411 90.0479375321 582.522918272 85.7062644453 582 81 c 0
 579 49 572 32 563 0 c 0
 557 -21 556 -33 546 -52 c 0
 530 -81 520 -97 498 -122 c 0
 482 -140 471 -149 450 -161 c 0
 432 -172 421 -177 400 -180 c 0
 393.25 -181.125 387.484375 -181.6875 382.017578125 -181.6875 c 0
 372.90625 -181.6875 364.625 -180.125 354 -177 c 0
 346 -175 342 -170 339 -162 c 0
 335 -152 334 -145 338 -135 c 0
 353 -97 367 -78 387 -43 c 0
 395 -29 400 -20 411 -9 c 0
 417 -3 422 0 431 0 c 0
 435 0 435 -5 433 -9 c 0
 426 -26 419 -34 411 -51 c 0
 402 -71 398 -82 390 -102 c 0
 387 -109 383 -111 382 -119 c 0
 381 -130 378 -138 386 -146 c 0
 391 -151 396 -142 401 -138 c 0
 440 -108 467 -96 498 -58 c 0
 518 -34 520 -13 527 17 c 0
 535 53 534 74 536 110 c 0xd0
 537 125.5 537.25 137.5 537.25 149.5 c 0
 537.25 161.5 537 173.5 537 189 c 0
 537 195 539 198 537 204 c 0
 535 210 529 211 528 217 c 0xe0
 526 229 523 238 530 248 c 0
EndSplineSet
Validated: 1
EndChar

StartChar: k
Encoding: 107 107 32
Width: 1000
Flags: W
VStem: 262.362 48.6383<15.4204 130.175>
LayerCount: 2
Fore
SplineSet
550 799 m 0
 557 795 562 788 561 780 c 0
 558 760 549 750 541 731 c 0
 505 643 481 594 450 505 c 0
 448 500 453 494 458 495 c 0
 475 500 483 506 496 518 c 0
 584 601 625 658 715 737 c 0
 722 743 731 736 739 731 c 0
 747 726 761 721 755 714 c 0
 692 637 645 603 577 531 c 0
 572 525 566 522 567 514 c 0
 570 494 582 485 587 465 c 0
 619 325 640 245 661 103 c 0
 663 91 655 82 644 77 c 0
 635 73 625 78 621 87 c 0
 594 146 579 181 567 245 c 0
 552 327 561 376 553 459 c 0
 552 468 552 487 545 481 c 0
 495 441 478 406 431 363 c 0
 425 358 414 367 411 359 c 0
 368 256 354 194 317 88 c 0
 315 83 311 80 311 75 c 0
 312 61 318 54 320 41 c 0
 321 31 324 24 319 15 c 0
 313 6 306 2 295 0 c 0
 289 -1 284 2 281 7 c 0
 272 20 268 28 265 43 c 0
 263.394448725 49.9573888603 262.36174076 55.4826694439 262.36174076 60.955435713 c 0
 262.36174076 65.7086267572 263.140735034 70.4222051019 265 76 c 0
 337 315 381 448 459 686 c 0
 467 712 473 726 485 750 c 0
 491 764 494 772 505 783 c 0
 513 791 519 791 530 795 c 0
 537 798 543 802 550 799 c 0
EndSplineSet
Validated: 1
EndChar

StartChar: AE
Encoding: 198 198 33
Width: 1000
Flags: HMW
HStem: 392 52 756 30
VStem: 415 39 430 75<367.5 473.5>
LayerCount: 2
Fore
SplineSet
535 444 m 0xc0
 545 448 551 437 561 437 c 0
 575 437 583 440 595 446 c 0
 624 461 639 472 666 491 c 0
 685 504 697 512 714 528 c 0
 721 535 720 544 729 549 c 0
 740.834192463 555.762395693 749.810260206 558.237604307 761.968131446 558.237604307 c 0
 764.193176311 558.237604307 766.524791386 558.154700538 769 558 c 0
 778 558 788 555 789 546 c 0
 789.430500874 542.555993008 789.675670746 539.250984267 789.675670746 536.075000634 c 0
 789.675670746 524.496154139 786.416994756 514.632245193 777 506 c 0
 745 477 720 469 682 449 c 0
 635 424 611 402 559 392 c 0
 555.333333333 391.333333333 551.694444444 391 548.134259259 391 c 0
 530.333333333 391 514.5 399.333333333 507 416 c 0
 506.25 417.75 505.90625 419.40625 505.90625 420.9765625 c 0
 505.90625 431.96875 522.75 438.75 535 444 c 0xc0
499 636 m 0
 497 643 507 644 514 648 c 0
 519 651 525 649 529 654 c 0
 536 662 533 671 541 678 c 0
 574 707 596 720 633 743 c 0
 668 765 687 782 726 794 c 0
 731.101668034 795.594271261 735.898331966 796.375198248 740.519660935 796.375198248 c 0
 750.39187859 796.375198248 759.46395953 792.811457479 769 786 c 0
 777 781 774 770 771 762 c 0
 769 756 762 757 757 756 c 0
 746 754 739 758 729 753 c 0
 697 736 682 720 652 699 c 0
 633 686 621 682 604 666 c 0
 581 644 574 626 550 605 c 0
 544 600 536 599 529 603 c 0
 514 612 505 619 499 636 c 0
403 579 m 0
 382 526 383 492 366 438 c 0
 350 389 332 365 319 315 c 0
 318 310 329 313 333 315 c 0
 366 331 383 344 415 362 c 0xe0
 421 365 430 364 430 371 c 0xd0
 430.099019514 378.426463519 430.149014707 385.539171389 430.149014707 392.400259471 c 0
 430.149014707 454.829433819 426.009804864 496.426463519 417 564 c 0
 416 572 406 586 403 579 c 0
387 687 m 0
 390 693 398 690 405 689 c 0
 413 688 419 688 426 684 c 0
 432 681 435 674 440 675 c 0
 447 676 452 676 461 675 c 0
 473 674 477 669 481 660 c 0
 494 627 495 605 499 570 c 0
 504 523 505 497 505 450 c 0xd0
 505 404.545454545 500.867768595 376.446280992 500.867768595 334.147257701 c 0
 500.867768595 329.917355372 500.909090909 325.545454545 501 321 c 0
 502 281 506 259 508 219 c 0
 508 210 503 205 508 197 c 0
 513 189 522 181 529 186 c 0
 621 251 664 297 751 369 c 0
 759 376 762 384 772 387 c 0
 781 389 790 388 795 380 c 0
 798.358898944 373.842018604 801.091008881 367.057248201 801.091008881 360.698349257 c 0
 801.091008881 355.698349257 799.401835094 350.961651585 795 347 c 0
 704 263 648 221 547 149 c 0
 540.294270235 144.123105626 533.960167013 142.590850136 527.091498636 142.590850136 c 0
 522.692884436 142.590850136 518.075046642 143.219223594 513 144 c 0
 500 146 491 150 481 158 c 0
 472 165 470 194 465 183 c 0
 451 152 460 130 454 96 c 0
 452 87 450 82 444 74 c 0
 440 69 436 65 429 66 c 0
 422 67 415 71 415 78 c 0
 414.85594486 84.4824812861 414.789709283 90.7626317102 414.789709283 96.8695980731 c 0
 414.789709283 166.707127872 423.45170591 213.896410109 423.45170591 282.026847162 c 0
 423.45170591 290.652730063 423.312856903 299.614292907 423 309 c 0
 423 316 414 321 408 318 c 0
 364 296 338 284 303 249 c 0
 282 228 283 206 270 179 c 0
 256 151 248 135 232 108 c 0
 218 84 211 69 193 48 c 0
 187 41 181 40 171 39 c 0
 164 38 159 38 153 42 c 0
 146 46 143 51 142 59 c 0
 141.868517092 61.3666923472 141.806185204 63.5777948981 141.806185204 65.6742224506 c 0
 141.806185204 79.5222821435 144.525931633 88.3666923472 148 104 c 0
 160 150 166 176 183 221 c 0
 203 275 219 303 241 356 c 0
 252 382 255 397 267 422 c 0
 281 453 293 469 307 501 c 0
 340 573 350 617 387 687 c 0
EndSplineSet
Validated: 1
EndChar

StartChar: germandbls
Encoding: 223 223 34
Width: 1000
Flags: HMW
HStem: 346 34
VStem: 307 55 383 44 688 46
LayerCount: 2
Fore
SplineSet
438 714 m 0
 519 714 561 746 641 756 c 0
 644.486564962 756.550510257 647.703741886 756.797958971 650.750398024 756.797958971 c 0
 664.306463258 756.797958971 674.486564962 751.898979486 690 747 c 0
 699 744 705 743 712 735 c 0
 723 722 730 713 734 696 c 0
 734.716117819 692.419410907 735.033371958 689.180704968 735.033371958 686.134264693 c 0
 735.033371958 676.418390461 731.806470302 668.658116847 728 658 c 0
 722 642 716 633 707 619 c 0
 698 605 693 598 682 585 c 0
 649 546 629 527 596 488 c 0
 573 461 562 444 539 418 c 0
 530 408 522 404 515 394 c 0
 512 390 510 385 514 382 c 0
 522 377 529 381 539 380 c 0
 571 378 591 381 622 374 c 0
 649 368 665 361 688 345 c 0
 708 331 718 319 730 298 c 0
 740 279 741 265 743 244 c 0
 744.150342396 231.92140484 745.962328607 222.15856303 745.962328607 212.237844545 c 0
 745.962328607 204.910275011 744.973801613 197.496576038 742 189 c 0
 729 151 716 132 692 100 c 0
 680 84 669 79 652 68 c 0
 624 50 608 37 577 26 c 0
 568.406586177 23.1355287257 561.180704968 21.8665121672 554.016603742 21.8665121672 c 0
 546.174582289 21.8665121672 538.406586177 23.3870593953 529 26 c 0
 494 36 475 45 443 64 c 0
 432.561463311 70.6427051658 423.923968741 77.2854103316 423.923968741 88.2008982791 c 0
 423.923968741 88.7880156295 423.948957881 89.3874945699 424 90 c 0
 425 100 436 105 446 104 c 0
 464 102 470 89 487 82 c 0
 501.819836065 75.5163217216 510.634231556 69.8905635253 526.157421444 69.8905635253 c 0
 527.393596311 69.8905635253 528.672315573 69.9262397541 530 70 c 0
 553 71 565 78 586 88 c 0
 604 96 614 103 629 116 c 0
 641 126 645 135 655 147 c 0
 671 167 683 175 694 198 c 0
 700.4 211.6 701.04 222 701.04 235.344 c 0
 701.04 238.68 701 242.2 701 246 c 0
 701 248.666666667 701.027777778 251.194444444 701.027777778 253.615740741 c 0
 701.027777778 265.722222222 700.333333333 275.166666667 692 286 c 0
 674 310 662 325 635 338 c 0
 619.858449268 344.98840803 607.430112247 346.211236925 594.159793096 346.211236925 c 0
 587.015517564 346.211236925 579.627204553 345.856816005 571.440108277 345.856816005 c 0
 568.721580549 345.856816005 565.914981056 345.895893534 563 346 c 0
 556.045517328 346.366025404 550.296806022 346.598076211 544.87118018 346.598076211 c 0
 535.473720558 346.598076211 527.045517328 345.901923789 515 344 c 0
 499 341 492 331 476 330 c 0
 469 329 465 334 460 339 c 0
 452 347 445 351 442 362 c 0
 440 368 445 373 448 378 c 0
 461 398 469 408 484 426 c 0
 507 454 522 468 545 496 c 0
 581 538 600 563 635 606 c 0
 649 624 657 633 670 652 c 0
 678 663 686 667 688 680 c 0
 688.183012702 682.196152423 688.299038106 684.392304845 688.299038106 686.551678689 c 0
 688.299038106 696.191342951 685.986860279 705.098076211 677 710 c 0
 669.783914453 714.329651328 663.262120782 715.882135156 656.432605072 715.882135156 c 0
 649.065679376 715.882135156 641.340697344 714.075710521 632 712 c 0
 560 697 520 684 449 664 c 0
 439 661 427 663 424 652 c 0
 422.291318259 644.677078252 421.655140176 638.069158943 421.655140176 631.812637427 c 0
 421.655140176 613.56817924 427.064859824 598.31182076 427.064859824 577.027362573 c 0
 427.064859824 575.70875874 427.044097392 574.36701914 427 573 c 0
 426 542 423 525 419 494 c 0
 412 442 406 412 397 360 c 0
 387 303 383 270 370 213 c 0
 369 208 362 207 362 202 c 0
 362 187 367 179 370 164 c 0
 373 152 376 144 377 132 c 0
 377 123 377 118 373 110 c 0
 369 102 366 96 359 92 c 0
 350 87 343 83 332 86 c 0
 320 89 309 93 307 106 c 0
 305.981074633 113.540047714 305.543546252 120.457170087 305.543546252 127.00525289 c 0
 305.543546252 152.58946857 312.22271044 172.540047714 317 202 c 0
 335 310 352 369 370 477 c 0
 378 522 380 547 383 592 c 0
 383.333333333 598.333333333 383.555555556 603.666666667 383.555555556 608.666666667 c 0
 383.555555556 618.666666667 382.666666667 627.333333333 380 640 c 0
 377 652 367 657 365 669 c 0
 363.5 677.5 362 684.75 362 691.875 c 0
 362 699 363.5 706 368 714 c 0
 374 725 385 724 397 726 c 0
 403 727 407 724 413 722 c 0
 423 719 428 714 438 714 c 0
EndSplineSet
Validated: 1
EndChar

StartChar: ae
Encoding: 230 230 35
Width: 1000
Flags: HMW
HStem: 70 41
VStem: 148 50<201 201> 460 57 838 35
LayerCount: 2
Fore
SplineSet
516 502 m 0
 505.197625367 509.478567054 495.776212837 513.504728849 484.293223181 513.504728849 c 0
 481.957134107 513.504728849 479.535721577 513.33809621 477 513 c 0
 450 510 435 502 412 489 c 0
 381 472 365 459 339 436 c 0
 318 417 308 405 291 382 c 0
 274 360 268 345 253 322 c 0
 241 303 232 293 223 273 c 0
 217 259 218 250 213 236 c 0
 210 229 205 227 202 220 c 0
 199 213 196 208 198 201 c 0
 203 187 208 179 219 170 c 0
 230 161 239 158 253 156 c 0
 259.977245269 155.179147615 265.943792583 154.52674489 271.729275767 154.52674489 c 0
 280.040074187 154.52674489 287.977245269 155.872983346 298 160 c 0
 322 170 333 181 354 196 c 0
 370 208 381 213 394 228 c 0
 410 246 417 257 429 278 c 0
 440 297 445 307 451 328 c 0
 458 353 458 368 460 393 c 0
 460.190983006 395.864745084 460.272542486 398.629185271 460.272542486 401.310735587 c 0
 460.272542486 417.008804565 457.477457514 429.866195435 457.477457514 443.376764413 c 0
 457.477457514 451.726755249 458.545084972 460.326237921 462 470 c 0
 466 482 480 478 492 480 c 0
 504 482 513 472 522 480 c 0
 529 486 523 497 516 502 c 0
588 498 m 0
 571 490 563 479 552 464 c 0
 542 451 537 442 534 426 c 0
 524.14145665 377.603514463 516.692604465 347.681327858 516.692604465 302.399073333 c 0
 516.692604465 297.156135435 516.792462427 291.70728325 517 286 c 0
 517 274 529 268 540 267 c 0
 543.406586177 266.621490425 546.634085481 266.422067723 549.729948179 266.422067723 c 0
 562.992259227 266.422067723 573.838821814 270.081802664 586 279 c 0
 615 300 623 321 648 346 c 0
 657 355 666 356 673 368 c 0
 685 387 694 400 694 422 c 0
 694 445 686 459 672 478 c 0
 662 492 651 496 634 500 c 0
 625.890439656 501.908131846 618.691121097 503.133582353 611.642167488 503.133582353 c 0
 603.914461664 503.133582353 596.367472617 501.66076927 588 498 c 0
492 561 m 0
 506 558 507 544 520 538 c 0
 527.857142857 534.428571429 534.693877551 533.918367347 542.332361516 533.918367347 c 0
 545.387755102 533.918367347 548.571428571 534 552 534 c 0
 564 534 570 537 582 538 c 0
 601 540 611 543 630 543 c 0
 644 543 652 543 666 540 c 0
 683 536 695 536 708 526 c 0
 720 517 721 506 726 492 c 0
 733 475 736 465 739 447 c 0
 740.097167541 439.319827215 740.893390928 433.144375196 740.893390928 426.82271316 c 0
 740.893390928 421.620771368 740.354248689 416.319827215 739 410 c 0
 734 388 730 376 717 357 c 0
 703 335 689 328 672 308 c 0
 658 292 652 280 636 266 c 0
 617 250 605 241 582 232 c 0
 576.07565719 229.505539869 570.345762234 228.955558284 564.749684831 228.955558284 c 0
 560.3355633 228.955558284 556.004701351 229.297749845 551.727343196 229.297749845 c 0
 544.036238163 229.297749845 536.518119082 228.191392185 529 222 c 0
 525.614261501 219.291409201 524.406535787 216.124289395 524.406535787 212.653886512 c 0
 524.406535787 205.874227603 529.01572155 197.937113801 531 190 c 0
 536 173 540 164 550 150 c 0
 558 137 563 129 577 122 c 0
 592.816233816 114.091883092 604.772077939 110.816233816 621.008442503 110.816233816 c 0
 623.250216638 110.816233816 625.573593129 110.878679656 628 111 c 0
 645 112 653 121 669 128 c 0
 694 140 709 144 732 160 c 0
 756 177 769 188 789 210 c 0
 802 224 808 234 816 252 c 0
 827 276 822 295 838 316 c 0
 844 324 855 322 864 318 c 0
 871 315 873 309 873 302 c 0
 871 278 869 263 859 242 c 0
 845 212 837 194 813 171 c 0
 777 135 751 120 708 94 c 0
 686 81 671 73 646 70 c 0
 639.124611797 68.98142397 633.027346442 68.546440075 627.311915292 68.546440075 c 0
 610.582556928 68.546440075 597.124611797 72.2732200375 577 76 c 0
 568 78 564 90 555 86 c 0
 540 78 541 63 528 51 c 0
 518 41 512 32 498 30 c 0
 493.803847577 29.3544380888 489.190944973 28.8130637229 484.766627786 28.8130637229 c 0
 475.484073144 28.8130637229 467.031657133 31.1961524227 465 40 c 0
 459.30189805 64.3119016527 457.932911544 84.8719032539 457.932911544 104.640133742 c 0
 457.932911544 122.924770218 459.104125493 140.532019906 459.104125493 159.804310703 c 0
 459.104125493 174.545899163 458.41886117 190.261684754 456 208 c 0
 455 214 446 216 442 213 c 0
 430 204 432 191 420 182 c 0
 393 162 375 155 345 140 c 0
 325 130 313 122 291 117 c 0
 274.313082304 113.291796068 261.44582472 110.729490169 247.676867699 110.729490169 c 0
 239.16718427 110.729490169 230.313082304 111.708203932 220 114 c 0
 197 119 183 124 168 142 c 0
 153 161 148 177 148 201 c 0
 148 230 157 245 168 272 c 0
 180 302 190 317 207 344 c 0
 229 379 242 399 270 429 c 0
 309 470 334 491 378 525 c 0
 397 540 409 548 432 555 c 0
 447.273591889 559.859779237 459.173261744 562.791603027 472.718351274 562.791603027 c 0
 478.683536199 562.791603027 484.967846066 562.222983293 492 561 c 0
EndSplineSet
Validated: 1
EndChar

StartChar: L
Encoding: 76 76 36
Width: 1000
VWidth: 0
HStem: 25.9098 38.1185<122.565 276.024> 98.5464 38.5438<391.173 483.995>
VStem: 59.8197 38.788<88.7232 276.375>
LayerCount: 2
Back
Fore
SplineSet
129 476 m 24
 149 537 157 572 181 632 c 24
 201 683 206 717 242 759 c 16
 244.1626633 761.37892963 246.699495605 762.401496621 249.377851461 762.401496621 c 0
 259.084020998 762.401496621 270.64879899 748.97227138 273 738 c 0
 276.538942326 723.45101488 277.913223183 711.221309906 277.913223183 699.426131309 c 0
 277.913223183 681.224605359 274.640705116 664.057799066 271 641 c 8
 270 634 264 628 257 629 c 24
 248 630 249 643 241 645 c 24
 235 646 230 642 227 636 c 24
 219 618 221 607 215 588 c 24
 203 551 194 531 180 494 c 24
 165 456 154 435 141 396 c 24
 132 370 129 354 123 327 c 24
 117 300 116 285 111 258 c 24
 107 235 104 222 101 199 c 16
 99.5358983849 187.287187079 98.6076951546 179.861561237 98.6076951546 170.446244947 c 0
 98.6076951546 167 98.7320508076 163.287187079 99 159 c 8
 100 143 100 134 104 119 c 24
 108 105 111 97 120 86 c 24
 128 76 134 70 147 66 c 16
 151.674953358 64.5615528128 155.832624139 64.0283501364 159.891559406 64.0283501364 c 0
 167.119615564 64.0283501364 174.034565155 65.7192235936 183 67 c 8
 210 70 226 72 253 78 c 24
 285 85 303 88 333 99 c 24
 352 106 360 115 379 123 c 24
 395 130 404 133 421 136 c 16
 425.583592135 136.763932023 429.583592135 137.090169944 433.44582472 137.090169944 c 0
 439.695048315 137.090169944 445.583592135 136.236067977 453 135 c 8
 463 133 468 131 478 126 c 24
 489 120 495 116 505 108 c 24
 509 104 514 102 514 96 c 24
 514 88 512 82 505 78 c 24
 498 74 492 76 485 79 c 24
 474 83 472 93 461 96 c 16
 454.861739379 97.7537887488 449.684658438 98.5463978178 444.625904123 98.5463978178 c 0
 438.146770951 98.5463978178 431.861739379 97.2462112512 424 95 c 8
 407 91 400 83 384 76 c 24
 360 66 347 59 322 52 c 24
 293 43 275 41 245 35 c 24
 229 32 220 29 204 28 c 16
 189.16718427 26.7639320225 178.535994664 25.9098300563 166.912935676 25.9098300563 c 0
 159.729490169 25.9098300563 152.16718427 26.2360679775 143 27 c 8
 127 28 117 28 104 36 c 24
 90 44 86 54 77 67 c 24
 69 78 64 85 62 98 c 16
 60.472135955 108.695048315 59.8196601125 117.785218259 59.8196601125 126.496527811 c 0
 59.8196601125 140.591722754 61.527864045 153.695048315 64 171 c 8
 74 249 81 293 97 369 c 24
 106 412 116 435 129 476 c 24
EndSplineSet
Validated: 1
EndChar

StartChar: l
Encoding: 108 108 37
Width: 1000
VWidth: 0
HStem: 25.7445 21G<211.955 218.61>
VStem: 154 39.468<78.7918 378.489> 161 78<37.2161 68.9722> 192 63.8584<573.054 738.812>
LayerCount: 2
Back
Fore
SplineSet
158 90 m 24xa0
 156 120 154 138 154 168 c 24xc0
 154 194 157 208 159 234 c 24
 161 267 162 285 165 318 c 24
 168 355 172 375 175 412 c 24
 181 482 186 522 190 592 c 24
 192 627 191 647 192 682 c 16
 192 690.909090909 189.165289256 698.603305785 189.165289256 706.113448535 c 0
 189.165289256 710.404958678 190.090909091 714.636363636 193 719 c 0
 202.494897428 733.242346142 212.891325627 742.075507654 228.469255701 742.075507654 c 0
 229.297958971 742.075507654 230.141325627 742.050510257 231 742 c 8
 245 741 253 729 255 715 c 16
 255.595363412 710.237092704 255.858422831 705.784335801 255.858422831 701.549403194 c 0x90
 255.858422831 677.331578899 247.255795735 660.237092704 243 633 c 8
 239 607 237 593 233 567 c 24
 229 537 226 520 223 490 c 24
 218 438 216 408 211 356 c 24
 207 314 203 290 200 248 c 16
 196.734013676 208.808164115 193.468027353 182.949661564 193.468027353 148.651250188 c 0xc0
 193.468027353 140.942858135 193.632993162 132.808164115 194 124 c 8
 195 105 198 95 207 78 c 24
 211 70 219 70 225 64 c 24
 231 58 242 55 239 47 c 16
 233.516685226 35.1194846573 224.692621463 25.7445310568 212.527808711 25.7445310568 c 0
 211.381535099 25.7445310568 210.205598862 25.8277715912 209 26 c 8
 186 30 175 42 161 60 c 24
 153 70 159 78 158 90 c 24xa0
EndSplineSet
Validated: 1
EndChar

StartChar: M
Encoding: 77 77 38
Width: 1000
VWidth: 0
VStem: 351 41<169.215 392.41> 385.273 39.7275<443.463 670.626> 608.951 42.953<77.2813 359.268> 687 55.606<666 746.327>
LayerCount: 2
Back
Fore
SplineSet
208 442 m 24x70
 220 488 217 516 234 560 c 24
 245 587 256 602 277 622 c 24
 284 628 294 615 300 622 c 24
 318 645 317 665 331 691 c 24
 342 712 347 726 363 743 c 24
 369 750 376 752 385 751 c 24
 396 749 403 746 408 736 c 24
 419 714 419 699 422 676 c 24
 425 650 425 636 425 610 c 24x70
 425 573 422 552 420 515 c 24
 418 485 417 468 415 438 c 24
 413 410 411 394 408 366 c 24
 406 344 403 331 401 309 c 24
 398 282 396 266 394 239 c 24
 393 227 392 221 392 209 c 24
 392 197 389 189 393 178 c 24
 395 172 404 165 407 170 c 24
 417 188 411 202 418 221 c 24
 429 249 440 261 453 289 c 24
 469 323 475 343 491 378 c 24
 507 414 517 434 534 469 c 24
 546 494 554 507 567 531 c 24
 617 625 640 681 695 773 c 24
 700 781 707 784 717 782 c 24
 729 779 738 774 741 762 c 16
 742.142168217 756.289158913 742.605971352 751.15231905 742.605971352 746.327238029 c 0
 742.605971352 730.029856758 737.31469907 717.289158913 735 698 c 8
 729 653 723 627 716 582 c 24
 713 562 712 550 709 530 c 24
 706 510 703 500 699 480 c 24
 693 449 689 432 682 401 c 24
 677 377 674 364 669 340 c 24
 666 325 664 316 662 301 c 24
 659 280 658 268 657 247 c 24
 655 210 656 189 655 152 c 16
 654.264110106 136.546312219 651.903618401 126.507963803 651.903618401 113.914767726 c 0
 651.903618401 109.395082958 652.207669683 104.546312219 653 99 c 8
 655 89 658 83 667 77 c 24
 674 72 682 70 689 76 c 24
 709 95 711 115 729 136 c 24
 733 140 739 140 743 137 c 24
 748 132 746 127 747 120 c 24
 748 114 749 110 747 105 c 24
 739 86 734 76 721 60 c 24
 710 45 702 38 687 27 c 24
 680 22 675 20 667 21 c 24
 653 23 644 25 632 34 c 24
 622 42 617 50 615 63 c 16
 609.555555556 96.4444444444 608.950617284 119 608.950617284 147.604938272 c 0
 608.950617284 155.777777778 609 164.444444444 609 174 c 8
 609 214 613 236 617 276 c 24
 621 319 623 344 630 387 c 24
 636 422 641 441 649 476 c 24
 654 501 658 516 663 541 c 24
 668 564 671 578 676 601 c 24
 680 617 683 625 686 641 c 24
 688 651 688 656 687 666 c 24
 687 671 688 681 684 679 c 24
 675 674 675 665 670 656 c 24
 653 624 645 606 629 574 c 24
 599 511 583 476 553 413 c 24
 541 388 533 373 522 348 c 24
 517 337 516 330 511 318 c 24
 503 300 496 291 488 273 c 24
 476 245 469 229 459 201 c 24
 454 186 454 176 448 162 c 24
 444 150 440 144 433 134 c 24
 427 126 425 121 416 116 c 24
 408 112 401 109 392 112 c 24
 381 115 375 121 368 130 c 24
 358 144 351 153 351 170 c 24xb0
 351 287 358 353 368 470 c 24
 370 496 377 510 381 536 c 24
 383 552 382 562 383 578 c 16
 383.809016994 599.843458848 385.272542486 613.178307233 385.272542486 631.771766081 c 0
 385.272542486 636.161086306 385.190983006 640.843458848 385 646 c 8
 385 656 388 663 381 671 c 24
 377 676 369 674 365 669 c 24
 353 656 351 646 344 629 c 24
 338 614 340 604 334 590 c 24
 327 575 318 569 311 554 c 24
 306 543 308 536 304 525 c 24
 299 512 290 507 286 494 c 24
 278 468 283 451 275 425 c 24
 269 405 258 397 251 377 c 24
 245 360 247 349 240 332 c 24
 232 312 221 304 212 285 c 24
 200 261 195 247 187 221 c 24
 180 199 180 186 172 163 c 24
 166 146 159 137 153 120 c 24
 144 94 140 79 132 53 c 24
 126 32 127 19 116 0 c 24
 107 -15 99 -24 84 -32 c 24
 75 -37 67 -34 57 -30 c 24
 52 -28 49 -24 50 -18 c 24
 52 4 57 16 64 38 c 24
 72 63 79 76 88 101 c 24
 99 131 104 148 117 177 c 24
 132 212 147 228 160 264 c 24
 166 282 161 293 166 312 c 24
 172 338 180 352 188 378 c 24
 196 403 202 417 208 442 c 24x70
EndSplineSet
Validated: 1
EndChar

StartChar: m
Encoding: 109 109 39
Width: 1000
VWidth: 0
VStem: 156.19 52.6504<268.326 397.865 398.711 451.585> 384.7 61.9043<190.492 343.682> 392.711 60.1602<243.153 412.948> 711.231 66.9912<103.836 208.74> 744.858 66.125<218.113 446.833>
LayerCount: 2
Back
Fore
SplineSet
144.850585938 359.399414062 m 28xa0
 148.090820312 381.83984375 151.330078125 394.759765625 156.190429688 417.19921875 c 28
 158.620117188 428.080078125 157.810546875 435.559570312 163.48046875 445.759765625 c 28
 165.91015625 450.51953125 169.9609375 454.599609375 176.440429688 453.919921875 c 28
 186.16015625 453.239257812 192.640625 449.83984375 198.310546875 443.040039062 c 28
 208.030273438 430.799804688 212.890625 422.639648438 214.510742188 408.359375 c 20
 214.923828125 404.884765625 215.102539062 401.647460938 215.102539062 398.56640625 c 4
 215.102539062 383.5546875 210.856445312 372.245117188 208.840820312 355.319335938 c 12
 203.98046875 316.559570312 200.740234375 294.799804688 196.690429688 256.040039062 c 28
 195.880859375 249.919921875 192.640625 245.83984375 196.690429688 240.399414062 c 28
 199.120117188 237.6796875 204.790039062 238.359375 208.030273438 241.080078125 c 28
 212.890625 244.479492188 212.890625 249.239257812 216.130859375 254 c 28
 220.180664062 260.119140625 224.23046875 263.51953125 229.090820312 270.319335938 c 28
 238.810546875 284.599609375 243.670898438 292.759765625 252.580078125 307.040039062 c 28
 268.780273438 331.51953125 277.690429688 345.119140625 293.080078125 369.599609375 c 28
 307.66015625 392.719726562 314.140625 405.639648438 327.91015625 428.080078125 c 28
 341.680664062 450.51953125 347.350585938 464.799804688 364.360351562 485.879882812 c 28
 373.270507812 497.439453125 378.940429688 504.239257812 392.7109375 509.6796875 c 28
 400 512.399414062 406.48046875 509 412.9609375 505.599609375 c 28
 424.30078125 499.479492188 433.2109375 496.080078125 438.880859375 485.19921875 c 28
 447.790039062 468.879882812 445.360351562 458 447.790039062 440.319335938 c 28
 451.030273438 420.599609375 451.840820312 409.719726562 452.650390625 390 c 20
 452.805664062 385.713867188 452.87109375 381.80078125 452.87109375 378.1171875 c 4xa0
 452.87109375 362.51171875 451.685546875 351.034179688 451.030273438 332.879882812 c 4
 449.671875 294.676757812 446.604492188 270.33984375 446.604492188 236.614257812 c 4
 446.604492188 230.120117188 446.71875 223.276367188 446.98046875 215.919921875 c 12
 446.98046875 205.040039062 448.600585938 198.919921875 455.080078125 190.080078125 c 28
 457.510742188 187.359375 463.180664062 189.399414062 465.610351562 192.119140625 c 28
 473.7109375 201.639648438 474.520507812 209.119140625 481 220 c 28
 490.720703125 235.639648438 496.390625 245.159179688 506.920898438 260.799804688 c 28
 530.41015625 295.479492188 541.75 315.879882812 566.860351562 349.19921875 c 28
 586.30078125 375.040039062 600.0703125 387.959960938 620.3203125 413.119140625 c 28
 644.620117188 443.040039062 655.9609375 462.080078125 681.0703125 492 c 28
 694.030273438 507.639648438 700.510742188 517.83984375 718.330078125 528.719726562 c 28
 726.430664062 533.479492188 734.530273438 533.479492188 743.440429688 530.759765625 c 28
 758.020507812 526.6796875 767.740234375 522.599609375 776.650390625 511.719726562 c 28
 792.850585938 490.639648438 800.140625 476.359375 805.810546875 451.879882812 c 20
 810.102539062 432.0625 810.983398438 416.63671875 810.983398438 400.84765625 c 4xc8
 810.983398438 389.856445312 810.556640625 378.689453125 810.556640625 365.741210938 c 4
 810.556640625 362.185546875 810.587890625 358.49609375 810.670898438 354.639648438 c 4
 811.033203125 346.428710938 811.395507812 339.713867188 811.395507812 333.157226562 c 4
 811.395507812 325.052734375 810.841796875 317.188476562 809.05078125 307.040039062 c 12
 802.5703125 264.879882812 792.850585938 241.759765625 785.560546875 199.599609375 c 28
 780.700195312 174.439453125 779.080078125 160.159179688 778.270507812 134.319335938 c 20
 778.23828125 133.82421875 778.22265625 133.336914062 778.22265625 132.856445312 c 4
 778.22265625 124.173828125 783.295898438 117.86328125 783.295898438 110.727539062 c 4
 783.295898438 108.50390625 782.802734375 106.200195312 781.510742188 103.719726562 c 12
 776.650390625 94.8798828125 766.930664062 93.51953125 755.590820312 90.7998046875 c 28
 747.490234375 88.759765625 741.8203125 87.3994140625 735.340820312 91.4794921875 c 28
 724 98.279296875 716.7109375 104.399414062 714.280273438 115.959960938 c 20
 712.092773438 126.717773438 711.231445312 135.854492188 711.231445312 144.662109375 c 4x90
 711.231445312 158.6796875 713.413085938 171.859375 715.900390625 189.399414062 c 12
 716.7109375 197.559570312 724.810546875 200.959960938 727.240234375 209.119140625 c 28
 733.720703125 234.279296875 733.720703125 248.559570312 736.9609375 273.719726562 c 28
 738.580078125 290.719726562 738.580078125 300.919921875 740.200195312 317.919921875 c 28
 741.8203125 338.319335938 743.440429688 350.559570312 744.25 370.959960938 c 20
 744.655273438 382.1796875 744.858398438 390.849609375 744.858398438 399.51953125 c 4
 744.858398438 408.189453125 744.655273438 416.859375 744.25 428.080078125 c 12
 744.25 435.559570312 745.060546875 441 740.200195312 447.119140625 c 28
 737.770507812 450.51953125 732.100585938 453.239257812 727.240234375 451.19921875 c 28
 719.140625 447.799804688 719.140625 442.359375 714.280273438 436.239257812 c 28
 696.4609375 413.799804688 687.55078125 401.559570312 670.540039062 379.119140625 c 28
 651.100585938 353.959960938 638.140625 339.6796875 618.700195312 313.83984375 c 28
 595.2109375 281.879882812 583.060546875 262.83984375 561.190429688 229.51953125 c 28
 544.990234375 205.040039062 539.3203125 189.399414062 520.690429688 166.279296875 c 28
 502.060546875 143.83984375 492.340820312 128.879882812 465.610351562 113.239257812 c 20
 457.176757812 108.51953125 449.555664062 107.211914062 441.336914062 107.211914062 c 4
 435.34765625 107.211914062 429.041015625 107.90625 421.870117188 108.479492188 c 12
 410.530273438 109.83984375 401.620117188 111.879882812 395.950195312 120.040039062 c 28
 386.23046875 135 387.850585938 145.879882812 385.420898438 162.879882812 c 20
 384.879882812 168.319335938 384.700195312 173.00390625 384.700195312 177.436523438 c 4
 384.700195312 186.301757812 385.420898438 194.159179688 385.420898438 205.040039062 c 4
 385.420898438 220 384.700195312 230.728515625 384.700195312 242.868164062 c 4xc8
 384.700195312 248.9375 384.879882812 255.359375 385.420898438 262.83984375 c 12
 387.040039062 288.6796875 392.7109375 303.639648438 394.330078125 329.479492188 c 20
 394.720703125 334.712890625 394.875 339.43359375 394.875 343.890625 c 4
 394.875 357.96484375 393.326171875 369.392578125 392.7109375 385.919921875 c 4
 392.64453125 386.8046875 392.616210938 387.666992188 392.616210938 388.509765625 c 4
 392.616210938 393.73046875 393.705078125 398.184570312 393.705078125 402.484375 c 4
 393.705078125 406.021484375 392.967773438 409.454101562 390.280273438 413.119140625 c 12
 387.040039062 417.19921875 379.75 411.759765625 377.3203125 407.6796875 c 28
 364.360351562 387.279296875 365.170898438 372.319335938 352.2109375 351.239257812 c 28
 343.30078125 336.959960938 332.770507812 331.51953125 322.240234375 317.239257812 c 28
 306.040039062 294.799804688 299.560546875 280.51953125 284.170898438 258.080078125 c 28
 270.400390625 237.6796875 258.25 228.159179688 246.91015625 207.080078125 c 28
 228.280273438 173.759765625 226.66015625 153.359375 208.030273438 120.719726562 c 28
 193.450195312 94.8798828125 180.490234375 81.9599609375 160.240234375 58.83984375 c 28
 151.330078125 48.6396484375 148.090820312 41.1591796875 135.130859375 35.0400390625 c 28
 127.030273438 30.9599609375 119.740234375 32.3193359375 110.020507812 34.359375 c 28
 97.8701171875 37.080078125 85.720703125 36.3994140625 80.05078125 46.599609375 c 20
 77.6943359375 51.05078125 76.7294921875 55.2314453125 76.7294921875 59.3720703125 c 4
 76.7294921875 66.6181640625 79.6826171875 73.73828125 83.2900390625 81.9599609375 c 12
 84.91015625 86.0400390625 94.630859375 81.9599609375 96.25 86.0400390625 c 28
 104.350585938 111.879882812 101.110351562 128.19921875 106.780273438 154.719726562 c 28
 110.020507812 169.6796875 114.880859375 178.51953125 118.930664062 193.479492188 c 28
 123.790039062 211.83984375 127.030273438 222.040039062 130.270507812 240.399414062 c 28
 137.560546875 286.639648438 138.370117188 313.159179688 144.850585938 359.399414062 c 28xa0
EndSplineSet
Validated: 524289
EndChar

StartChar: O
Encoding: 79 79 40
Width: 1000
VWidth: 0
HStem: 17.607 45.2383<259.065 465.337> 706.005 59.4687<422.427 509.724>
VStem: 101.74 47.6006<191.374 344.744> 757.394 37.2891<298.783 478.62>
LayerCount: 2
Back
Fore
SplineSet
153 188 m 1048,0,-1
156 191 m 24,1,-1
 166 174 177 169 189 154 c 24,4,-1
 198 143 200 133 210 123 c 24,7,-1
 225 107 234 99 253 88 c 24,10,-1
 268 79 278 76 295 71 c 24,13,-1
 313 66 323 65 341 64 c 16,16,-1
 351.988893001 63.1547005384 361.012825258 62.8452994616 369.808276132 62.8452994616 c 0,19,-1
 381.823085464 62.8452994616 393.411542732 63.4226497308 409 64 c 8,22,-1
 420 64 426 64 437 68 c 24,25,-1
 466 78 482 85 510 98 c 24,28,-1
 538 111 553 120 579 135 c 24,31,-1
 601 148 614 156 634 171 c 24,34,-1
 658 189 673 199 693 221 c 24,37,-1
 708 237 712 248 723 267 c 24,40,-1
 731 281 735 289 741 304 c 24,43,-1
 748 322 752 333 755 352 c 16,46,-1
 756.651530772 363.560715402 757.393876913 372.696938457 757.393876913 382.078084976 c 0,49,-1
 757.393876913 389.737759034 756.898979486 397.560715402 756 407 c 8,52,-1
 754 428 754 440 747 460 c 24,55,-1
 742 477 735 484 726 500 c 24,58,-1
 716 518 711 529 698 546 c 24,61,-1
 684 564 673 571 657 587 c 24,64,-1
 640 604 632 615 614 631 c 24,67,-1
 597 646 586 655 567 667 c 24,70,-1
 555 675 547 678 533 682 c 24,73,-1
 530 683 528 680 525 680 c 24,76,-1
 521 679 516 676 514 679 c 24,79,-1
 509 687 520 701 510 704 c 16,82,-1
 505.484603228 705.42591477 501.421035996 706.004649152 497.581119199 706.004649152 c 0,85,-1
 485.26333761 706.004649152 475.246950766 700.049390153 460 697 c 8,88,-1
 445 694 435 692 422 684 c 24,91,-1
 407 675 401 666 389 653 c 24,94,-1
 377 640 372 632 361 619 c 24,97,-1
 345 599 335 589 319 569 c 24,100,-1
 299 543 289 528 270 502 c 24,103,-1
 250 476 238 462 219 435 c 24,106,-1
 206 417 198 407 187 387 c 24,109,-1
 180 374 176 366 172 351 c 24,112,-1
 167 334 167 324 162 306 c 24,115,-1
 158 291 152 283 150 267 c 16,118,-1
 149.535183758 262.351837585 149.34043519 258.189796981 149.34043519 254.287920875 c 0,121,-1
 149.34043519 241.400899532 151.464816242 231.351837585 153 216 c 8,124,-1
 154 206 151 199 156 191 c 24,1,-1
141 386 m 24,127,-1
 154 413 160 427 176 452 c 24,130,-1
 189 472 198 481 214 500 c 24,133,-1
 231 521 242 531 259 552 c 24,136,-1
 270 565 275 573 286 586 c 24,139,-1
 300 604 309 614 323 632 c 24,142,-1
 341 654 349 667 368 688 c 24,145,-1
 382 705 391 714 407 729 c 24,148,-1
 418 740 424 748 438 755 c 24,151,-1
 452 762 462 764 478 765 c 16,154,-1
 481.565794507 765.274291885 484.830644862 765.473347732 487.897734236 765.473347732 c 0,157,-1
 496.012489971 765.473347732 502.742918852 764.079956804 510 759 c 8,160,-1
 521 751 518 739 528 730 c 24,163,-1
 536 723 544 726 553 721 c 24,166,-1
 565 714 571 710 583 701 c 24,169,-1
 594 693 599 688 610 679 c 24,172,-1
 623 668 629 660 642 650 c 24,175,-1
 657 637 669 633 683 619 c 24,178,-1
 703 599 712 584 730 562 c 24,181,-1
 740 550 746 543 755 530 c 24,184,-1
 767 513 775 504 783 484 c 24,187,-1
 789 467 789 456 790 438 c 16,190,-1
 792.097167541 405.843431042 794.683014159 383.949122704 794.683014159 357.969288408 c 0,193,-1
 794.683014159 346.784947036 794.203776612 334.843431042 793 321 c 8,196,-1
 792 306 783 300 777 286 c 24,199,-1
 765 261 765 244 747 223 c 24,202,-1
 705 175 677 153 625 114 c 24,205,-1
 600 95 582 91 554 78 c 24,208,-1
 527 65 511 59 484 48 c 24,211,-1
 464 40 454 32 433 27 c 24,214,-1
 403 20 385 21 354 19 c 16,217,-1
 344.155473108 18.4530818393 336.105663062 17.6070442042 328.051037263 17.6070442042 c 0,220,-1
 321.378366771 17.6070442042 314.702391268 18.1876726427 307 20 c 8,223,-1
 277 28 261 35 233 50 c 24,226,-1
 214 60 203 68 187 82 c 24,229,-1
 168 99 157 108 142 130 c 24,232,-1
 129 149 126 163 117 184 c 24,235,-1
 113 192 111 197 109 205 c 24,238,-1
 105 222 103 231 102 248 c 16,241,-1
 101.822875656 251.011113856 101.739870411 253.802616478 101.739870411 256.452304858 c 0,244,-1
 101.739870411 268.762098123 103.531373033 278.011113856 106 292 c 8,247,-1
 108 303 110 309 114 320 c 24,250,-1
 124 346 129 361 141 386 c 24,127,-1
EndSplineSet
Validated: 1
EndChar

StartChar: o
Encoding: 111 111 41
Width: 1000
VWidth: 0
HStem: 58.3203 32.9111<266.179 411.537> 475.77 67.6357<477.395 524.551>
VStem: 169.236 44.123<138.214 288.42> 515.2 30.3994<415.524 453.424> 647.788 48.2725<287.776 417.213>
LayerCount: 2
Back
Fore
SplineSet
484.799804688 479.440429688 m 12
 454.400390625 474.3203125 434.400390625 472.400390625 408 458.959960938 c 28
 380.799804688 444.879882812 372.799804688 429.51953125 350.400390625 410.3203125 c 28
 324.799804688 387.919921875 308.799804688 376.400390625 286.400390625 352.719726562 c 28
 262.400390625 327.120117188 249.599609375 312.400390625 232 283.599609375 c 28
 220.799804688 265.6796875 216 253.51953125 214.400390625 233.6796875 c 20
 213.71875 226.048828125 213.359375 219.294921875 213.359375 212.934570312 c 4
 213.359375 196.890625 215.643554688 183.350585938 220.799804688 164.559570312 c 12
 224.799804688 150.48046875 230.400390625 142.799804688 241.599609375 131.280273438 c 28
 256 116.559570312 264 104.400390625 286.400390625 98 c 20
 302.727539062 93.0576171875 316.133789062 91.2314453125 330.244140625 91.2314453125 c 4
 341.71484375 91.2314453125 353.651367188 92.4384765625 368 94.16015625 c 12
 392.799804688 97.3603515625 405.599609375 105.040039062 427.200195312 114.639648438 c 28
 455.200195312 126.799804688 470.400390625 135.120117188 496 150.48046875 c 28
 515.200195312 162 524.799804688 169.6796875 540.799804688 183.759765625 c 28
 556.799804688 197.83984375 565.599609375 206.16015625 579.200195312 222.16015625 c 28
 596.799804688 243.919921875 605.599609375 257.360351562 620.799804688 279.759765625 c 28
 632 295.759765625 641.599609375 304.080078125 646.400390625 322 c 20
 647.384765625 325.782226562 647.788085938 329.17578125 647.788085938 332.373046875 c 4
 647.788085938 342.16015625 644.01171875 350.1015625 641.599609375 361.6796875 c 12
 637.599609375 382.799804688 637.599609375 395.599609375 627.200195312 415.440429688 c 28
 616.799804688 434.639648438 605.599609375 444.240234375 588.799804688 460.240234375 c 20
 582.862304688 466.045898438 576.924804688 475.76953125 569.640625 475.76953125 c 4
 568.091796875 475.76953125 566.483398438 475.330078125 564.799804688 474.3203125 c 12
 548 463.440429688 555.200195312 448.080078125 545.599609375 432.080078125 c 20
 540.953125 424.64453125 538.555664062 415.409179688 528.969726562 415.409179688 c 4
 528.654296875 415.409179688 528.331054688 415.419921875 528 415.440429688 c 12
 517.599609375 416.080078125 515.200195312 425.040039062 515.200195312 433.360351562 c 28
 515.200195312 442.3203125 528.799804688 444.879882812 529.599609375 453.83984375 c 20
 529.743164062 455.552734375 529.834960938 457.204101562 529.834960938 458.794921875 c 4
 529.834960938 466.119140625 527.887695312 472.147460938 520 476.879882812 c 4
 514.180664062 480.205078125 508.576171875 481.28515625 502.627929688 481.28515625 c 4
 497.127929688 481.28515625 491.333007812 480.362304688 484.799804688 479.440429688 c 12
182.400390625 313.040039062 m 12
 190.400390625 341.200195312 213.599609375 350.16015625 236.799804688 371.919921875 c 28
 259.200195312 393.040039062 275.200195312 403.280273438 299.200195312 423.120117188 c 28
 324 443.599609375 335.200195312 458.3203125 363.200195312 475.599609375 c 28
 384 488.400390625 399.200195312 490.959960938 424 499.919921875 c 28
 433.599609375 503.759765625 441.599609375 502.48046875 449.599609375 507.599609375 c 28
 467.200195312 518.48046875 468 534.48046875 489.599609375 540.879882812 c 20
 495.301757812 542.665039062 500.620117188 543.405273438 505.791992188 543.405273438 c 4
 517.309570312 543.405273438 528.102539062 539.735351562 540.799804688 535.759765625 c 12
 564.799804688 528.080078125 576.799804688 520.400390625 596.799804688 507.599609375 c 28
 620.799804688 491.599609375 635.200195312 482 652.799804688 461.51953125 c 28
 668.799804688 442.3203125 672.799804688 428.879882812 681.599609375 406.48046875 c 20
 689.190429688 388.262695312 696.060546875 377.53515625 696.060546875 359.538085938 c 4
 696.060546875 358.567382812 696.041015625 357.575195312 696 356.559570312 c 12
 694.400390625 325.200195312 689.599609375 306.639648438 675.200195312 277.200195312 c 28
 660 245.83984375 647.200195312 229.83984375 622.400390625 202.959960938 c 28
 595.200195312 173.51953125 576 159.440429688 542.400390625 135.120117188 c 28
 516.799804688 116.559570312 501.599609375 106.959960938 472 92.8798828125 c 28
 446.400390625 80.7197265625 429.599609375 76.8798828125 401.599609375 69.83984375 c 28
 378.400390625 63.4404296875 365.599609375 58.3203125 340.799804688 58.3203125 c 28
 309.599609375 58.3203125 289.599609375 58.3203125 262.400390625 69.83984375 c 28
 235.200195312 80.7197265625 225.599609375 94.16015625 206.400390625 113.360351562 c 28
 190.400390625 129.360351562 176.799804688 138.959960938 174.400390625 159.440429688 c 20
 171.298828125 185.080078125 169.236328125 206.325195312 169.236328125 226.860351562 c 4
 169.236328125 253.995117188 172.836914062 279.888671875 182.400390625 313.040039062 c 12
EndSplineSet
Validated: 524289
EndChar

StartChar: P
Encoding: 80 80 42
Width: 1000
VWidth: 0
HStem: 752 34<150.266 253.646>
VStem: 47 31.2991<149.859 357.58 419.135 519.51> 51 44<398.863 417.765> 58 23<532.916 601.47> 65 17<644.209 657.678> 270 27.375<624.759 731.672>
LayerCount: 2
Back
Fore
SplineSet
35 704 m 24x8c
 48 719 58 722 75 732 c 24
 93 742 104 746 123 755 c 24
 138 762 146 768 161 774 c 24
 177 780 185 784 202 786 c 24
 213 787 219 785 230 783 c 24
 244 781 253 782 266 776 c 24
 275 772 278 768 283 759 c 24
 290 746 292 737 294 723 c 16
 296.25 709.5 297.375 699.9375 297.375 688.40625 c 0
 297.375 684.5625 297.25 680.5 297 676 c 8
 296 660 296 650 291 635 c 24
 283 609 277 595 265 571 c 24
 253 547 243 535 229 512 c 24
 217 494 211 483 198 466 c 24
 181 443 171 431 153 408 c 24
 142 395 136 387 125 374 c 24
 119 366 118 359 109 354 c 24
 105 352 102 358 97 359 c 24
 92 360 88 362 85 358 c 24
 79 349 80 342 79 331 c 16
 78.261203875 315.485281374 78.0682274643 302.426751463 78.0682274643 289.959381376 c 0
 78.0682274643 276.322119142 78.2991194745 263.392166572 78.2991194745 248.728665272 c 0
 78.2991194745 240.507424114 78.2265409197 231.741259545 78 222 c 8
 78 205 77 196 75 179 c 16
 73.178632795 167.161113167 68.8692317182 160.298294078 68.8692317182 149.348296134 c 0
 68.8692317182 148.274361821 68.9106836025 147.161113167 69 146 c 8
 69 141 74 135 78 138 c 24
 84 142 82 149 85 156 c 24
 91 168 91 177 101 186 c 24
 105 189 112 185 113 180 c 16
 113.911578566 176.049826214 114.269173477 172.561305474 114.269173477 169.253882432 c 0
 114.269173477 161.676594603 112.392280956 155.049826214 111 146 c 8
 108 131 105 123 101 108 c 24
 97 95 94 88 91 76 c 24
 88 62 91 54 87 40 c 24
 86 35 84 29 78 30 c 24
 68 32 64 39 57 46 c 24
 52 51 51 56 49 62 c 24
 45 78 42 87 42 103 c 24
 42 117 46 125 47 139 c 24xc4
 49 162 51 176 51 199 c 24xa4
 51 222 47 236 47 259 c 24xc4
 47 284 52 298 53 323 c 16
 53.1428571429 327.428571429 53.2040816327 331.571428571 53.2040816327 335.510204082 c 0
 53.2040816327 359.142857143 51 375.428571429 51 402 c 0
 51 418 51.4444444444 429.111111111 51.4444444444 441.851851852 c 0
 51.4444444444 448.222222222 51.3333333333 455 51 463 c 0xa4
 50.0900980486 485.747548784 45.8685098529 499.387960396 45.8685098529 520.494438604 c 0
 45.8685098529 522.58439181 45.9099019514 524.747548784 46 527 c 8
 47 549 57 560 58 582 c 24
 59 593 52 598 50 608 c 24
 49 616 48 620 50 628 c 24
 51 632 54 638 58 636 c 24
 70 631 79 627 83 615 c 16
 84.6363636364 610.363636364 85.2314049587 606.099173554 85.2314049587 601.983471074 c 0
 85.2314049587 591.008264463 81 581.090909091 81 568 c 8
 81 551 81 541 81 524 c 24
 81 513 82 506 81 495 c 24x94
 80 481 78 473 78 459 c 16
 78 450.384615385 76.4852071006 443.662721893 76.4852071006 436.736913974 c 0
 76.4852071006 432.408284024 77.0769230769 428 79 423 c 8
 82 417 91 423 95 418 c 24
 99 413 92 407 95 402 c 24xa4
 97 398 103 396 106 399 c 24
 115 408 114 417 122 427 c 24
 138 448 151 457 167 478 c 24
 180 494 183 505 195 523 c 24
 211 548 223 560 238 586 c 24
 250 607 255 619 262 642 c 24
 267 659 269 669 270 687 c 24
 271 695 269 700 267 708 c 24
 264 718 264 725 257 732 c 24
 251 739 245 740 235 744 c 24
 224 748 217 752 205 752 c 24
 193 752 187 748 175 744 c 24
 157 738 147 736 130 728 c 24
 117 722 110 717 98 708 c 24
 89 701 80 699 77 688 c 16
 76.3276734354 685.983020306 76.0508670041 684.079046365 76.0508670041 682.250089791 c 0
 76.0508670041 673.720881558 82.0707329959 666.823118442 82.0707329959 657.704086209 c 0
 82.0707329959 657.144712011 82.0480816412 656.576979694 82 656 c 8
 81 650 79 646 73 644 c 24
 69 643 67 647 65 650 c 24
 61 656 64 662 59 666 c 24
 54 671 49 668 43 671 c 24
 38 673 31 673 30 679 c 24
 28 689 29 696 35 704 c 24x8c
EndSplineSet
Validated: 1
EndChar

StartChar: p
Encoding: 112 112 43
Width: 1000
VWidth: 0
HStem: 512.894 53.9647<330.776 488.62> 534.154 57.8457<519.781 621.344>
VStem: 66.7048 106.28<-305.076 -150.628> 231.867 94.6802<475.044 533.832> 270.152 63.8961<370.359 480.431> 270.152 56.3946<444.594 485.456> 630.799 76.9952<477.488 525.133>
LayerCount: 2
Back
SplineSet
573 531 m 28
 548 528 538 510 513 507 c 24
 448 500 405 535 345 507 c 24
 315 493 336 456 330 423 c 24
 322 381 317 357 309 315 c 24
 303 283 305 265 294 234 c 24
 286 211 270 203 261 180 c 24
 256 167 253 156 261 144 c 24
 266 136 278 139 285 144 c 24
 317 166 331 184 360 210 c 24
 392 240 409 258 441 288 c 24
 458 305 470 312 486 330 c 24
 513 360 526 379 552 411 c 24
 571 434 579 450 600 471 c 24
 607 478 619 474 624 483 c 24
 630 496 634 509 624 519 c 24
 609 533 593 533 573 531 c 28
177 108 m 24
 200 170 214 205 237 267 c 24
 247 295 254 310 261 339 c 24
 268 367 273 383 273 411 c 24
 273 438 270 454 261 480 c 24
 256 496 241 500 237 516 c 24
 233 531 232 543 240 555 c 24
 251 571 266 571 282 582 c 24
 294 591 297 608 312 606 c 24
 326 604 320 583 333 576 c 24
 350 567 362 569 381 570 c 24
 433 572 462 577 513 582 c 24
 552 586 573 592 612 591 c 24
 636 591 653 593 672 579 c 24
 693 564 701 547 705 522 c 24
 708 500 702 486 690 468 c 24
 660 423 636 403 600 363 c 24
 567 325 549 302 513 267 c 24
 492 246 475 239 453 219 c 24
 419 187 403 166 369 132 c 24
 337 100 319 82 285 51 c 24
 262 30 242 26 225 0 c 24
 208 -27 209 -48 201 -78 c 24
 190 -120 182 -143 174 -186 c 24
 167 -224 173 -247 162 -285 c 24
 156 -303 149 -315 132 -324 c 24
 117 -331 98 -335 90 -321 c 24
 70 -283 69 -255 72 -213 c 24
 75 -169 89 -146 105 -105 c 24
 116 -77 128 -64 141 -36 c 24
 147 -23 156 -15 153 0 c 24
 150 14 127 13 129 27 c 24
 132 45 153 44 162 60 c 24
 172 77 170 90 177 108 c 24
EndSplineSet
Fore
SplineSet
542 526 m 8x6a
 524 519 517 507 498 504 c 16
 495.019295727 503.611212486 492.189747185 503.440761028 489.472176067 503.440761028 c 0
 471.220160806 503.440761028 458.019295727 511.129595838 438 512 c 0
 426.372446517 512.447213595 417.144893034 512.894427191 408.170714293 512.894427191 c 0
 397.078019326 512.894427191 386.372446517 512.211145618 372 510 c 8
 355 507 338 509 330 494 c 16
 327.478750805 489.461751448 326.546675985 485.177770797 326.546675985 480.98778986 c 0xb2
 326.546675985 469.10108052 334.048208012 457.970900443 334.048208012 443.937965715 c 0
 334.048208012 443.298127438 334.032612724 442.652254488 334 442 c 8
 332 407 328 388 322 354 c 24
 314 307 313 279 298 234 c 24
 293 218 279 214 270 200 c 24
 265 192 256 184 262 176 c 16
 270.301270189 165.208348754 279.980762114 159.240473581 292.182574873 159.240473581 c 0
 294.679491924 159.240473581 297.282032303 159.490381057 300 160 c 8
 322 164 331 177 348 192 c 24
 372 214 381 231 404 254 c 24
 437 287 460 302 492 336 c 24
 520 365 533 384 558 416 c 24
 573 436 576 452 594 470 c 24
 602 478 616 470 622 480 c 16
 626.980987492 487.471481238 630.798995153 495.718282364 630.798995153 503.774938712 c 0
 630.798995153 508.658136335 629.396389071 513.471481238 626 518 c 8
 614 533 599 532 580 534 c 16
 578.434658856 534.104356076 576.934658856 534.154261199 575.487498967 534.154261199 c 0
 563.067139674 534.154261199 554.539014932 530.478219619 542 526 c 8x6a
318 608 m 24
 335 608 325 576 342 570 c 16
 348.559252951 567.729489363 354.545703841 566.859161543 360.264420698 566.859161543 c 0xb2
 377.213931363 566.859161543 391.811531911 574.504557919 412 576 c 8
 443 578 461 579 492 582 c 24
 533 586 555 591 596 592 c 16
 605.594898491 592.38379594 613.864103072 592.914891203 621.712139858 592.914891203 c 0
 634.312565331 592.914891203 645.827306611 591.545836543 660 586 c 8
 679 578 690 569 700 550 c 16
 705.705771366 539.222431864 707.794228634 530.454482672 707.794228634 520.638438763 c 0
 707.794228634 514.97114317 707.098076211 508.954482672 706 502 c 8
 703 485 697 476 686 462 c 24
 659 424 640 406 610 370 c 24
 585 341 573 323 546 296 c 24
 500 250 470 228 422 184 c 24
 386 151 367 132 332 98 c 24
 306 73 294 57 268 32 c 24
 254 19 242 15 230 0 c 24
 217 -16 212 -27 206 -46 c 24
 197 -75 196 -92 190 -122 c 24
 183 -156 177 -176 172 -210 c 16
 171.647853192 -213.169321268 171.51271929 -216.090627787 171.51271929 -218.851257161 c 0
 171.51271929 -227.963596448 172.985058488 -235.325292441 172.985058488 -244.077335432 c 0
 172.985058488 -247.732739399 172.728220211 -251.630678732 172 -256 c 8
 169 -273 165 -284 156 -298 c 24
 146 -314 138 -324 122 -332 c 24
 112 -337 101 -338 94 -330 c 24
 80 -315 80 -302 76 -282 c 16
 71.3524199846 -260.311293261 66.7048399691 -245.822586522 66.7048399691 -227.379687747 c 0
 66.7048399691 -222.012906584 67.098386677 -216.311293261 68 -210 c 8
 74 -173 88 -155 102 -120 c 24
 113 -94 119 -80 132 -54 c 24
 138 -41 146 -35 150 -22 c 24
 152 -14 151 -8 148 0 c 24
 144 10 136 12 132 22 c 24
 129 29 127 35 132 40 c 24
 142 51 157 46 164 58 c 24
 177 79 173 97 182 120 c 24
 197 161 211 182 226 224 c 24
 232 242 233 253 236 272 c 24
 240 302 239 320 244 350 c 24
 246 366 250 374 254 390 c 24
 260 413 269 426 270 450 c 16
 270.102084238 451.531263575 270.152062518 452.989578808 270.152062518 454.387711772 c 0x6a
 270.152062518 466.685453772 266.285410332 474.327095098 260 486 c 8
 253 498 240 498 236 510 c 16
 233.387059395 517.838821814 231.866512167 524.312151908 231.866512167 530.847169785 c 0
 231.866512167 536.81725414 233.135528726 542.838821814 236 550 c 8
 241 561 250 563 260 570 c 24
 282 586 291 608 318 608 c 24
EndSplineSet
Validated: 1
EndChar

StartChar: n
Encoding: 110 110 44
Width: 1000
VWidth: 0
HStem: 23.0791 16.4492G<76.3198 81.834 331.661 342.08> 453.672 43.2939<307.795 360.03>
VStem: 45.248 51.5293<26.9076 65.4388> 55.4668 51.1172<65.356 113.113> 63.2373 59.7178<82.5035 139.637> 73.1709 67.7295<114.832 186.203> 82.2012 68.6328<139.955 186.439> 119.227 1.80664<297.411 302.05> 128.258 69.5342<243.39 292.611> 143.242 36.2998<306.986 372.031> 176.119 38.8311<401.808 457.864> 187.858 41.541<307 326.464> 219.466 40.6367<329.75 391.296> 239.558 33.1875<391.471 409.866> 260.103 38.8311<410.994 427.873> 263.715 1.80566<362.385 365.859> 267.327 61.4072<430.662 457.178> 313.854 48.3613<18.7068 84.6529> 326.929 55.0859<44.9302 113.729> 341.377 55.9902<71.0278 175.522 488.782 501.628> 365.76 35.2197<137.561 216.563> 450.191 38.7217<430.676 501.198>
LayerCount: 2
Back
Fore
SplineSet
128.2578125 300.116210938 m 4xc08004
 128.2578125 302.145507812 130.063476562 303.499023438 131.870117188 302.823242188 c 4
 133.67578125 301.469726562 134.579101562 300.116210938 132.772460938 298.763671875 c 4
 130.063476562 295.381835938 128.2578125 296.057617188 128.2578125 300.116210938 c 4xc08004
119.2265625 300.116210938 m 4xc10004
 120.12890625 303.499023438 120.12890625 304.17578125 121.033203125 302.145507812 c 4
 121.936523438 300.116210938 121.936523438 298.087890625 121.033203125 297.411132812 c 4
 120.12890625 296.734375 119.2265625 298.087890625 119.2265625 300.116210938 c 4xc10004
263.71484375 365.733398438 m 4xc00104
 263.71484375 368.439453125 264.618164062 369.115234375 265.520507812 367.0859375 c 4
 266.423828125 365.733398438 265.520507812 363.02734375 264.618164062 362.3515625 c 4
 263.71484375 361.673828125 262.811523438 363.02734375 263.71484375 365.733398438 c 4xc00104
411.815429688 528.758789062 m 4
 422.474609375 530.036132812 429.510742188 530.7109375 434.823242188 530.7109375 c 4
 440.762695312 530.7109375 444.55078125 529.868164062 448.840820312 528.083007812 c 4
 458.7734375 524.0234375 475.931640625 511.170898438 475.931640625 507.7890625 c 4
 475.931640625 505.759765625 476.834960938 504.407226562 478.640625 504.407226562 c 4
 480.447265625 504.407226562 482.25390625 502.376953125 482.25390625 500.34765625 c 4
 482.25390625 497.642578125 484.059570312 492.907226562 485.866210938 489.524414062 c 4
 487.897460938 486.48046875 488.913085938 481.9140625 488.913085938 475.255859375 c 4
 488.913085938 473.036132812 488.80078125 470.583984375 488.575195312 467.877929688 c 4
 487.671875 459.083984375 486.76953125 447.583984375 486.76953125 440.819335938 c 4
 486.76953125 434.731445312 485.866210938 430.672851562 484.059570312 430.672851562 c 4
 483.157226562 431.349609375 481.349609375 423.232421875 480.447265625 413.084960938 c 4
 479.543945312 402.9375 477.737304688 388.732421875 475.028320312 381.291015625 c 4
 473.22265625 373.850585938 471.416015625 365.733398438 471.416015625 363.704101562 c 4
 470.513671875 361.673828125 468.70703125 358.291992188 466.901367188 356.939453125 c 4
 465.094726562 354.91015625 464.192382812 348.821289062 464.192382812 343.409179688 c 4
 465.094726562 335.29296875 464.192382812 333.263671875 460.580078125 334.616210938 c 4
 456.967773438 335.96875 456.064453125 334.616210938 457.87109375 328.528320312 c 4
 458.7734375 323.116210938 458.7734375 321.086914062 456.064453125 321.086914062 c 4
 454.258789062 321.762695312 452.452148438 319.057617188 452.452148438 315.674804688 c 4
 451.549804688 311.6171875 449.743164062 306.880859375 446.130859375 304.17578125 c 4
 443.421875 301.469726562 441.616210938 296.057617188 441.616210938 291.322265625 c 4
 441.616210938 285.911132812 439.809570312 281.852539062 438.00390625 280.499023438 c 4
 436.198242188 279.823242188 435.294921875 277.793945312 435.294921875 276.44140625 c 4
 436.198242188 275.087890625 434.391601562 269 432.5859375 262.912109375 c 4
 425.361328125 241.94140625 422.65234375 231.118164062 421.749023438 224.353515625 c 4
 421.749023438 222.32421875 420.845703125 219.618164062 419.943359375 218.265625 c 4
 418.13671875 216.913085938 415.427734375 210.825195312 413.622070312 204.736328125 c 4
 410.912109375 198.6484375 407.30078125 190.530273438 404.590820312 185.794921875 c 4
 402.78515625 181.737304688 400.979492188 175.6484375 400.979492188 172.943359375 c 4xc0000c
 400.979492188 169.560546875 398.26953125 164.825195312 396.463867188 161.443359375 c 4
 393.754882812 158.060546875 391.045898438 151.97265625 390.141601562 147.9140625 c 4
 389.23828125 143.85546875 387.432617188 139.120117188 386.529296875 136.4140625 c 4
 382.916992188 128.97265625 391.045898438 132.35546875 397.3671875 140.473632812 c 4xc00014
 403.688476562 147.9140625 405.494140625 148.58984375 410.912109375 146.561523438 c 4
 415.427734375 144.53125 416.331054688 142.501953125 414.524414062 137.766601562 c 4
 413.622070312 133.708007812 412.71875 128.97265625 411.815429688 126.267578125 c 4
 411.815429688 122.884765625 409.106445312 118.827148438 406.397460938 116.120117188 c 4
 402.78515625 113.415039062 400.979492188 109.35546875 402.78515625 106.650390625 c 4
 404.590820312 103.267578125 403.688476562 103.267578125 399.172851562 103.944335938 c 4
 395.560546875 105.296875 394.658203125 103.944335938 394.658203125 99.884765625 c 4
 394.658203125 96.5029296875 391.948242188 91.7685546875 388.3359375 89.0615234375 c 4
 384.723632812 85.6796875 382.014648438 82.2978515625 382.014648438 81.62109375 c 4xc00024
 382.014648438 80.267578125 377.499023438 72.8271484375 371.177734375 65.38671875 c 4
 364.84375 56.48828125 361.98046875 50.19140625 361.98046875 44.6708984375 c 4
 361.98046875 43.8955078125 362.036132812 43.1357421875 362.147460938 42.38671875 c 4
 362.193359375 41.8642578125 362.215820312 41.333984375 362.215820312 40.7958984375 c 4
 362.215820312 30.8828125 354.55078125 18.7099609375 347.698242188 18.7099609375 c 4
 345.34765625 18.5888671875 343.125976562 18.5283203125 341.034179688 18.5283203125 c 4
 322.287109375 18.5283203125 313.854492188 23.462890625 313.854492188 34.3916015625 c 4xc00044
 313.854492188 35.8251953125 314 37.3623046875 314.286132812 39.00390625 c 4
 315.189453125 44.416015625 316.091796875 51.1806640625 316.091796875 53.88671875 c 4
 316.091796875 58.62109375 317.8984375 64.033203125 324.219726562 75.533203125 c 4
 326.025390625 78.23828125 326.928710938 81.62109375 326.928710938 82.9736328125 c 4xc00024
 328.734375 89.7392578125 333.25 101.915039062 336.862304688 108.002929688 c 4
 339.571289062 111.385742188 341.376953125 116.796875 341.376953125 120.85546875 c 4xc00014
 341.376953125 124.23828125 342.280273438 127.620117188 344.086914062 128.296875 c 4
 345.892578125 129.650390625 347.698242188 134.384765625 348.6015625 139.795898438 c 4
 350.408203125 145.208007812 352.213867188 149.943359375 354.01953125 150.619140625 c 4
 354.922851562 151.296875 356.729492188 156.708007812 358.53515625 163.47265625 c 4
 359.438476562 170.236328125 362.147460938 175.6484375 363.05078125 175.6484375 c 4
 364.856445312 175.6484375 365.759765625 177.677734375 365.759765625 180.383789062 c 4xc0000c
 365.759765625 183.08984375 367.565429688 185.794921875 369.372070312 186.471679688 c 4
 371.177734375 187.1484375 372.081054688 191.8828125 372.081054688 195.942382812 c 4
 372.081054688 200.001953125 374.790039062 209.471679688 377.499023438 216.913085938 c 4
 380.208007812 224.353515625 383.8203125 235.176757812 384.723632812 241.94140625 c 4
 386.529296875 248.706054688 389.23828125 254.793945312 390.141601562 255.470703125 c 4
 392.8515625 256.823242188 395.560546875 263.587890625 400.076171875 278.469726562 c 4
 400.979492188 282.529296875 402.78515625 285.911132812 403.688476562 286.587890625 c 4
 407.30078125 288.6171875 424.458007812 339.3515625 427.166992188 354.233398438 c 4
 428.973632812 361.673828125 431.682617188 369.791992188 433.48828125 371.14453125 c 4
 436.198242188 373.174804688 438.907226562 383.3203125 440.712890625 393.467773438 c 4
 442.51953125 402.9375 444.325195312 413.084960938 446.130859375 415.791015625 c 4
 447.034179688 418.49609375 447.034179688 419.849609375 443.421875 419.849609375 c 4
 440.712890625 419.849609375 440.712890625 420.526367188 444.325195312 421.879882812 c 4
 447.9375 423.908203125 448.840820312 430.672851562 449.743164062 452.99609375 c 4
 450.005859375 459.859375 450.19140625 465.301757812 450.19140625 469.750976562 c 4
 450.19140625 480.650390625 449.076171875 485.59375 445.228515625 490.877929688 c 4
 439.809570312 500.34765625 438.907226562 501.024414062 423.555664062 501.701171875 c 4
 410.009765625 501.701171875 406.397460938 501.701171875 406.397460938 498.319335938 c 4
 406.397460938 496.2890625 404.590820312 494.935546875 402.78515625 494.935546875 c 4
 400.076171875 494.935546875 397.3671875 493.583007812 397.3671875 492.23046875 c 4xc00014
 396.463867188 490.877929688 391.948242188 489.524414062 387.432617188 488.84765625 c 4
 382.916992188 488.171875 377.499023438 486.819335938 374.790039062 485.465820312 c 4
 372.983398438 484.112304688 368.46875 482.759765625 365.759765625 482.083984375 c 4
 362.147460938 480.73046875 360.340820312 478.701171875 360.340820312 475.99609375 c 4
 360.340820312 472.61328125 335.958984375 453.671875 330.541015625 453.671875 c 4
 329.637695312 453.671875 328.734375 450.966796875 328.734375 448.9375 c 4xc0008c
 328.734375 445.5546875 324.219726562 442.172851562 317.8984375 438.791015625 c 4
 307.061523438 434.055664062 305.255859375 431.349609375 306.159179688 421.879882812 c 4
 306.159179688 419.172851562 304.352539062 417.143554688 301.643554688 417.143554688 c 4
 298.030273438 417.143554688 297.126953125 416.467773438 298.93359375 413.760742188 c 4xc00204
 299.836914062 410.37890625 298.93359375 409.703125 294.41796875 411.055664062 c 4
 289.903320312 411.732421875 287.194335938 409.703125 279.969726562 399.555664062 c 4
 276.357421875 392.114257812 272.745117188 384.673828125 272.745117188 381.967773438 c 4xc00404
 272.745117188 379.262695312 270.036132812 375.203125 266.423828125 372.497070312 c 4
 262.811523438 370.467773438 260.102539062 366.409179688 260.102539062 363.704101562 c 4xc00804
 260.102539062 361.673828125 258.296875 358.96875 257.393554688 358.291992188 c 4
 255.587890625 357.616210938 254.684570312 354.91015625 255.587890625 353.556640625 c 4
 256.490234375 350.850585938 255.587890625 349.498046875 252.877929688 349.498046875 c 4
 249.266601562 349.498046875 246.556640625 346.79296875 245.654296875 340.02734375 c 4
 243.84765625 334.616210938 242.041992188 330.557617188 241.138671875 330.557617188 c 4
 239.333007812 330.557617188 239.333007812 328.528320312 240.235351562 326.498046875 c 4
 241.138671875 325.145507812 240.235351562 323.116210938 238.4296875 323.116210938 c 4
 235.720703125 323.116210938 234.817382812 321.086914062 235.720703125 318.380859375 c 4
 236.624023438 314.999023438 235.720703125 313.646484375 233.01171875 313.646484375 c 4
 229.399414062 313.646484375 228.49609375 311.6171875 229.399414062 307.557617188 c 4xc01004
 230.302734375 303.499023438 229.399414062 301.469726562 222.174804688 299.440429688 c 4
 215.853515625 297.411132812 213.14453125 294.705078125 214.047851562 292.67578125 c 4
 214.950195312 291.322265625 214.950195312 288.6171875 213.14453125 287.940429688 c 4
 211.337890625 287.264648438 209.53125 281.852539062 208.627929688 276.44140625 c 4
 206.822265625 270.353515625 204.11328125 264.264648438 201.404296875 262.912109375 c 4
 199.59765625 260.881835938 197.791992188 258.852539062 197.791992188 257.5 c 4xc08004
 197.791992188 256.146484375 195.083007812 252.764648438 192.373046875 250.05859375 c 4
 187.858398438 246.676757812 187.858398438 245.323242188 190.567382812 243.294921875 c 4
 193.276367188 241.265625 191.470703125 238.559570312 184.24609375 231.793945312 c 4
 178.828125 226.3828125 175.215820312 221.6484375 176.119140625 217.588867188 c 4
 176.119140625 208.794921875 172.506835938 200.677734375 167.087890625 199.32421875 c 4
 164.37890625 197.971679688 163.4765625 195.942382812 164.37890625 193.236328125 c 4
 165.282226562 190.530273438 165.282226562 187.825195312 163.4765625 186.471679688 c 4
 161.669921875 185.794921875 159.864257812 183.766601562 159.864257812 181.737304688 c 4
 159.864257812 179.70703125 158.057617188 176.325195312 155.348632812 174.295898438 c 4
 152.639648438 172.266601562 150.833984375 167.53125 150.833984375 162.795898438 c 4xc22004
 150.833984375 158.737304688 148.124023438 152.649414062 146.318359375 150.619140625 c 4
 143.609375 147.9140625 141.802734375 143.178710938 140.900390625 139.795898438 c 4xc40004
 140.900390625 136.4140625 138.19140625 132.35546875 134.579101562 130.326171875 c 4
 130.966796875 128.296875 129.16015625 125.590820312 130.063476562 124.23828125 c 4
 130.966796875 122.208984375 129.16015625 120.1796875 126.451171875 119.502929688 c 4
 124.645507812 118.827148438 122.838867188 116.120117188 122.838867188 114.767578125 c 4
 122.91796875 114.354492188 122.955078125 113.885742188 122.955078125 113.370117188 c 4xc80004
 122.955078125 107.961914062 118.833984375 97.384765625 114.7109375 92.4443359375 c 4
 111.098632812 89.0615234375 111.098632812 84.3271484375 112.905273438 78.23828125 c 4
 114.7109375 71.474609375 114.7109375 69.4443359375 111.098632812 69.4443359375 c 4
 108.389648438 69.4443359375 106.583984375 68.091796875 106.583984375 66.7392578125 c 4xd00004
 106.583984375 65.38671875 104.77734375 64.7099609375 102.971679688 65.38671875 c 4
 97.552734375 66.7392578125 92.134765625 52.533203125 95.7470703125 45.7685546875 c 4
 96.455078125 44.4443359375 96.77734375 43.00390625 96.77734375 41.5126953125 c 4
 96.77734375 33.1005859375 86.5068359375 23.0791015625 77.1611328125 23.0791015625 c 4
 75.478515625 23.0791015625 73.826171875 23.404296875 72.267578125 24.1220703125 c 4
 69.55859375 24.798828125 64.140625 26.1513671875 59.625 26.828125 c 4
 51.888671875 28.408203125 45.248046875 37.3740234375 45.248046875 43.8193359375 c 4xe00004
 45.248046875 45.650390625 45.7841796875 47.27734375 46.982421875 48.4755859375 c 4
 50.88671875 52.5693359375 55.466796875 72.34375 55.466796875 82.4296875 c 4xd00004
 55.466796875 84.0087890625 55.3544921875 85.349609375 55.1103515625 86.3564453125 c 4
 54.20703125 91.091796875 55.1103515625 93.12109375 57.8193359375 94.4736328125 c 4
 61.431640625 95.150390625 63.2373046875 99.208984375 63.2373046875 104.620117188 c 4xc80004
 63.2373046875 109.35546875 64.140625 112.73828125 65.9462890625 112.73828125 c 4
 67.7529296875 112.73828125 69.55859375 115.443359375 69.55859375 118.149414062 c 4
 69.55859375 120.1796875 70.4619140625 122.884765625 71.365234375 122.884765625 c 4
 73.1708984375 122.884765625 74.07421875 126.943359375 73.1708984375 132.35546875 c 4xc40004
 72.267578125 138.443359375 73.1708984375 143.85546875 76.783203125 147.9140625 c 4
 79.4921875 151.296875 82.201171875 156.03125 82.201171875 158.737304688 c 4xc20004
 82.201171875 161.443359375 83.1044921875 166.854492188 84.91015625 170.236328125 c 4
 86.716796875 173.619140625 90.3291015625 179.03125 91.2314453125 181.737304688 c 4
 93.0380859375 184.442382812 95.7470703125 191.20703125 97.552734375 196.619140625 c 4
 99.359375 201.354492188 102.971679688 208.118164062 103.874023438 210.825195312 c 4
 104.77734375 213.530273438 107.486328125 220.970703125 110.1953125 227.736328125 c 4
 112.001953125 234.5 114.7109375 241.265625 116.516601562 242.618164062 c 4
 118.323242188 243.970703125 119.2265625 246.676757812 119.2265625 249.3828125 c 4
 118.323242188 252.088867188 121.033203125 259.529296875 123.7421875 264.94140625 c 4
 126.451171875 271.029296875 128.2578125 279.823242188 128.2578125 283.881835938 c 4xc18004
 127.354492188 289.29296875 128.2578125 292.67578125 130.966796875 293.352539062 c 4
 136.4296875 295.106445312 143.2421875 306.459960938 143.2421875 313.876953125 c 4xc04004
 143.2421875 315.041992188 143.073242188 316.109375 142.706054688 317.028320312 c 4
 141.802734375 320.41015625 142.706054688 323.116210938 143.609375 323.116210938 c 4
 148.124023438 323.116210938 153.54296875 335.96875 153.54296875 344.086914062 c 4
 153.54296875 354.91015625 159.864257812 373.850585938 163.4765625 373.850585938 c 4
 165.282226562 373.850585938 166.185546875 380.615234375 166.185546875 388.732421875 c 4
 166.185546875 397.526367188 167.991210938 409.026367188 169.797851562 415.114257812 c 4
 171.603515625 421.202148438 174.3125 432.703125 176.119140625 441.49609375 c 4
 179.559570312 453.5234375 183.364257812 459.27734375 189.614257812 459.27734375 c 4
 193.20703125 459.27734375 197.606445312 457.375976562 203.209960938 453.671875 c 4
 212.241210938 447.583984375 213.14453125 445.5546875 214.950195312 432.025390625 c 4xc02004
 214.950195312 423.232421875 214.950195312 415.114257812 213.14453125 413.760742188 c 4
 211.337890625 412.408203125 209.53125 406.3203125 209.53125 401.584960938 c 4
 208.627929688 396.173828125 206.822265625 390.76171875 205.016601562 389.409179688 c 4
 201.404296875 387.379882812 194.1796875 364.379882812 193.276367188 350.850585938 c 4
 192.373046875 346.79296875 189.6640625 339.3515625 186.955078125 333.939453125 c 4
 182.137695312 325.921875 179.541992188 317.90234375 179.541992188 312.701171875 c 4
 179.541992188 309.125976562 180.768554688 306.880859375 183.342773438 306.880859375 c 4
 186.051757812 306.880859375 187.858398438 308.234375 187.858398438 309.586914062 c 4xc05004
 187.858398438 310.263671875 190.567382812 314.322265625 194.1796875 318.380859375 c 4
 197.791992188 321.762695312 199.59765625 325.822265625 198.6953125 326.498046875 c 4
 196.888671875 327.174804688 197.791992188 327.8515625 200.500976562 327.8515625 c 4
 202.306640625 327.8515625 203.209960938 329.880859375 202.306640625 331.91015625 c 4
 201.404296875 333.263671875 202.306640625 335.29296875 204.11328125 335.29296875 c 4
 205.918945312 335.29296875 206.822265625 336.645507812 206.822265625 339.3515625 c 4
 206.822265625 341.380859375 209.53125 345.439453125 213.14453125 348.821289062 c 4
 216.756835938 352.204101562 219.465820312 356.939453125 219.465820312 359.64453125 c 4xc00804
 219.465820312 364.379882812 234.817382812 388.732421875 239.333007812 391.438476562 c 4
 241.138671875 392.114257812 242.041992188 393.467773438 240.235351562 393.467773438 c 4
 239.767578125 393.467773438 239.557617188 393.762695312 239.557617188 394.283203125 c 4xc00404
 239.557617188 397.784179688 249.064453125 411.493164062 253.78125 414.438476562 c 4
 257.393554688 415.791015625 260.102539062 419.172851562 260.102539062 421.202148438 c 4xc00204
 260.102539062 423.232421875 261.005859375 424.584960938 262.811523438 424.584960938 c 4
 264.618164062 424.584960938 266.423828125 425.9375 267.327148438 427.967773438 c 4
 268.23046875 430.672851562 267.327148438 431.349609375 263.71484375 429.99609375 c 4
 259.19921875 429.3203125 260.102539062 429.99609375 265.520507812 434.731445312 c 4xc00184
 269.1328125 437.4375 272.745117188 441.49609375 272.745117188 442.172851562 c 4
 272.745117188 442.848632812 275.454101562 446.231445312 279.969726562 449.614257812 c 4
 295.321289062 462.465820312 306.159179688 473.2890625 310.673828125 480.0546875 c 4
 312.48046875 484.112304688 316.995117188 488.171875 319.704101562 488.84765625 c 4
 322.413085938 489.524414062 326.025390625 491.553710938 326.928710938 493.583007812 c 4xc00424
 327.83203125 495.61328125 331.444335938 496.965820312 335.055664062 496.965820312 c 4
 338.66796875 496.965820312 341.376953125 498.995117188 341.376953125 501.024414062 c 4xc00014
 341.376953125 502.376953125 343.18359375 504.407226562 345.892578125 504.407226562 c 4
 348.6015625 504.407226562 350.408203125 505.759765625 350.408203125 507.7890625 c 4
 350.408203125 509.818359375 352.213867188 510.495117188 354.922851562 509.818359375 c 4
 357.631835938 509.142578125 361.244140625 511.170898438 363.953125 514.553710938 c 4
 366.662109375 517.259765625 370.274414062 519.2890625 371.177734375 517.935546875 c 4
 372.081054688 517.259765625 378.40234375 518.612304688 384.723632812 521.318359375 c 4
 391.948242188 524.0234375 403.688476562 527.40625 411.815429688 528.758789062 c 4
EndSplineSet
Validated: 524289
EndChar

StartChar: N
Encoding: 78 78 45
Width: 1000
VWidth: 0
VStem: 127.546 46.4542<12.547 45.6707> 232 40<384.004 481.637> 366 34<199.668 490.33>
LayerCount: 2
Back
Fore
SplineSet
634 773 m 0
 639 781 656 779 664 769 c 0
 670 762 670 760 666 745 c 0
 661 726 655 708 651 703 c 0
 650 701 649 698 650 697 c 0
 651 695 651 693 649 692 c 0
 648 691 646 684 644 675 c 0
 643 667 641 659 640 657 c 0
 639 655 636 644 634 632 c 0
 630 608 622 582 618 573 c 0
 615 566 607 541 603 523 c 0
 597 498 596 494 593 491 c 0
 592 490 589 480 587 471 c 0
 585 461 582 452 581 450 c 0
 579 447 575 434 574 419 c 0
 573 415 571 409 569 407 c 0
 564 401 553 369 553 358 c 0
 553 353 551 345 549 340 c 0
 546 336 544 328 544 322 c 0
 544 317 542 308 539 302 c 0
 537 297 535 288 535 282 c 0
 535 276 533 271 531 270 c 0
 530 269 529 266 530 264 c 0
 531 262 530 260 529 260 c 0
 527 260 525 255 524 249 c 0
 522 238 519 224 501 154 c 0
 496 134 491 113 491 109 c 0
 491 104 490 100 489 100 c 0
 487 100 486 95 485 89 c 0
 484.059032635 61.7119464266 478.690967365 39.7364103407 473.061558837 39.7364103407 c 0
 472.708391625 39.7364103407 472.354195812 39.8229020938 472 40 c 0
 468 43 465 32 469 26 c 0
 472 22 472 19 466 14 c 0
 462 11 457 5 455 3 c 0
 453 -2 451 -2 446 0 c 0
 442 2 436 4 433 4 c 0
 426.442364116 4 406.72067056 25.9400961192 406.72067056 32.0016744459 c 0
 406.72067056 32.4105755777 406.810415379 32.7472205054 407 33 c 0
 407 34 406 41 403 49 c 0
 400 56 399 63 400 65 c 0
 401 66 401 68 399 68 c 0
 397 68 396 72 396 78 c 0
 396 83 394 89 392 90 c 0
 391 91 390 92 391 94 c 0
 391 95 390 115 386 139 c 0
 383 163 380 191 379 200 c 0
 378 210 375 235 372 257 c 0
 370 279 367 311 366 330 c 0
 364 375 362 393 360 396 c 0
 359 397 358 414 357 433 c 0
 356 452 353 475 351 484 c 0
 348 493 345 506 343 514 c 0
 338 534 327 568 323 578 c 0
 318 590 312 588 312 574 c 0
 312 568 311 560 309 556 c 0
 308 552 306 543 305 536 c 0
 304 529 301 515 298 506 c 0
 295 496 292 483 291 477 c 0
 289 470 286 459 283 452 c 0
 280 445 279 439 280 437 c 0
 281 436 279 434 277 433 c 0
 273 432 272 427 272 420 c 0
 272 413 270 407 267 405 c 0
 264 403 263 398 264 393 c 0
 265 389 264 384 263 384 c 0
 260 382 257 369 255 354 c 0
 255 349 254 344 253 343 c 0
 251 340 234 290 233 283 c 0
 232 281 231 271 229 262 c 0
 227 253 225 243 223 241 c 0
 221 239 219 235 218 231 c 0
 211 200 205 183 197 168 c 0
 195 165 194 155 193 144 c 0
 192 133 188 112 185 97 c 0
 182 82 179 64 179 58 c 0
 178 51 177 44 175 42 c 0
 173 40 173 35 174 31 c 0
 175 23 169 17 154 13 c 0
 144 10 141 10 135 14 c 0
 129.089631 16.9551845001 127.545819714 18.2729098572 127.545819714 29.6474112795 c 0
 127.545819714 33.6689048237 127.738796125 38.947495376 128 46 c 0
 129 60 130 74 131 77 c 0
 132 82 135 94 139 123 c 0
 143 152 155 186 170 214 c 0
 172 217 173 222 173 224 c 0
 173 227 176 236 179 243 c 0
 183 251 185 258 184 260 c 0
 182 262 184 266 187 270 c 0
 189 274 191 279 190 280 c 0
 189 282 190 283 191 285 c 0
 193 286 195 289 195 293 c 0
 195 301 213 371 221 390 c 0
 223 397 225 406 225 410 c 0
 225 414 227 417 229 417 c 0
 230 417 232 421 232 425 c 0
 232 430 234 437 236 442 c 0
 242 454 254 506 254 519 c 0
 253 525 255 530 256 530 c 0
 259 530 263 540 264 552 c 0
 265 565 275 598 280 603 c 0
 283.648665604 607.560832005 288.129378751 624.602377157 288.129378751 634.391524321 c 0
 288.129378751 635.334133066 288.087833599 636.209497609 288 637 c 0
 287 644 298 658 305 658 c 0
 310 658 333 638 339 628 c 0
 358 596 377 540 382 498 c 0
 383 490 385 477 386 471 c 0
 388 464 391 447 393 433 c 0
 394 418 397 402 398 397 c 0
 398 391 400 374 400 359 c 0
 401 317 408 251 411 240 c 0
 413 235 414 229 413 226 c 0
 412 224 413 214 416 203 c 0
 424 167 426 146 428 110 c 0
 428 100 430 89 432 86 c 0
 436 79 437 79 440 84 c 0
 443 87 447 98 450 108 c 0
 453 119 456 129 457 132 c 0
 459 135 461 143 462 150 c 0
 463 158 465 164 467 164 c 0
 469 164 472 181 473 196 c 0
 474 198 475 201 476 203 c 0
 477 205 479 212 481 220 c 0
 482 227 484 234 485 234 c 0
 487 234 488 236 488 240 c 0
 488 248 497 283 501 289 c 0
 502 292 504 301 506 310 c 0
 507 318 509 328 511 331 c 0
 513 334 516 345 518 356 c 0
 527 397 530 408 532 408 c 0
 534 408 535 412 535 417 c 0
 535 421 536 428 537 432 c 0
 539 436 541 440 541 442 c 0
 541 443 544 449 546 453 c 0
 548 458 552 472 555 483 c 0
 557 494 562 505 564 509 c 0
 566 512 569 521 570 528 c 0
 571 536 573 544 575 547 c 0
 580 558 584 567 586 577 c 0
 587 583 589 589 590 590 c 0
 591 592 593 601 594 610 c 0
 595 620 598 628 599 629 c 0
 601 629 603 634 603 640 c 0
 603 645 604 653 605 656 c 0
 607 660 610 671 612 682 c 0
 614 692 617 703 619 707 c 0
 622 710 625 725 627 740 c 0
 629 755 632 770 634 773 c 0
EndSplineSet
Validated: 1
EndChar

StartChar: q
Encoding: 113 113 46
Width: 1000
VWidth: 0
HStem: -181.65 30.6502<114.05 183.828> -165 21.1287<182.541 208.441> -157 28<192.17 250.604> -122.76 23.7603<277.264 313.861> 240.703 41.2956<105.578 158.867>
VStem: 28.1464 31.8149<81.4097 189.524> 33 42<86.6763 118.558> 55 1<-122 -119.842 -113.721 -111.643> 61.0603 29.9397<-132.487 -27.9709> 69 1<113.935 116.722 117.278 120.065> 70 30<-107.527 1.66919> 75 44<-72.1919 36.9055> 120 30<99.1018 119.817> 127 55.1093<129.91 200.625 279.246 280.879> 138 2<223 229.905> 141 41<129.91 169.815>
LayerCount: 2
Back
Fore
SplineSet
69 117 m 0x1840
 69 123 69 125 70 122 c 0
 71 119 71 115 70 112 c 0x1820
 69 109 69 111 69 117 c 0x1840
138 228 m 0x1802
 138 233 139 234 140 230 c 0
 141 228 141 224 140 223 c 0
 139 222 138 224 138 228 c 0x1802
55 -114 m 0x19
 55 -108 55 -105 56 -109 c 0
 57 -113 57 -119 56 -122 c 0
 55 -124 55 -121 55 -114 c 0x19
127 280 m 0x9c04
 127 285 129 285 134 282 c 0
 138 280 144 279 149 281 c 0
 150.240393135 281.689107297 151.803697099 281.998319501 153.572107076 281.998319501 c 0
 164.162641573 281.998319501 182.109286462 270.908449091 182.109286462 263.910361441 c 0x9c04
 182.109286462 263.598323814 182.073605345 263.294421379 182 263 c 0
 181 260 182 256 185 253 c 0
 189 250 189 247 187 244 c 0
 184 241 186 240 195 241 c 0
 206 243 206 243 199 234 c 0
 194 227 194 225 199 220 c 0
 205 212 206 205 201 205 c 0
 199 205 197 209 196 213 c 0
 195 217 194 216 194 209 c 0
 194 203 196 197 198 196 c 0
 201 195 200 192 194 186 c 0
 190 180 187 174 188 170 c 0
 190 166 189 165 185 167 c 0
 182 168 181 167 182 163 c 0x9801
 183 160 182 154 180 150 c 0
 176 144 176 144 178 150 c 0
 181 161 177 158 171 146 c 0
 165 131 165 128 171 130 c 0
 174 132 176 131 176 128 c 0
 176 126 173 123 169 122 c 0
 166 121 162 118 161 115 c 0
 160 111 157 109 154 109 c 0
 150 109 149 107 150 105 c 0
 151 102 151 101 149 101 c 0
 145 101 134 73 132 57 c 0
 131 49 128 40 125 37 c 0
 122 35 120 32 122 32 c 0
 123 32 123 30 122 27 c 0
 120 25 119 19 119 14 c 0x9818
 119 10 117 4 115 2 c 0
 108 -4 105 -20 110 -20 c 0
 113 -20 112 -22 108 -26 c 0
 104 -29 101 -35 101 -39 c 0
 101 -43 100 -53 100 -62 c 0x9820
 99 -75 98 -77 96 -70 c 0
 93 -63 93 -64 92 -74 c 0
 92 -81 91 -92 91 -99 c 0
 90 -109 92 -115 101 -127 c 0
 108 -135 114 -143 114 -145 c 0
 115 -148 120 -150 125 -151 c 0x9880
 129 -151 137 -153 141 -155 c 0
 145 -156 151 -155 154 -153 c 0
 161.302967433 -148.435645354 176.9392682 -143.871290708 184.172935265 -143.871290708 c 0x5881
 184.86335345 -143.871290708 185.477225575 -143.912870929 186 -144 c 0
 189 -145 196 -141 203 -137 c 0
 209 -132 219 -129 223 -129 c 0
 228 -129 234 -126 237 -123 c 0
 240 -119 245 -116 248 -116 c 0
 251 -116 253 -114 253 -111 c 0
 253 -107 255 -106 258 -107 c 0
 261 -108 271 -106 281 -103 c 0
 290 -100 302 -98 306 -99 c 0
 311 -101 313 -100 311 -97 c 0
 310 -94 311 -92 314 -92 c 0
 320 -92 324 -109 321 -118 c 0
 319 -123 316 -125 312 -123 c 0
 311.429329898 -122.836951399 310.719089354 -122.760303549 309.893660615 -122.760303549 c 0
 300.59414826 -122.760303549 276.673902799 -132.489145802 273 -138 c 0
 272 -140 270 -141 268 -139 c 0
 266 -137 261 -138 258 -140 c 0
 242 -150 227 -157 221 -157 c 0x3881
 218 -157 214 -159 213 -161 c 0
 212 -163 208 -165 204 -165 c 0x5881
 201 -165 195 -167 193 -170 c 0
 186.580589093 -177.061351998 156.260053077 -181.650173812 130.343792512 -181.650173812 c 0
 115.888341497 -181.650173812 102.803119277 -180.222530184 96 -177 c 0
 82 -170 71 -158 65 -143 c 0
 62.3446311458 -136.361577865 61.06028691 -123.063893297 61.06028691 -108.394449637 c 0x9881
 61.06028691 -89.9172131954 63.0979303299 -69.2636475346 67 -57 c 0
 70 -47 71 -36 70 -32 c 0x9820
 69 -27 70 -25 72 -26 c 0
 74 -27 75 -26 75 -23 c 0x9810
 75 -13 86 26 91 33 c 0x9880
 99 44 97 53 85 53 c 0
 79 53 75 51 75 49 c 0x9810
 75 47.4101374805 74.0198858411 46.6972192085 72.3642771919 46.6972192085 c 0
 66.7304124416 46.6972192085 53.2745213952 54.9526018218 44 65 c 0
 36 73 33 81 33 89 c 0x9a
 33 95 32 101 30 103 c 0
 28.7081318457 103.968901116 28.1464176474 110.466110756 28.1464176474 118.954394007 c 0
 28.1464176474 136.748307504 30.6148351929 163.291868154 34 166 c 0
 36 167 37 173 35 179 c 0
 33 187 34 189 40 191 c 0
 45 192 47 195 46 197 c 0
 44 199 46 203 49 206 c 0
 52 208 56 216 59 223 c 0
 66 240 75 251 86 258 c 0
 92 261 97 268 98 272 c 0
 100 280 101 281 109 278 c 0
 121 272 127 273 127 280 c 0x9c04
150 235 m 0x1808
 148.291502622 238.986493882 145.610017481 240.702682982 139.184966172 240.702682982 c 0
 134.328083908 240.702682982 127.332020977 239.722003496 117 238 c 0
 107 237 89 218 89 210 c 0
 89 207 88 205 86 205 c 0
 80 205 66 168 66 151 c 0
 66 143 64 135 62 134 c 0
 60.627416998 133.313708499 59.9613280325 131.567675943 59.9613280325 128.802307404 c 0
 59.9613280325 123.50880144 62.4020202536 114.48023074 67 102 c 0
 69 95 71 88 71 85 c 0
 71 79 89 80 97 87 c 0
 101 90 102 94 101 97 c 0
 99 100 100 101 103 99 c 0
 107 96 120 112 120 120 c 0x1c08
 120 123 123 129 125 134 c 0
 128 139 131 151 133 160 c 0
 134 169 136 178 138 180 c 0
 140 181 141 185 141 189 c 0x1803
 141 192 144 198 148 200 c 0
 151.90206967 202.787192622 153.93971309 208.681762327 153.93971309 215.95153742 c 0
 153.93971309 221.723155729 152.655368854 228.361577865 150 235 c 0x1808
EndSplineSet
Validated: 524289
EndChar

StartChar: R
Encoding: 82 82 47
Width: 1000
VWidth: 0
HStem: 85 57.3047<329.375 369.753> 769 20G<307.5 310>
VStem: 29 50<15.1112 110.17> 107.036 93.7415<321.285 364.389> 118 61<402.958 531.764> 140.91 76.0898<585.674 682.821> 260 69<151.603 199.093> 323 27<541.667 558.749> 334 42<546.516 677.583> 354 43.266<589.406 720.126>
LayerCount: 2
Back
SplineSet
279.241210938 784.079101562 m 0
 293.018554688 786.478515625 306.497070312 788.756835938 308.649414062 789.049804688 c 0
 310.919921875 789.358398438 312.623046875 785.533203125 312.623046875 780.124023438 c 0
 312.623046875 772.55078125 313.577148438 772.2265625 317.392578125 778.500976562 c 0
 321.266601562 784.874023438 323.750976562 785.026367188 330.638671875 779.3125 c 0
 335.408203125 775.357421875 339.1171875 773.818359375 339.1171875 775.796875 c 0
 339.1171875 777.75 348.041015625 768.494140625 359.196289062 754.970703125 c 0
 399.80078125 705.745117188 398.536132812 708.935546875 396.3046875 661.387695312 c 0
 394.833007812 630.013671875 391.586914062 614.022460938 385.215820312 606.752929688 c 0
 380.474609375 601.34375 376.208007812 594.041015625 376.208007812 591.3359375 c 0
 376.208007812 588.470703125 370.348632812 573.755859375 362.9609375 558.068359375 c 0
 355.573242188 542.380859375 349.713867188 527.786132812 349.713867188 525.071289062 c 0
 349.713867188 522.150390625 348.125 519.4453125 345.740234375 518.309570312 c 0
 343.532226562 517.2578125 334.665039062 505.59765625 325.7890625 492.07421875 c 0
 290.28515625 437.979492188 256.415039062 395.856445312 226.784179688 368.944335938 c 0
 198.701171875 343.438476562 196.290039062 339.72265625 206.119140625 337.094726562 c 0
 212.477539062 335.39453125 217.247070312 331.916992188 217.247070312 328.98046875 c 0
 217.247070312 326.177734375 223.870117188 317.203125 231.818359375 309.236328125 c 0
 239.766601562 301.26953125 249.400390625 287.869140625 253.012695312 279.754882812 c 0
 256.625976562 271.640625 261.803710938 264.87890625 264.405273438 264.87890625 c 0
 267.107421875 264.87890625 271.9296875 257.846679688 275.532226562 248.651367188 c 0
 279.135742188 239.455078125 283.727539062 232.422851562 286.129882812 232.422851562 c 0
 288.442382812 232.422851562 297.233398438 218.899414062 305.469726562 202.670898438 c 0
 313.70703125 186.443359375 322.377929688 172.919921875 324.545898438 172.919921875 c 0
 326.685546875 172.919921875 328.51953125 169.673828125 328.51953125 165.887695312 c 0
 328.51953125 153.314453125 349.713867188 139.426757812 363.491210938 142.97265625 c 0
 381.596679688 147.631835938 384.173828125 135.594726562 370.745117188 109.088867188 c 0
 362.248046875 92.3193359375 356.145507812 86.9033203125 343.62109375 85.0166015625 c 0
 329.544921875 82.896484375 326.537109375 84.74609375 320.306640625 99.3515625 c 0
 316.422851562 108.455078125 305.224609375 124.775390625 295.809570312 135.053710938 c 0
 274.006835938 158.85546875 259.63671875 180.989257812 259.63671875 190.770507812 c 0
 259.63671875 194.935546875 254.8671875 202.725585938 249.0390625 208.080078125 c 0
 243.209960938 213.435546875 238.44140625 220.0078125 238.44140625 222.685546875 c 0
 238.44140625 234.586914062 165.534179688 318.973632812 155.251953125 318.973632812 c 0
 151.012695312 318.973632812 149.309570312 316.422851562 151.278320312 313.022460938 c 0
 153.24609375 309.623046875 152.411132812 302.204101562 149.330078125 295.712890625 c 0
 140.541015625 277.194335938 121.530273438 221.604492188 114.737304688 194.556640625 c 0
 111.340820312 181.033203125 105.444335938 164.565429688 101.469726562 157.502929688 c 0
 97.6181640625 150.658203125 93.828125 135.053710938 93.2568359375 123.694335938 c 0
 92.6865234375 112.333984375 89.2626953125 99.6015625 85.8388671875 96.1064453125 c 0
 82.306640625 92.5 79.48046875 83.123046875 79.48046875 75.009765625 c 0
 79.48046875 56.076171875 61.2998046875 14.984375 47.158203125 1.9560546875 c 0
 36.03125 -8.294921875 36.03125 -8.294921875 28.34765625 2.5234375 c 0
 23.4306640625 9.447265625 22 18.2109375 24.3740234375 26.8662109375 c 0
 26.41015625 34.2900390625 28.44140625 46.6103515625 28.8779296875 54.18359375 c 0
 29.314453125 61.7568359375 31.46484375 70.904296875 33.646484375 74.46875 c 0
 35.96484375 78.2548828125 36.26953125 83.2138671875 34.376953125 86.369140625 c 0
 29.8349609375 93.9423828125 37.0185546875 114.221679688 42.919921875 110.485351562 c 0
 45.4970703125 108.853515625 47.6884765625 116.662109375 47.6884765625 127.48046875 c 0
 47.6884765625 138.299804688 49.392578125 145.755859375 51.3974609375 143.708984375 c 0
 56.2587890625 138.74609375 68.66015625 181.57421875 68.7841796875 203.752929688 c 0
 68.837890625 213.490234375 71.2919921875 221.604492188 74.181640625 221.604492188 c 0
 77.1494140625 221.604492188 79.48046875 227.5546875 79.48046875 235.127929688 c 0
 79.48046875 242.700195312 81.345703125 248.651367188 83.7197265625 248.651367188 c 0
 88.3896484375 248.651367188 108.313476562 342.233398438 107.213867188 359.002929688 c 0
 106.823242188 364.953125 108.888671875 372.7421875 111.802734375 376.3125 c 0
 114.74609375 379.918945312 117.690429688 400.114257812 118.42578125 421.751953125 c 0
 119.162109375 443.389648438 122.223632812 462.26171875 125.314453125 464.215820312 c 0
 128.364257812 466.142578125 132.673828125 484.23046875 134.8515625 504.245117188 c 0
 137.030273438 524.259765625 140.98046875 540.758789062 143.594726562 540.758789062 c 0
 149.423828125 540.758789062 149.928710938 614.731445312 144.125 618.379882812 c 0
 136.666992188 623.068359375 142.53515625 677.946289062 151.012695312 682.80078125 c 0
 155.251953125 685.228515625 158.9609375 691.013671875 158.9609375 695.196289062 c 0
 158.9609375 701.388671875 161.080078125 701.68359375 169.028320312 696.594726562 c 0
 182.592773438 687.91015625 194.1875 697.630859375 201.235351562 723.595703125 c 0
 208.354492188 749.822265625 244.799804688 778.081054688 279.241210938 784.079101562 c 0
300.436523438 742.192382812 m 0
 289.309570312 747.325195312 279.404296875 751.599609375 278.9765625 751.454101562 c 0
 278.5390625 751.305664062 273.413085938 749.138671875 267.583984375 746.639648438 c 0
 257.814453125 742.451171875 240.888671875 719.809570312 223.66796875 687.893554688 c 0
 220.209960938 681.486328125 217.247070312 669.501953125 217.247070312 661.928710938 c 0
 217.247070312 654.39453125 212.326171875 640.83203125 206.649414062 632.717773438 c 0
 198.059570312 620.44140625 195.549804688 605.94140625 193.40234375 556.174804688 c 0
 191.955078125 522.63671875 188.108398438 481.279296875 184.924804688 465.026367188 c 0
 181.745117188 448.798828125 178.85546875 427.407226562 178.56640625 417.96484375 c 0
 178.268554688 408.228515625 176.181640625 401.852539062 173.797851562 403.392578125 c 0
 166.555664062 408.0703125 168.799804688 400.114257812 177.163085938 391.458984375 c 0
 188.282226562 379.952148438 199.028320312 387.131835938 236.263671875 430.947265625 c 0
 274.87890625 476.38671875 291.428710938 500.080078125 291.428710938 509.924804688 c 0
 291.428710938 514.110351562 298.540039062 526.694335938 307.32421875 538.053710938 c 0
 316.109375 549.413085938 323.220703125 561.875976562 323.220703125 565.912109375 c 0
 323.220703125 569.698242188 325.772460938 573.21484375 328.51953125 573.21484375 c 0
 331.345703125 573.21484375 333.818359375 578.89453125 333.818359375 585.385742188 c 0
 333.818359375 592.147460938 337.115234375 604.047851562 341.236328125 612.162109375 c 0
 345.357421875 620.276367188 347.359375 632.056640625 345.740234375 638.66796875 c 0
 343.752929688 646.782226562 344.848632812 649.278320312 349.184570312 646.51171875 c 0
 353.702148438 643.629882812 355.211914062 648.405273438 354.400390625 663.010742188 c 0
 352.236328125 701.958007812 335.994140625 725.790039062 300.436523438 742.192382812 c 0
EndSplineSet
Fore
SplineSet
279 784 m 0xe4
 293 786 306 789 309 789 c 0
 311 789 313 786 313 780 c 0
 313 773 314 772 317 779 c 0
 321 785 324 785 331 779 c 0
 335 775 339 774 339 776 c 0
 339 778 348 768 359 755 c 0
 390.636083056 717.191022689 397.266006952 710.342051957 397.266006952 687.134282 c 0xe440
 397.266006952 680.265048854 396.685164654 671.962634471 396 661 c 0
 395 630 392 614 385 607 c 0
 380 601 376 594 376 591 c 0xe080
 376 588 370 574 363 558 c 0
 356 542 350 528 350 525 c 0
 350 522 348 519 346 518 c 0
 344 517 335 506 326 492 c 0
 290 438 256 396 227 369 c 0
 208.333333333 351.666666667 200.777777778 344.555555556 200.777777778 340.851851852 c 0xf1
 200.777777778 339 202.666666667 338 206 337 c 0
 212 335 217 332 217 329 c 0xe4
 217 326 224 317 232 309 c 0
 240 301 249 288 253 280 c 0
 257 272 262 265 264 265 c 0
 267 265 272 258 276 249 c 0
 279 239 284 232 286 232 c 0
 288 232 297 219 305 203 c 0
 314 186 322 173 325 173 c 0
 327 173 329 170 329 166 c 0
 329 154.54083133 345.31694366 142.304665343 358.088634359 142.304665343 c 0
 359.805951011 142.304665343 361.45916867 142.525898052 363 143 c 0
 365.818715659 143.741767279 368.263282606 144.109385844 370.340230986 144.109385844 c 0
 376.362425981 144.109385844 379.293929478 141.018694346 379.293929478 134.996499351 c 0
 379.293929478 129.095642727 376.479366865 120.38022349 371 109 c 0
 362 92 356 87 344 85 c 0
 330 83 327 85 320 99 c 0
 316 108 305 125 296 135 c 0
 274 159 260 181 260 191 c 0
 260 195 255 203 249 208 c 0
 243 213 238 220 238 223 c 0
 238 235 166 319 155 319 c 0
 151 319 149 316 151 313 c 0
 153 310 152 302 149 296 c 0
 141 277 122 222 115 195 c 0
 111 181 105 165 101 158 c 0
 98 151 94 135 93 124 c 0
 93 112 89 100 86 96 c 0
 82 92 79 83 79 75 c 0
 79 56 61 15 47 2 c 0
 36 -8 36 -8 28 3 c 0
 23 9 22 18 24 27 c 0
 26 34 28 47 29 54 c 0
 29 62 31 71 34 74 c 0
 36 78 36 83 34 86 c 0
 30 94 37 114 43 110 c 0
 45 109 48 117 48 127 c 0
 48 138 49 146 51 144 c 0
 51.2709715976 143.729028402 51.5654393894 143.59903397 51.8800608047 143.59903397 c 0
 57.3708709922 143.59903397 69 183.19227503 69 204 c 0
 69 213 71 222 74 222 c 0
 77 222 79 228 79 235 c 0
 79 243 81 249 84 249 c 0
 87.90267581 249 107.036230098 337.529481152 107.036230098 357.626574878 c 0xf2
 107.036230098 358.127752394 107.024331048 358.586372192 107 359 c 0
 107 365 109 373 112 376 c 0
 115 380 118 400 118 422 c 0xe8
 119 443 122 462 125 464 c 0
 128 466 133 484 135 504 c 0
 137 524 141 541 144 541 c 0
 146.612940605 541 148.133487833 561.209277467 148.133487833 580.933729579 c 0
 148.133487833 598.953059465 146.864471274 616.567764363 144 618 c 0
 141.831058302 619.54924407 140.910198342 625.898802515 140.910198342 634.073931903 c 0
 140.910198342 652.283055159 145.478790512 679.54924407 151 683 c 0
 155 685 159 691 159 695 c 0
 159 701 161 702 169 697 c 0
 172.380221215 694.827000647 175.585556275 693.76161361 178.601930087 693.76161361 c 0
 188.078594655 693.76161361 195.690110608 704.277553685 201 724 c 0
 208 750 245 778 279 784 c 0xe4
300 742 m 0
 289 747 279 752 279 751 c 0
 279 751 273 749 268 747 c 0
 258 742 241 720 224 688 c 0
 220 681 217 670 217 662 c 0xe440
 217 654 212 641 207 633 c 0
 198 620 196 606 193 556 c 0
 192 523 188 481 185 465 c 0
 182 449 179 427 179 418 c 0
 178 408 176 402 174 403 c 0
 167 408 169 400 177 391 c 0
 179.944985283 388.055014717 182.889970566 386.400218605 186.333891662 386.400218605 c 0
 195.753577146 386.400218605 208.905859588 398.779941131 236 431 c 0
 275 476 291 500 291 510 c 0
 291 514 299 527 307 538 c 0
 316 549 323 562 323 566 c 0xe9
 323 570 326 573 329 573 c 0
 331 573 334 579 334 585 c 0xe280
 334 592 337 604 341 612 c 0
 345 620 347 632 346 639 c 0
 344 647 345 649 349 647 c 0
 354 644 355 648 354 663 c 0
 352 702 336 726 300 742 c 0
EndSplineSet
Validated: 524289
EndChar

